<?xml version="1.0" standalone="no"?>
<!DOCTYPE svg PUBLIC "-//W3C//DTD SVG 1.1//EN" "http://www.w3.org/Graphics/SVG/1.1/DTD/svg11.dtd" >
<svg>
<metadata>
Created by FontForge 20090622 at Sun Nov 20 12:34:21 2016
 By deploy user
Copyright (c) 2004-2008, SIL International (http://www.sil.org/). Licensed under the SIL Open Font License, Version 1.1 (http://scripts.sil.org/OFL), with Reserved Font Names "Andika" and "SIL".
</metadata>
<defs>
<font id="AndikaBasic" horiz-adv-x="1200" >
  <font-face 
    font-family="Andika Basic"
    font-weight="400"
    font-stretch="normal"
    units-per-em="2048"
    panose-1="2 0 0 0 0 0 0 0 0 0"
    ascent="1638"
    descent="-410"
    x-height="1020"
    cap-height="1460"
    bbox="-1114 -505 2101 2620"
    underline-thickness="80"
    underline-position="-70"
    unicode-range="U+0020-U+FB02"
  />
<missing-glyph horiz-adv-x="1400" 
d="M150 50h1100v1700h-1100v-1700zM100 1800h1200v-1800h-1200v1800z" />
    <glyph glyph-name=".notdef" horiz-adv-x="1400" 
d="M150 50h1100v1700h-1100v-1700zM100 1800h1200v-1800h-1200v1800z" />
    <glyph glyph-name=".null" horiz-adv-x="0" 
 />
    <glyph glyph-name="nonmarkingreturn" horiz-adv-x="1024" 
 />
    <glyph glyph-name="space" unicode=" " horiz-adv-x="550" 
 />
    <glyph glyph-name="exclam" unicode="!" horiz-adv-x="764" 
d="M225 110q0 28 10.5 52.5t29 43t43 29t52.5 10.5t52.5 -10.5t43 -29t29 -43t10.5 -52.5t-10.5 -52.5t-29 -43t-43 -29t-52.5 -10.5t-52.5 10.5t-43 29t-29 43t-10.5 52.5zM275 440q-3 109 -4 228.5t-4.5 252.5t-10.5 279.5t-21 309.5h255q-15 -163 -22 -309.5
t-10.5 -279.5t-4.5 -252.5t-3 -228.5h-175z" />
    <glyph glyph-name="quotedbl" unicode="&#x22;" horiz-adv-x="1025" 
d="M620 1045l-4 109.5t-6 121.5t-11 141t-19 168h205q-11 -92 -18 -168t-11 -141t-6.5 -121.5t-4.5 -109.5h-125zM280 1045l-4 109.5t-6 121.5t-11 141t-19 168h205q-11 -92 -18 -168t-11 -141t-6.5 -121.5t-4.5 -109.5h-125z" />
    <glyph glyph-name="numbersign" unicode="#" 
d="M427 725h275l67 235h-275zM84 1110h303l100 350h150l-100 -350h275l100 350h150l-100 -350h213v-150h-256l-67 -235h264v-150h-307l-107 -375h-150l107 375h-275l-107 -375h-150l107 375h-209v150h252l67 235h-260v150z" />
    <glyph glyph-name="dollar" unicode="$" 
d="M365 1030q0 -32 7 -58t27 -49.5t57 -45t97 -43.5v388q-43 -8 -77.5 -27t-59 -44.5t-38 -56.5t-13.5 -64zM871 396q0 29 -7 55.5t-27.5 52t-57 50t-96.5 49.5v-429q40 11 74 30.5t59.5 47.5t40 64t14.5 80zM949 1127q-78 43 -140 66t-126 31v-433q88 -27 155.5 -61.5
t113.5 -80.5t70 -104t24 -131q0 -81 -28 -149t-76.5 -120.5t-115 -87.5t-143.5 -49v-228h-130v220q-62 2 -120 12t-109 26.5t-94.5 38t-76.5 47.5l42 189q84 -74 174 -110t184 -41v487q-8 2 -13 4q-108 32 -176 71t-106.5 84.5t-53 97.5t-14.5 111q0 54 20.5 114t65 112.5
t113 91.5t164.5 50v215h130v-213q83 -5 154.5 -24.5t148.5 -56.5z" />
    <glyph glyph-name="percent" unicode="%" horiz-adv-x="1526" 
d="M690 1089q0 -111 -22.5 -188t-62 -125t-94.5 -69.5t-121 -21.5t-119.5 21.5t-91.5 69t-58.5 122t-20.5 180.5t22 182t62 125t95 72t120 23q66 0 119.5 -22.5t91.5 -70.5t59 -122t21 -176zM525 1076q0 75 -7.5 125.5t-23.5 81.5t-41 44t-59 13q-33 0 -57 -13t-40 -42.5
t-24 -77t-8 -116.5q0 -75 7.5 -126t23.5 -82t40.5 -44.5t57.5 -13.5q32 0 56.5 13.5t41 43t25 77.5t8.5 117zM1239 1480l-780 -1505h-168l782 1505h166zM1426 379q0 -111 -22.5 -188t-62 -125t-94.5 -69.5t-121 -21.5t-119.5 21.5t-91.5 69t-58.5 122t-20.5 180.5t22 182
t62 125t95 72t120 23q66 0 119.5 -22.5t91.5 -70.5t59 -122t21 -176zM1261 366q0 75 -7.5 125.5t-23.5 81.5t-41 44t-59 13q-33 0 -57 -13t-40 -42.5t-24 -77t-8 -116.5q0 -75 7.5 -126t23.5 -82t40.5 -44.5t57.5 -13.5q32 0 56.5 13.5t41 43t25 77.5t8.5 117z" />
    <glyph glyph-name="ampersand" unicode="&#x26;" horiz-adv-x="1222" 
d="M315 1200q0 -54 39 -118.5t99 -142.5q84 84 130.5 148.5t46.5 117.5q0 33 -13 60t-34.5 46t-49.5 29t-58 10q-29 0 -57.5 -10.5t-51.5 -30t-37 -47.5t-14 -62zM535 570l-51.5 69l-51.5 67q-55 -50 -93.5 -93t-62.5 -82t-35 -76t-11 -75q0 -42 15 -83.5t43.5 -74
t70.5 -52.5t96 -20q31 0 66 10t72 28t74.5 42.5t73.5 53.5l-97.5 133.5zM490 1485q57 0 111 -19t96 -55.5t67.5 -89.5t25.5 -121q0 -42 -17.5 -88.5t-49.5 -95.5t-76 -100t-96 -102l49.5 -65.5l49.5 -68.5l109.5 -156l97.5 -131q41 45 71.5 90.5t46.5 86.5l105 -135
q-18 -36 -48.5 -80t-72.5 -90q72 -84 125 -131.5t91 -63.5l-34 -28.5t-41.5 -31t-41.5 -25t-33 -10.5q-21 0 -67 46t-115 132q-44 -37 -93 -69.5t-100.5 -56.5t-104.5 -38t-105 -14q-84 0 -154.5 31t-121.5 85t-80 127t-29 157q0 56 16.5 108t51 106t88 112t126.5 127
l-71.5 96t-58 92t-38.5 88.5t-14 85.5q0 83 30 139.5t78 91t107.5 49.5t119.5 15z" />
    <glyph glyph-name="quotesingle" unicode="'" horiz-adv-x="605" 
d="M240 1045l-4 109.5t-6 121.5t-11 141t-19 168h205q-11 -92 -18 -168t-11 -141t-6.5 -121.5t-4.5 -109.5h-125z" />
    <glyph glyph-name="parenleft" unicode="(" horiz-adv-x="795" 
d="M115 625q0 164 31.5 315.5t89 282.5t139 237t180.5 180l75 -155q-88 -77 -150 -170.5t-101 -202.5t-56.5 -231t-17.5 -256q0 -130 17.5 -249.5t56.5 -229.5t101 -212.5t150 -198.5l-95 -145q-206 214 -313 472t-107 563z" />
    <glyph glyph-name="parenright" unicode=")" horiz-adv-x="795" 
d="M680 625q0 -305 -107 -563t-313 -472l-95 145q84 96 145.5 198.5t101.5 212.5t59 229.5t19 249.5q0 126 -19 247.5t-59 232t-101.5 207t-145.5 173.5l75 155q99 -74 180.5 -180t139 -237t89 -282.5t31.5 -315.5z" />
    <glyph glyph-name="asterisk" unicode="*" horiz-adv-x="1028" 
d="M560 1600q-5 -50 -8.5 -91t-6 -76.5t-4 -67.5t-1.5 -65l55 36.5l56 40l62 46.5l72 57l70 -125l-83 -39l-69 -34l-61 -31.5l-57 -30.5q29 -15 59 -29l63 -28l72 -29.5l86 -33.5l-75 -125l-74.5 52l-63.5 42.5l-57 36.5l-55 34q1 -33 3.5 -65.5t5.5 -68t8 -76t13 -90.5
h-140l7.5 91t6 77t4 68t2.5 64q-27 -17 -54 -36l-56.5 -40.5l-62.5 -47l-72 -56.5l-70 125l82 38l70 34l60.5 31.5l57.5 31.5q-29 15 -59 29t-63.5 28l-72 29l-85.5 34l75 125l74.5 -52.5l63.5 -43l57 -36.5l55 -33q-1 33 -4 65t-7.5 67.5t-10.5 76.5l-13 91h145z" />
    <glyph glyph-name="plus" unicode="+" 
d="M155 810h370v370h150v-370h370v-150h-370v-375h-150v375h-370v150z" />
    <glyph glyph-name="comma" unicode="," horiz-adv-x="650" 
d="M185 150q5 24 18.5 42.5t32.5 31t41 19.5t43 7q30 0 56.5 -11.5t46 -33t31 -52t11.5 -68.5q0 -92 -43.5 -182t-131.5 -173l-100 40q22 22 45.5 54t43.5 69.5t33 78t13 78.5h-140v100z" />
    <glyph glyph-name="hyphen" unicode="-" horiz-adv-x="860" 
d="M80 705h700v-150h-700v150z" />
    <glyph glyph-name="period" unicode="." horiz-adv-x="640" 
d="M185 110q0 28 10.5 52.5t29 43t43 29t52.5 10.5t52.5 -10.5t43 -29t29 -43t10.5 -52.5t-10.5 -52.5t-29 -43t-43 -29t-52.5 -10.5t-52.5 10.5t-43 29t-29 43t-10.5 52.5z" />
    <glyph glyph-name="slash" unicode="/" horiz-adv-x="1000" 
d="M990 1600l-830 -1845h-150l830 1845h150z" />
    <glyph glyph-name="zero" unicode="0" 
d="M1110 740q0 -221 -40.5 -368t-110.5 -235.5t-165 -125t-204 -36.5q-108 0 -200 37t-158.5 123.5t-104 229.5t-37.5 355q0 211 40.5 357t111 236.5t165.5 131t203 40.5q109 0 200.5 -39.5t158 -128t104 -230.5t37.5 -347zM910 715q0 165 -20 279.5t-59 186t-97 103
t-134 31.5q-72 0 -129.5 -31.5t-97.5 -100.5t-61.5 -177t-21.5 -261q0 -165 20.5 -279.5t60 -185.5t97.5 -103t132 -32q72 0 129.5 32t97.5 100.5t61.5 176.5t21.5 261z" />
    <glyph glyph-name="one" unicode="1" 
d="M535 1260l-300 -172l-25 180l345 212h170v-1310h315v-170h-820v170h315v1090z" />
    <glyph glyph-name="two" unicode="2" 
d="M1080 0h-960v170q68 49 145.5 113.5t154 138.5t147 154.5t124.5 161.5t86.5 159.5t32.5 147.5q0 70 -24.5 119.5t-64.5 81t-91 45.5t-105 14q-46 0 -95 -13.5t-95.5 -38.5t-89 -59t-75.5 -74l-45 170q30 42 78 77.5t106.5 62t123 41t127.5 14.5q90 0 171.5 -29.5
t143.5 -84t98.5 -132t36.5 -174.5q0 -84 -30.5 -170.5t-81.5 -171t-116 -164.5t-134 -152t-136 -133.5l-122 -108.5h255q74 0 140 0.5t121.5 2t99.5 4.5t74 8v-180z" />
    <glyph glyph-name="three" unicode="3" 
d="M545 -25q-134 0 -245 45.5t-190 119.5l25 215q41 -46 88 -84t100.5 -65t113.5 -41.5t128 -14.5q57 0 116 17t106.5 51.5t77.5 86t30 120.5q0 61 -31.5 111.5t-87.5 87t-132 56.5t-164 20h-70v170h70q75 0 142 21t117.5 55t80.5 78t30 91q0 51 -23.5 87.5t-61 60.5
t-84 35.5t-91.5 11.5q-58 0 -108 -8t-95 -26t-87.5 -48t-84.5 -73l-35 170q30 34 73 63.5t94.5 51t110.5 33.5t122 12q93 0 176.5 -24t146.5 -68.5t100 -108.5t37 -144q0 -69 -30 -126.5t-76.5 -101.5t-103.5 -72.5t-110 -39.5q35 -6 76.5 -19t82.5 -34.5t79 -52.5t67.5 -73
t47 -95.5t17.5 -120.5q0 -88 -44.5 -166.5t-119.5 -137t-174 -92.5t-207 -34z" />
    <glyph glyph-name="four" unicode="4" 
d="M263 550h482v680zM935 395v-395h-190v395h-655v155l655 930h190v-930h190v-155h-190z" />
    <glyph glyph-name="five" unicode="5" 
d="M195 1460h805v-190q-57 12 -114.5 16t-120.5 4h-385v-370q23 3 66.5 6.5t98.5 3.5q108 0 201.5 -33.5t163.5 -94t110 -144t40 -183.5q0 -117 -40.5 -210t-113 -157.5t-172 -98.5t-216.5 -34q-58 0 -108.5 5.5t-97 18t-91 32.5t-91.5 49l30 210q50 -41 94.5 -67t88 -41
t89 -21t98.5 -6q75 0 137.5 21t107.5 61t70 98.5t25 134.5t-34 129t-86.5 86.5t-116 49t-123.5 15.5q-40 0 -76.5 -3.5t-74 -11t-78 -20t-86.5 -30.5v775z" />
    <glyph glyph-name="six" unicode="6" 
d="M645 720q-105 0 -190.5 -37.5t-147.5 -101.5q6 -86 28.5 -164t62.5 -137t98 -94.5t134 -35.5q66 0 119.5 22t91.5 60.5t58.5 90.5t20.5 112q0 66 -18 119t-52.5 89.5t-86 56.5t-118.5 20zM1115 470q0 -114 -37.5 -205.5t-105 -156t-162.5 -99t-210 -34.5
q-116 0 -207 48.5t-154 139.5t-96 222t-33 295q0 92 12.5 187.5t41.5 185t75.5 168.5t115 137.5t160 92.5t210.5 34q44 0 83 -4t76 -14.5t73.5 -28t75.5 -43.5l-44 -195q-65 64 -133.5 87t-140.5 23q-83 0 -154.5 -31t-125.5 -100t-87.5 -179t-40.5 -267q74 73 162 117.5
t196 44.5q104 0 187.5 -31.5t142 -87.5t89.5 -134.5t31 -171.5z" />
    <glyph glyph-name="seven" unicode="7" 
d="M275 0q41 141 83 265.5t86.5 236.5t92.5 214t100.5 199t110.5 190.5l122 189.5h-390q-141 0 -232 -4t-148 -16v185h990v-160q-222 -304 -377.5 -630t-252.5 -670h-185z" />
    <glyph glyph-name="eight" unicode="8" 
d="M910 425q0 63 -23.5 115t-65 90t-98 59t-123.5 21q-68 0 -124.5 -21t-98 -59t-64.5 -90t-23 -115q0 -66 23 -118t64.5 -88t98 -55t124.5 -19q67 0 123.5 19t98 55t65 88t23.5 118zM860 1105q0 55 -20.5 96.5t-56 69t-82.5 41t-101 13.5t-101 -13.5t-82.5 -41t-56 -69
t-20.5 -96.5q0 -59 20.5 -103.5t56 -75t82.5 -46t101 -15.5t101 15.5t82.5 46t56 75t20.5 103.5zM600 -25q-96 0 -187.5 29t-163.5 84.5t-115.5 135t-43.5 181.5q0 77 22.5 138t59 108t83.5 82.5t95 61.5q-29 16 -64 41t-65 62t-50.5 88t-20.5 119q0 92 39.5 163t104.5 119
t147.5 73t168.5 25t165.5 -25t140.5 -73t97.5 -119t36.5 -163q0 -68 -19.5 -118t-49 -86.5t-63.5 -62t-63 -43.5q41 -21 86 -55.5t82.5 -83t62 -111.5t24.5 -140q0 -102 -43.5 -181.5t-115 -135t-163.5 -84.5t-188 -29z" />
    <glyph glyph-name="nine" unicode="9" 
d="M583 760q50 0 97 11.5t89 32t79 49t66 62.5q-8 79 -29.5 151t-59.5 126t-94.5 86t-134.5 32q-66 0 -119.5 -20.5t-91.5 -56.5t-58.5 -86.5t-20.5 -110.5q0 -66 21 -117.5t58 -86.5t87.5 -53.5t110.5 -18.5zM112 1002q0 114 41 203.5t110.5 152t161 95t191.5 32.5
q116 0 208.5 -51.5t157 -144.5t98.5 -222.5t34 -286.5q0 -92 -12.5 -187.5t-41 -185t-75 -168.5t-114.5 -137.5t-159.5 -92.5t-210.5 -34q-44 0 -83 4t-76 14.5t-73.5 28t-75.5 43.5l44 195q32 -32 65.5 -53.5t68 -34t69.5 -17.5t71 -5q85 0 157 32t125.5 103t86 185
t37.5 278q-72 -72 -164 -117t-194 -45q-104 0 -187 33t-141 89.5t-88.5 132t-30.5 161.5z" />
    <glyph glyph-name="colon" unicode=":" horiz-adv-x="640" 
d="M185 110q0 28 10.5 52.5t29 43t43 29t52.5 10.5t52.5 -10.5t43 -29t29 -43t10.5 -52.5t-10.5 -52.5t-29 -43t-43 -29t-52.5 -10.5t-52.5 10.5t-43 29t-29 43t-10.5 52.5zM185 790q0 28 10.5 52.5t29 43t43 29t52.5 10.5t52.5 -10.5t43 -29t29 -43t10.5 -52.5t-10.5 -52.5
t-29 -43t-43 -29t-52.5 -10.5t-52.5 10.5t-43 29t-29 43t-10.5 52.5z" />
    <glyph glyph-name="semicolon" unicode=";" horiz-adv-x="650" 
d="M185 150q5 24 18.5 42.5t32.5 31t41 19.5t43 7q30 0 56.5 -11.5t46 -33t31 -52t11.5 -68.5q0 -92 -43.5 -182t-131.5 -173l-100 40q22 22 45.5 54t43.5 69.5t33 78t13 78.5h-140v100zM185 790q0 28 10.5 52.5t29 43t43 29t52.5 10.5t52.5 -10.5t43 -29t29 -43t10.5 -52.5
t-10.5 -52.5t-29 -43t-43 -29t-52.5 -10.5t-52.5 10.5t-43 29t-29 43t-10.5 52.5z" />
    <glyph glyph-name="less" unicode="&#x3c;" 
d="M1080 245l-980 400v170l980 400v-180l-790 -305l790 -305v-180z" />
    <glyph glyph-name="equal" unicode="=" 
d="M120 980h960v-150h-960v150zM120 630h960v-150h-960v150z" />
    <glyph glyph-name="greater" unicode="&#x3e;" 
d="M120 1215l980 -400v-170l-980 -400v180l790 305l-790 305v180z" />
    <glyph glyph-name="question" unicode="?" horiz-adv-x="1050" 
d="M315 110q0 28 10.5 52.5t29 43t43 29t52.5 10.5t52.5 -10.5t43 -29t29 -43t10.5 -52.5t-10.5 -52.5t-29 -43t-43 -29t-52.5 -10.5t-52.5 10.5t-43 29t-29 43t-10.5 52.5zM460 1540q89 0 158 -21.5t116 -60.5t71.5 -94.5t24.5 -123.5q0 -46 -13.5 -86.5t-36 -78t-52.5 -74
l-63 -74.5q-39 -45 -63.5 -87.5t-38 -96t-18.5 -126t-5 -177.5h-185q0 109 8 191t24 145.5t40.5 112.5t57.5 91l59 76.5t44 64t27.5 56t9.5 53.5q0 22 -9.5 46t-32 43.5t-59.5 32.5t-92 13q-60 0 -125 -27t-122 -87l-45 179q25 24 60.5 44t77.5 34.5t88.5 23t93.5 8.5z" />
    <glyph glyph-name="at" unicode="@" horiz-adv-x="1702" 
d="M848 903q-26 0 -52 -6t-51 -20t-49 -38t-45 -60q-22 -37 -35 -92.5t-13 -113.5q0 -66 12.5 -114t33 -79t46.5 -45.5t53 -14.5q34 0 73 21t77.5 55.5t71.5 79.5t55 94v301q-25 12 -73 22t-104 10zM1607 698q0 -125 -31.5 -221t-82.5 -162t-115 -100t-130 -34
q-46 0 -78 15.5t-55.5 42.5t-40.5 63.5t-33 77.5q-31 -40 -66.5 -75.5t-74 -62.5t-80 -43t-85.5 -16q-50 0 -100.5 21.5t-91 65t-65.5 109t-25 154.5q0 93 21 168t56 135q62 102 144.5 153t205.5 51q30 0 67.5 -4.5t77 -12.5t78 -19t71.5 -24v-350q0 -98 8 -158.5t22 -95
t33 -46.5t41 -12q25 0 57.5 21.5t60.5 65t47.5 109.5t19.5 155q0 124 -37.5 233.5t-112.5 191t-186.5 128.5t-258.5 47q-123 0 -236.5 -48t-201 -135.5t-139.5 -210.5t-52 -272q0 -162 49.5 -291t135 -219.5t200 -139t244.5 -48.5q70 0 140.5 20.5t136.5 65.5l105 -109
q-38 -26 -85 -47.5t-98.5 -36.5t-105 -23t-104.5 -8q-147 0 -284 52t-243.5 154t-170.5 252.5t-64 348.5q0 138 29.5 253t82 207.5t125.5 162.5t160 116.5t185.5 70t202.5 23.5q160 0 293.5 -50.5t230 -143.5t150 -224t53.5 -291z" />
    <glyph glyph-name="A" unicode="A" horiz-adv-x="1395" 
d="M433 540h507l-255 725zM994 385h-615l-134 -385h-205l27 63l30.5 74.5l36.5 94.5l46 123l400 1105h215l400 -1105l45 -123l37 -94.5l31 -74.5l27 -63h-205z" />
    <glyph glyph-name="B" unicode="B" horiz-adv-x="1285" 
d="M1140 420q0 -91 -29.5 -169.5t-94 -136.5t-166 -91t-245.5 -33q-77 0 -155.5 1.5t-143.5 3.5q-76 2 -146 5q6 30 9 77t4.5 106t1.5 128v832q0 70 -1.5 130.5t-4.5 108.5t-9 78q33 2 82 4t107.5 3.5t123 2t127.5 0.5q111 0 198 -18t146 -59t90 -108t31 -165
q0 -63 -19 -113.5t-52.5 -90t-78 -68.5t-95.5 -48q58 -15 115 -41.5t102.5 -70.5t74 -109.5t28.5 -158.5zM365 155q14 -1 38 -2t56 -1.5t70.5 -1t80.5 -0.5q64 0 124.5 13t107 44t75 83t28.5 130q0 139 -84.5 209.5t-260.5 70.5h-235v-545zM365 855h195q80 0 138.5 17
t96.5 48t56.5 74.5t18.5 95.5q0 56 -15.5 98t-49 70.5t-87 42.5t-128.5 14q-29 0 -62 -0.5t-64 -1.5t-57 -1.5t-42 -1.5v-455z" />
    <glyph glyph-name="C" unicode="C" horiz-adv-x="1355" 
d="M1230 140q-44 -41 -103 -71.5t-123.5 -51.5t-130.5 -31.5t-123 -10.5q-152 0 -273 51.5t-206 147t-130.5 231.5t-45.5 305q0 193 56 338.5t149.5 242.5t215.5 145.5t254 48.5q54 0 110 -7t112.5 -23t112.5 -43t110 -67l-60 -180q-47 42 -96 71t-98 46.5t-97.5 25
t-93.5 7.5q-105 0 -193 -36.5t-151.5 -109.5t-99.5 -181.5t-36 -252.5q0 -116 31 -222t91 -186.5t147.5 -128.5t200.5 -48q57 0 115.5 13t114.5 37.5t107 58.5t93 76z" />
    <glyph glyph-name="D" unicode="D" horiz-adv-x="1435" 
d="M175 455v688q0 70 -1.5 130.5t-4.5 108.5t-9 78l53.5 2.5t72 2.5t83 2t87 1.5l84.5 1t75 0.5q40 0 91.5 -4.5t108 -17.5t116 -36.5t115 -61.5t104.5 -92t85.5 -128t58 -170.5t21.5 -219.5q0 -149 -33 -262.5t-88.5 -196.5t-128.5 -139t-153 -90t-162 -48t-155 -14
q-24 0 -55.5 0.5t-66.5 1t-72 1.5l-72 2q-82 2 -169 5q6 30 8.5 77t4 106t2 128.5t0.5 143.5zM365 165q35 -3 91.5 -6.5t128.5 -3.5q67 0 132.5 13t125 41.5t110.5 73.5t88 107.5t58 144.5t21 185q0 168 -42.5 281t-114.5 181.5t-168.5 98t-204.5 29.5q-25 0 -56 -0.5
t-62.5 -1.5t-59.5 -1.5t-47 -1.5v-1140z" />
    <glyph glyph-name="E" unicode="E" horiz-adv-x="1160" 
d="M935 845v-160h-570v-520h264q149 0 250 2t161 13v-180h-880q11 60 13 173.5t2 261.5v590q0 148 -2 261.5t-13 173.5h850v-165h-645v-450h570z" />
    <glyph glyph-name="F" unicode="F" horiz-adv-x="1150" 
d="M945 835v-160h-580v-240q0 -149 2 -262.5t13 -172.5h-220q11 60 13 173.5t2 261.5v725q0 67 -1.5 123.5t-4.5 101.5t-9 75h870v-165h-665v-460h580z" />
    <glyph glyph-name="G" unicode="G" horiz-adv-x="1420" 
d="M1275 155q-77 -54 -145 -89t-132 -55t-126 -28t-127 -8q-142 0 -261 49t-205.5 144t-135 233.5t-48.5 318.5t53.5 322t146.5 240.5t218.5 150.5t269.5 52q61 0 118.5 -5.5t115 -20.5t117.5 -42.5t126 -71.5l-65 -180q-56 45 -108.5 74.5t-103.5 46t-100.5 23t-99.5 6.5
q-114 0 -205.5 -40t-155.5 -114t-98 -179.5t-34 -236.5q0 -138 32.5 -248t93.5 -187.5t147.5 -118.5t193.5 -41q45 0 84.5 4.5t78.5 15.5t79 29t86 46v335h-350v165h540v-590z" />
    <glyph glyph-name="H" unicode="H" horiz-adv-x="1475" 
d="M1085 0v675h-720v-675h-205q11 60 13 173.5t2 261.5v590q0 148 -2 261.5t-13 173.5h205v-625h720v625h205q-11 -60 -13 -173.5t-2 -261.5v-590q0 -148 2 -261.5t13 -173.5h-205z" />
    <glyph glyph-name="I" unicode="I" horiz-adv-x="975" 
d="M815 1460v-145h-245v-1170h245v-145h-675v145h240v1170h-240v145h675z" />
    <glyph glyph-name="J" unicode="J" horiz-adv-x="965" 
d="M345 -25q-36 0 -78.5 6.5t-85.5 20.5t-81 36t-65 52l45 185q25 -29 56 -51.5t64.5 -37.5t69 -23t70.5 -8q55 0 101 19.5t79 60t51.5 102.5t18.5 148v495q0 73 -0.5 142.5t-2 131t-4.5 114t-8 92.5h205v-925q0 -156 -32 -263t-89.5 -173t-137.5 -95t-176 -29z" />
    <glyph glyph-name="K" unicode="K" horiz-adv-x="1310" 
d="M365 787l560 673h240l-606 -687l671 -773h-245l-620 717v-717h-205q11 60 13 173.5t2 261.5v590q0 148 -2 261.5t-13 173.5h205v-673z" />
    <glyph glyph-name="L" unicode="L" horiz-adv-x="1080" 
d="M589 165q74 0 140 0.5t122 2t100 4.5t74 8v-180h-865q11 60 13 173.5t2 261.5v590q0 148 -2 261.5t-13 173.5h205v-1295h224z" />
    <glyph glyph-name="M" unicode="M" horiz-adv-x="1795" 
d="M455 1460l430 -1255l435 1255h220q12 -357 24 -656q3 -85 7 -170.5l8 -167t8 -155l7.5 -134.5t7.5 -106.5t8 -70.5h-185l-28 1198l-412 -1198h-195l-414 1195l-31 -1195h-185q3 25 7 70.5t7.5 106.5l7.5 134.5t8 155t7.5 167t7.5 170.5q12 299 25 656h225z" />
    <glyph glyph-name="N" unicode="N" horiz-adv-x="1500" 
d="M340 1152v-1152h-180q11 60 13 173.5t2 261.5v590q0 148 -2 261.5t-13 173.5h180l795 -1157v1157h180q-5 -30 -8 -74t-4.5 -99.5t-2 -121.5t-0.5 -140v-1025h-165z" />
    <glyph glyph-name="O" unicode="O" horiz-adv-x="1460" 
d="M1340 740q0 -180 -53.5 -322t-142 -240.5t-201.5 -150.5t-233 -52q-121 0 -232 49t-196 144t-136 233.5t-51 318.5q0 120 24.5 223t68 188t103.5 151t130.5 111t149 68.5t159.5 23.5q119 0 229.5 -49t195 -144t135 -233.5t50.5 -318.5zM1145 715q0 138 -30.5 248.5
t-86.5 187.5t-134.5 118t-173.5 41t-174 -39.5t-136 -113t-88.5 -178t-31.5 -234.5q0 -137 30.5 -247t87 -187.5t135.5 -119t177 -41.5q92 0 170 38.5t134.5 111t88.5 177.5t32 238z" />
    <glyph glyph-name="P" unicode="P" horiz-adv-x="1195" 
d="M365 435q0 -149 2 -262.5t13 -172.5h-220q11 60 13 173.5t2 261.5v708q0 70 -1.5 130.5t-4.5 108.5t-9 78q63 2 133 5q60 2 135.5 3.5t156.5 1.5q121 0 219 -27.5t167 -83t106.5 -138t37.5 -191.5q0 -110 -36.5 -198t-105 -149.5t-167 -94.5t-221.5 -33q-55 0 -113 2.5
t-107 7.5v-130zM365 720q48 -6 98 -8t107 -2q105 0 173.5 24t109 65.5t56.5 96t16 114.5t-17.5 114.5t-58 95.5t-107.5 65.5t-167 24.5q-35 0 -63 -0.5t-52 -1t-47 -1.5l-48 -2v-585z" />
    <glyph glyph-name="Q" unicode="Q" horiz-adv-x="1475" 
d="M1145 715q0 138 -30.5 248.5t-86.5 187.5t-134.5 118t-173.5 41t-174 -39.5t-136 -113t-88.5 -178t-31.5 -234.5q0 -137 30.5 -247t87 -187.5t135.5 -119t177 -41.5q92 0 170 38.5t134.5 111t88.5 177.5t32 238zM1340 740q0 -98 -16 -191t-48 -175.5t-81 -151
t-115 -117.5q94 -58 184 -97.5t191 -52.5l-23.5 -38t-32.5 -48t-38.5 -41.5t-40.5 -17.5q-21 0 -57.5 14t-80 35t-90.5 46l-89.5 46t-76.5 35t-51 14q-43 -14 -83 -19.5t-87 -5.5q-121 0 -231.5 49t-194.5 144t-134 233.5t-50 318.5q0 120 24.5 223t68 188t103.5 151
t130.5 111t149 68.5t159.5 23.5q121 0 231.5 -49t194.5 -144t134 -233.5t50 -318.5z" />
    <glyph glyph-name="R" unicode="R" horiz-adv-x="1305" 
d="M365 435q0 -74 0.5 -140t2 -122t4.5 -100t8 -73h-220q11 60 13 173.5t2 261.5v708q0 70 -1.5 130.5t-4.5 108.5t-9 78q52 2 115 5q54 2 128 3.5t162 1.5q117 0 213.5 -23.5t165.5 -73t107.5 -127.5t38.5 -186q0 -91 -28.5 -161t-75 -120.5t-105.5 -83.5t-120 -50
l73.5 -100.5l93 -126l100 -135l94.5 -126.5l77 -100t46 -57h-255l-422 625h-203v-190zM365 780h190q170 0 257.5 70t87.5 195q0 64 -19.5 113.5t-61 83t-107 51t-157.5 17.5q-53 0 -101.5 -1.5t-88.5 -3.5v-525z" />
    <glyph glyph-name="S" unicode="S" horiz-adv-x="1175" 
d="M960 1200q-54 30 -99.5 50.5t-88.5 34t-86 19.5t-91 6q-60 0 -109.5 -18t-85.5 -48t-55.5 -69t-19.5 -80t11.5 -74.5t46.5 -63t100 -58t172 -59.5q99 -29 175.5 -67.5t128.5 -88.5t79 -114t27 -145q0 -101 -39.5 -183.5t-108 -142t-159.5 -92t-193 -32.5q-72 0 -140.5 10
t-129 28t-111.5 42.5t-89 54.5l45 205q100 -87 206.5 -126t218.5 -39q60 0 116 17t99 49.5t69 80t26 108.5q0 39 -12.5 74.5t-50.5 69.5t-109 67.5t-188 68.5t-191 77t-116 91.5t-57.5 106t-15.5 120.5t26.5 135t83.5 131t146 99.5t214 39.5q58 0 108.5 -5t98 -16t93.5 -28
t95 -41z" />
    <glyph glyph-name="T" unicode="T" horiz-adv-x="1265" 
d="M1200 1460v-185q-60 13 -118.5 16.5t-126.5 3.5h-240v-860q0 -148 3.5 -261.5t16.5 -173.5h-230q13 60 16.5 173.5t3.5 261.5v860h-235q-67 0 -126 -3.5t-119 -16.5v185h1155z" />
    <glyph glyph-name="U" unicode="U" horiz-adv-x="1440" 
d="M1255 1460q-10 -60 -12.5 -169.5t-2.5 -265.5v-510q0 -122 -32 -221.5t-97.5 -170.5t-165.5 -109.5t-235 -38.5q-137 0 -237.5 38.5t-166.5 109.5t-98.5 170.5t-32.5 221.5v510q0 148 -2.5 261.5t-12.5 173.5h205v-900q0 -98 17 -176.5t57 -134t106 -85t165 -29.5
q97 0 162 29.5t104.5 85t56.5 134t17 176.5v900h205z" />
    <glyph glyph-name="V" unicode="V" horiz-adv-x="1365" 
d="M1095 1460h215l-28 -64.5l-30.5 -76l-36.5 -97l-45 -127.5l-385 -1095h-225l-390 1095l-45.5 126.5l-35.5 97.5l-29 76.5l-25 64.5h215l422 -1265z" />
    <glyph glyph-name="W" unicode="W" horiz-adv-x="2080" 
d="M1484 186l311 1274h220l-24 -64.5t-25.5 -76l-29.5 -97l-36 -127.5l-305 -1095h-225l-343 1176l-342 -1176h-225l-305 1095l-36 126.5l-29.5 98t-25.5 77t-24 63.5h220l316 -1274l359 1274h185z" />
    <glyph glyph-name="X" unicode="X" horiz-adv-x="1325" 
d="M642 614l-372 -614h-230l44 60l44 64l56.5 87l80.5 129l272 441l-207 329l-82.5 129.5l-61.5 91l-49.5 68l-46.5 61.5h235l331 -526l319 526h235l-45.5 -58.5t-49.5 -69l-61.5 -93l-81.5 -129.5l-211 -343l272 -431l82.5 -129l58 -86.5l44 -62.5l42.5 -58h-230z" />
    <glyph glyph-name="Y" unicode="Y" horiz-adv-x="1320" 
d="M265 1460l395 -661l375 661h230l-78 -114.5l-62.5 -97.5l-55 -90l-54.5 -93l-270 -462v-168q0 -148 2 -261.5t13 -173.5h-220q11 60 13 173.5t2 261.5v176l-265 454l-56.5 96l-57.5 95t-64.5 98l-76.5 106h230z" />
    <glyph glyph-name="Z" unicode="Z" horiz-adv-x="1230" 
d="M1105 1330l-795 -1165h390q147 0 261 4.5t174 15.5v-185h-1060v125l795 1170h-340q-74 0 -133.5 -0.5t-107.5 -3t-86 -6.5t-68 -10v185h970v-130z" />
    <glyph glyph-name="bracketleft" unicode="[" horiz-adv-x="790" 
d="M200 -410v2010h440v-150h-255v-1710h255v-150h-440z" />
    <glyph glyph-name="backslash" unicode="\" horiz-adv-x="1025" 
d="M360 1600l470 -1685l-145 -30l-475 1685z" />
    <glyph glyph-name="bracketright" unicode="]" horiz-adv-x="790" 
d="M150 -410v150h255v1710h-255v150h440v-2010h-440z" />
    <glyph glyph-name="asciicircum" unicode="^" horiz-adv-x="1120" 
d="M95 850l380 750h170l380 -750h-180l-285 580l-285 -580h-180z" />
    <glyph glyph-name="underscore" unicode="_" horiz-adv-x="1274" 
d="M0 -170h1274v-165h-1274v165z" />
    <glyph glyph-name="grave" unicode="`" horiz-adv-x="580" 
d="M230 1600l350 -430h-160l-420 430h230z" />
    <glyph glyph-name="a.SngStory" unicode="a" horiz-adv-x="1150" 
d="M595 870q-32 0 -64.5 -7.5t-64 -25.5t-61 -47.5t-55.5 -74.5q-27 -46 -43.5 -114.5t-16.5 -140.5q0 -83 15.5 -142.5t41 -98t58 -56.5t65.5 -18q42 0 91.5 26t96.5 69t88.5 99t68.5 116v375q-15 7 -38.5 14t-52 13t-62 9.5t-67.5 3.5zM1000 530q0 -189 21 -317.5
t54 -212.5h-175l-14 36t-18.5 52.5t-18 63.5t-14.5 68q-39 -50 -82.5 -94t-91.5 -78t-100 -53.5t-106 -19.5q-63 0 -125.5 27t-112.5 81t-81 135.5t-31 191.5q0 115 25.5 208.5t69.5 166.5q39 64 83 112t96.5 79.5t115.5 47.5t140 16q38 0 84.5 -5.5t95 -15.5t96.5 -24
t89 -30v-435z" />
    <glyph glyph-name="b" unicode="b" horiz-adv-x="1155" 
d="M145 65v1183q0 64 -1.5 128.5t-4.5 123t-9 100.5h200v-775q35 46 76 85t88.5 68t102.5 45.5t118 16.5q76 0 139 -37t109 -103.5t71.5 -158.5t25.5 -201q0 -129 -34.5 -233t-97.5 -178t-152.5 -114t-200.5 -40q-61 0 -118 8.5t-110.5 22t-103.5 29zM575 130q66 0 122 27
t96.5 76t63.5 118.5t23 153.5q0 83 -15 150t-43.5 113.5t-70.5 71.5t-96 25q-47 0 -94 -20.5t-89.5 -57.5t-79.5 -88.5t-62 -113.5v-400q37 -15 67.5 -25.5t59.5 -17t57.5 -9.5t60.5 -3z" />
    <glyph glyph-name="c" unicode="c" horiz-adv-x="1020" 
d="M615 1040q100 0 172.5 -23.5t127.5 -61.5l-35 -180q-68 50 -135 75t-145 25q-67 0 -124.5 -25.5t-100 -73.5t-66.5 -118t-24 -158q0 -81 22 -147t63 -113.5t99 -73.5t131 -26q91 0 165 31t140 89l20 -175q-38 -29 -75.5 -49.5t-78.5 -34t-88 -20t-103 -6.5
q-101 0 -189 35.5t-154 102.5t-104 162t-38 215q0 113 36.5 213t104 175t164 118.5t215.5 43.5z" />
    <glyph glyph-name="d" unicode="d" horiz-adv-x="1190" 
d="M580 870q-57 0 -109 -26t-92.5 -75t-64.5 -119.5t-24 -159.5q0 -175 59.5 -265t190.5 -90q46 0 91.5 23t86 60t73.5 84.5t54 97.5v395q-37 20 -69 34t-63 23t-63 13.5t-70 4.5zM1030 530q0 -189 21.5 -317.5t53.5 -212.5h-180q-11 26 -26.5 77.5t-28.5 107.5
q-72 -102 -163 -156t-202 -54q-92 0 -165.5 34.5t-126 98t-80.5 153t-28 199.5q0 133 36.5 240t100.5 182.5t150.5 116.5t187.5 41q32 0 66.5 -7t69 -19t67.5 -27.5t62 -31.5v280q0 121 -5.5 211.5t-19.5 153.5h210v-1070z" />
    <glyph glyph-name="e" unicode="e" horiz-adv-x="1095" 
d="M575 1040q82 0 145 -19.5t109 -54t77 -80.5t49.5 -99t26.5 -110.5t8 -113.5v-39q0 -25 -1 -39h-709q3 -88 27.5 -153t67 -107.5t100 -63.5t125.5 -21q97 0 190 22t185 78l20 -165q-53 -27 -104 -46t-102 -31t-103.5 -17.5t-110.5 -5.5q-96 0 -183 33.5t-153 99
t-105 162.5t-39 225q0 124 33.5 224.5t95.5 172t151 110t200 38.5zM560 890q-110 0 -180 -64.5t-92 -200.5h522q0 64 -18.5 113.5t-52 83.5t-79.5 51t-100 17z" />
    <glyph glyph-name="f" unicode="f" horiz-adv-x="750" 
d="M40 995h200v175q0 225 91.5 337.5t253.5 112.5q59 0 116 -18.5t104 -51.5l-46 -150q-38 28 -84 44t-90 16q-39 0 -69 -13.5t-50 -43.5t-30.5 -77.5t-10.5 -115.5v-215h270v-145h-270v-356q0 -73 1.5 -144.5t5 -136t9.5 -119.5t14 -94h-215v850h-200v145z" />
    <glyph glyph-name="g.SngBowl" unicode="g" horiz-adv-x="1125" 
d="M595 870q-82 0 -140 -33.5t-94.5 -88t-53.5 -123.5t-17 -140q0 -93 14.5 -154.5t40 -98t60 -52t75.5 -15.5q38 0 81 15.5t86.5 44.5t84 72t73.5 98v435q-24 9 -51 16.5t-55 12.5t-54.5 8t-49.5 3zM990 25q0 -132 -38.5 -226t-101 -153.5t-142.5 -87.5t-163 -28
q-96 0 -190.5 33t-174.5 87l65 155q71 -51 143 -83t147 -32q39 0 86 14t88 48.5t68.5 92.5t27.5 145v185q-39 -49 -82.5 -83.5t-88 -56t-89 -31t-85.5 -9.5q-69 0 -133 24t-113.5 76.5t-79 136.5t-29.5 203q0 115 30 224t93 193.5t161.5 136t235.5 51.5q45 0 92.5 -6.5
t94.5 -17.5t92 -24.5l86 -26.5v-940z" />
    <glyph glyph-name="h" unicode="h" horiz-adv-x="1175" 
d="M710 1040q160 0 245 -104.5t85 -310.5v-625h-185v550q0 94 -12.5 155t-37.5 96.5t-62.5 49.5t-87.5 14q-54 0 -105.5 -25.5t-94.5 -66t-76 -91.5t-49 -102v-580h-185v1130q0 162 -2 283.5t-13 186.5h200v-770q74 105 174 157.5t206 52.5z" />
    <glyph glyph-name="i" unicode="i" horiz-adv-x="565" 
d="M155 1345q0 28 9 52.5t25.5 43t39.5 29t51 10.5t52 -10.5t41 -29t27 -43t10 -52.5t-10 -52.5t-27 -43t-41 -29t-52 -10.5t-51 10.5t-39.5 29t-25.5 43t-9 52.5zM375 475q0 -48 1.5 -113.5t4 -132.5t6 -128t8.5 -101h-205v530q0 73 -0.5 144t-2 134.5t-4.5 118t-8 93.5
h200v-545z" />
    <glyph glyph-name="j" unicode="j" horiz-adv-x="595" 
d="M185 1345q0 28 9 52.5t25.5 43t39.5 29t51 10.5t52 -10.5t41 -29t27 -43t10 -52.5t-10 -52.5t-27 -43t-41 -29t-52 -10.5t-51 10.5t-39.5 29t-25.5 43t-9 52.5zM405 25q0 -140 -26.5 -235t-75.5 -152.5t-118.5 -82.5t-154.5 -25q-21 0 -49.5 4.5t-59 12.5t-60 20.5
t-51.5 27.5l35 165q16 -12 41 -23t52 -19.5t54 -13t48 -4.5q40 0 73 15.5t57 48.5t37 85t13 126v555q0 73 -0.5 144t-2 134.5t-4.5 118t-8 93.5h200v-995z" />
    <glyph glyph-name="k" unicode="k" horiz-adv-x="1035" 
d="M145 0v1130q0 162 -2 283.5t-13 186.5h200v-999l405 419h250l-495 -447l525 -573h-245l-440 520v-520h-185z" />
    <glyph glyph-name="l" unicode="l" horiz-adv-x="565" 
d="M375 475q0 -48 1.5 -113t4 -132t6 -128t8.5 -102h-205v1130q0 146 -5 264.5t-15 205.5h205v-1125z" />
    <glyph glyph-name="m" unicode="m" horiz-adv-x="1685" 
d="M945 0h-185v570q0 93 -7 150.5t-23.5 90t-44.5 43.5t-70 11q-37 0 -74 -15t-70.5 -42.5t-62 -65t-48.5 -82.5v-660h-185v615q0 148 -17 250.5t-33 154.5h180q11 -32 19 -75.5t13 -79.5q46 53 88 87t83.5 53.5t82.5 27t84 7.5q49 0 89 -14t70.5 -37t52.5 -53.5t34 -63.5
q47 51 91 83.5t86 51t82.5 26t79.5 7.5q76 0 128 -24.5t83.5 -72.5t45 -119t13.5 -164v-660h-185v550q0 97 -7 158t-23.5 96t-44.5 48t-70 13q-37 0 -73 -14.5t-69.5 -41t-62 -64.5t-50.5 -85v-660z" />
    <glyph glyph-name="n" unicode="n" horiz-adv-x="1185" 
d="M719 1040q160 0 245 -104.5t85 -310.5v-625h-185v550q0 94 -12.5 155t-37 96.5t-62 49.5t-88.5 14q-54 0 -105.5 -25.5t-94.5 -66t-76 -91.5t-49 -102v-580h-185v615q0 148 -16.5 250.5t-33.5 154.5h180q6 -16 12 -41.5t11 -53.5t9 -55l8 -45q95 114 192 164.5t203 50.5z
" />
    <glyph glyph-name="o" unicode="o" horiz-adv-x="1140" 
d="M280 505q0 -87 21 -156t59.5 -116.5t91.5 -72.5t118 -25q60 0 113 25t92.5 72.5t62 116.5t22.5 156q0 88 -21 157.5t-59.5 118t-92 74t-117.5 25.5q-61 0 -114 -25.5t-92 -74t-61.5 -118t-22.5 -157.5zM95 505q0 129 39 228.5t105 168t154 103.5t187 35q103 0 188.5 -35
t147 -103.5t95.5 -168t34 -228.5t-39 -228t-105 -166t-154 -101.5t-187 -34.5q-103 0 -188.5 34.5t-147 101.5t-95.5 166t-34 228z" />
    <glyph glyph-name="p" unicode="p" horiz-adv-x="1170" 
d="M620 140q53 0 101.5 25t86 72.5t60 115t22.5 152.5q0 83 -15.5 150.5t-45.5 115t-72.5 73.5t-96.5 26q-43 0 -88 -19t-87.5 -56t-79.5 -92.5t-65 -127.5v-315q51 -36 88.5 -59.5t68.5 -37t59.5 -18.5t63.5 -5zM155 485q0 93 -1.5 172.5t-6.5 146t-15 120.5t-27 96h180
q11 -26 22 -73.5t18 -116.5q35 46 76.5 85t88 66.5t98 43t107.5 15.5q85 0 155.5 -37.5t120 -105t77 -160t27.5 -202.5q0 -128 -36 -231.5t-97.5 -176.5t-144.5 -112.5t-177 -39.5q-40 0 -75.5 8t-69 22t-66.5 34.5t-69 45.5v-235q0 -60 1.5 -108.5t4.5 -89.5t8 -75.5
t11 -66.5h-210v975z" />
    <glyph glyph-name="q" unicode="q" horiz-adv-x="1130" 
d="M595 870q-82 0 -140 -33.5t-94.5 -88t-53.5 -123.5t-17 -140q0 -93 20.5 -158t53.5 -105.5t74 -58.5t82 -18q69 0 141 55t134 165v465q-45 17 -99.5 28.5t-100.5 11.5zM980 -150q0 -60 1.5 -108.5t4.5 -89.5t8 -75.5t11 -66.5h-210v630q-78 -91 -149 -128t-141 -37
q-69 0 -140 27t-129 83.5t-94.5 143.5t-36.5 206q0 115 30 224t93 193.5t161.5 136t235.5 51.5q45 0 91 -6.5t91 -17.5t88.5 -24.5l84.5 -26.5v-1115z" />
    <glyph glyph-name="r" unicode="r" horiz-adv-x="890" 
d="M155 0v615q0 148 -16.5 250.5t-33.5 154.5h180q12 -28 21.5 -70.5t16 -94.5t9.5 -111t3 -119v-65q51 141 100 233.5t97.5 147.5t97.5 77t100 22q38 0 70 -7t65 -23l-30 -185q-29 12 -51 16t-54 4q-41 0 -86 -34.5t-88.5 -91.5t-82.5 -129t-68.5 -147.5t-47 -147.5
t-17.5 -128q0 -25 0.5 -46t3 -40.5t6.5 -39t10 -41.5h-205z" />
    <glyph glyph-name="s" unicode="s" horiz-adv-x="965" 
d="M515 1040q54 0 101.5 -7t87 -18.5t72.5 -26t59 -28.5l-35 -175q-25 15 -57 31.5t-69.5 30.5t-80 23.5t-88.5 9.5q-55 0 -92.5 -12t-60 -30.5t-32.5 -42t-10 -45.5q0 -26 8 -46t33.5 -37t72.5 -33t126 -34q68 -15 128 -38.5t105 -59.5t71 -86.5t26 -120.5q0 -68 -30 -126
t-82 -101.5t-122 -68t-151 -24.5q-61 0 -117.5 9t-106 25t-90.5 37t-71 44l50 180q34 -30 76.5 -55t87.5 -43t90.5 -27.5t85.5 -9.5q44 0 80.5 11.5t63 30t41.5 43t15 50.5q0 28 -11.5 52.5t-42 47t-84 43.5t-137.5 42q-91 22 -148.5 52t-90 66t-44.5 78t-12 89q0 23 7.5 54
t25 64.5t46 66t71.5 58t101 41.5t134 16z" />
    <glyph glyph-name="t" unicode="t" horiz-adv-x="835" 
d="M30 995h200v325h185v-325h325v-145h-325v-460q0 -77 7.5 -126t23 -76.5t39.5 -37.5t58 -10q43 0 97 19t120 56v-160q-69 -45 -132 -62.5t-116 -17.5q-59 0 -110 13.5t-89.5 47.5t-60.5 90.5t-22 143.5v580h-200v145z" />
    <glyph glyph-name="u" unicode="u" horiz-adv-x="1185" 
d="M475 -25q-320 0 -320 430v295q0 48 -0.5 87t-2.5 75.5t-6 74.5t-11 83h205v-555q0 -85 8.5 -146.5t28.5 -101t52.5 -58.5t80.5 -19q44 0 94 26.5t95.5 67.5t83 90.5t57.5 95.5v280q0 49 -0.5 88.5t-2.5 75.5t-6 73t-11 83h205v-570q0 -146 16.5 -255.5t48.5 -194.5h-170
q-7 17 -15 40t-15.5 49t-14 54.5t-10.5 56.5q-91 -111 -187.5 -168t-202.5 -57z" />
    <glyph glyph-name="v" unicode="v" horiz-adv-x="1070" 
d="M1050 1020l-43.5 -93l-43 -98l-38.5 -91l-30 -73l-26.5 -65.5l-37 -93l-43.5 -109l-45 -113.5l-113 -284h-190l-109 274l-45 112l-43.5 109.5l-38 96.5l-29.5 73l-30 73.5l-39 91.5l-43 97.5l-43 92.5h210l305 -820l305 820h210z" />
    <glyph glyph-name="w" unicode="w" horiz-adv-x="1550" 
d="M850 1020l260 -805l210 805h185l-31.5 -102.5l-25.5 -87l-23.5 -81l-24.5 -84.5l-185 -665h-190l-250 785l-250 -785h-190l-185 665l-22.5 79l-24 81l-26.5 90l-32 105h185l210 -805l260 805h150z" />
    <glyph glyph-name="x" unicode="x" horiz-adv-x="1085" 
d="M536 376l-261 -376h-225l69 90.5l49.5 65.5l40 55l41.5 59l178 258l-158 222l-46 63l-44 57l-51.5 64.5l-68.5 85.5h230l260 -361l245 361h225l-66 -85.5l-49 -65l-41.5 -57.5l-43.5 -62l-163 -240l173 -240l47 -64.5l42 -54.5l48.5 -63l67.5 -88h-230z" />
    <glyph glyph-name="y" unicode="y" horiz-adv-x="1060" 
d="M655 0q-52 -144 -102 -235t-101.5 -143.5t-107 -72t-119.5 -19.5q-69 0 -129.5 22t-115.5 63l60 160q16 -13 37.5 -26.5t46 -24t50.5 -17.5t51 -7q30 0 59 10.5t58.5 40t60.5 83t66 140.5l-279 691l-65 153t-95 202h200l323 -817l41.5 117.5l46.5 131l48 136l46 131.5
l105 301h200l-47 -107.5l-39 -93l-32.5 -81.5t-26.5 -73z" />
    <glyph glyph-name="z" unicode="z" horiz-adv-x="1040" 
d="M930 1020v-95l-595 -775h430q44 0 89.5 2t90.5 13v-165h-840v110l575 760h-390q-45 0 -86 -2t-69 -13v165h795z" />
    <glyph glyph-name="braceleft" unicode="{" horiz-adv-x="1000" 
d="M210 615q0 12 27.5 34t62.5 47l67.5 47.5t42.5 36.5q6 8 9.5 60t7 127t8 162.5t12 166.5t19 139t29.5 80q15 17 50 35t78.5 34.5t90.5 31t86 24.5l40 -140l-58 -21.5t-64.5 -26.5t-56 -28t-31.5 -24q-6 -9 -10.5 -40t-7 -76.5t-4.5 -101t-3 -113l-2 -113t-3 -100
t-4 -74.5t-6 -37q-7 -14 -32.5 -32.5l-53 -37.5l-50.5 -35.5t-24 -24.5q1 -8 24 -24.5l50.5 -35.5l53 -38t32.5 -32q4 -7 6 -37t4 -74.5t3 -100l2 -113t3 -113t4.5 -101t7 -76.5t10.5 -40q7 -11 31.5 -24.5t56 -27.5t64.5 -26.5l58 -21.5l-40 -140q-39 10 -86 24.5t-90.5 31
t-78.5 34.5t-50 35q-18 20 -29.5 80t-19 139t-12 166.5t-8 162.5t-7 127t-9.5 60q-7 9 -24.5 22.5t-39.5 29l-46 32.5l-44 32t-33 28t-13 21z" />
    <glyph glyph-name="bar" unicode="|" horiz-adv-x="690" 
d="M420 1600v-1990h-150v1990h150z" />
    <glyph glyph-name="braceright" unicode="}" horiz-adv-x="1000" 
d="M790 615q0 -8 -13 -21t-33 -28l-44 -32l-46 -32.5t-39.5 -29t-24.5 -22.5q-6 -8 -9.5 -60t-7 -127t-8 -162.5t-12 -166.5t-19 -139t-29.5 -80q-15 -17 -50 -35t-78.5 -34.5t-90.5 -31t-86 -24.5l-40 140l58 21.5t64.5 26.5t55.5 27.5t32 24.5q6 9 10.5 40t7 76.5t4.5 101
t3 113l2 113t3 100t4 74.5t6 37q5 9 18.5 20.5t30.5 24t36.5 25.5l35.5 24.5t27 20.5t12 15q-1 5 -12 14.5t-27 21l-35.5 24.5t-36.5 25.5t-30.5 24t-18.5 20.5q-4 7 -6 37t-4 74.5t-3 100l-2 113t-3 113t-4.5 101t-7 76.5t-10.5 40q-8 10 -32 24t-55.5 28t-64.5 26.5
l-58 21.5l40 140q39 -10 86 -24.5t90.5 -31t78.5 -34.5t50 -35q18 -20 29.5 -80t19 -139t12 -166.5t8 -162.5t7 -127t9.5 -60q10 -14 42.5 -36.5l67.5 -47.5t62.5 -47t27.5 -34z" />
    <glyph glyph-name="asciitilde" unicode="~" horiz-adv-x="1080" 
d="M15 520q0 51 16.5 104.5t48.5 96.5t78 70.5t106 27.5q45 0 118.5 -16.5t186.5 -55.5l63 -21.5t68.5 -21t68.5 -15.5t64 -6q28 0 48 7t33 20.5t20 34.5t11 50h120q0 -54 -15.5 -106.5t-47 -93.5t-78 -66t-107.5 -25q-32 0 -67.5 6t-71.5 15t-71 20l-65 21l-95.5 32
t-75 23.5t-60 14t-50.5 4.5q-31 0 -54.5 -10.5t-39.5 -27t-24 -38.5t-8 -44h-120z" />
    <glyph glyph-name="Adieresis" unicode="&#xc4;" horiz-adv-x="1395" 
d="M433 540h507l-255 725zM994 385h-615l-134 -385h-205l27 63l30.5 74.5l36.5 94.5l46 123l400 1105h215l400 -1105l45 -123l37 -94.5l31 -74.5l27 -63h-205zM350 1775q0 28 9.5 52.5t26.5 43t40 29t51 10.5t51.5 -10.5t40.5 -29t26.5 -43t9.5 -52.5t-9.5 -52.5t-26.5 -43
t-40.5 -29t-51.5 -10.5t-51 10.5t-40 29t-26.5 43t-9.5 52.5zM770 1775q0 28 9.5 52.5t26.5 43t40 29t51 10.5t51.5 -10.5t40.5 -29t26.5 -43t9.5 -52.5t-9.5 -52.5t-26.5 -43t-40.5 -29t-51.5 -10.5t-51 10.5t-40 29t-26.5 43t-9.5 52.5z" />
    <glyph glyph-name="Aring" unicode="&#xc5;" horiz-adv-x="1395" 
d="M433 540h507l-255 725zM994 385h-615l-134 -385h-205l27 63l30.5 74.5l36.5 94.5l46 123l400 1105h215l400 -1105l45 -123l37 -94.5l31 -74.5l27 -63h-205zM472 1815q0 45 16.5 84t46 68.5t68.5 46t84 16.5t84 -16.5t68.5 -46t46 -68.5t16.5 -84t-16.5 -84t-46 -68.5
t-68.5 -46t-84 -16.5t-84 16.5t-68.5 46t-46 68.5t-16.5 84zM787 1815q0 45 -27.5 72.5t-72.5 27.5t-72.5 -27.5t-27.5 -72.5t27.5 -72.5t72.5 -27.5t72.5 27.5t27.5 72.5z" />
    <glyph glyph-name="Ccedilla" unicode="&#xc7;" horiz-adv-x="1355" 
d="M1230 140q-44 -41 -103 -71.5t-123.5 -51.5t-130.5 -31.5t-123 -10.5v-70q10 2 20.5 3.5t27.5 1.5q34 0 63 -12.5t50 -35t32.5 -54t11.5 -68.5q0 -51 -23 -92t-60 -69.5t-82 -43.5t-90 -15q-39 0 -71.5 11.5t-63.5 28.5l10 100q22 -16 45 -23t55 -7q22 0 45.5 5t43 17
t32.5 31t14 47q-1 39 -28.5 64.5t-68.5 25.5q-24 0 -48 -7.5t-40 -17.5v190q-124 20 -222 79t-166.5 152.5t-105 218t-36.5 275.5q0 193 56 338.5t149.5 242.5t215.5 145.5t254 48.5q54 0 110 -7t112.5 -23t112.5 -43t110 -67l-60 -180q-47 42 -96 71t-98 46.5t-97.5 25
t-93.5 7.5q-105 0 -193 -36.5t-151.5 -109.5t-99.5 -181.5t-36 -252.5q0 -116 31 -222t91 -186.5t147.5 -128.5t200.5 -48q57 0 115.5 13t114.5 37.5t107 58.5t93 76z" />
    <glyph glyph-name="Eacute" unicode="&#xc9;" horiz-adv-x="1160" 
d="M935 845v-160h-570v-520h264q149 0 250 2t161 13v-180h-880q11 60 13 173.5t2 261.5v590q0 148 -2 261.5t-13 173.5h850v-165h-645v-450h570zM1000 2030l-420 -430h-160l350 430h230z" />
    <glyph glyph-name="Ntilde" unicode="&#xd1;" horiz-adv-x="1500" 
d="M340 1152v-1152h-180q11 60 13 173.5t2 261.5v590q0 148 -2 261.5t-13 173.5h180l795 -1157v1157h180q-5 -30 -8 -74t-4.5 -99.5t-2 -121.5t-0.5 -140v-1025h-165zM382 1635q0 46 13.5 90.5t38 80t60 57.5t80.5 22q21 0 41 -4t40.5 -11.5t43 -17t48.5 -19.5l48.5 -20
t40 -15t34.5 -9.5t32 -3.5q35 0 57.5 25t27.5 60h105q0 -48 -13.5 -93t-39 -80t-62.5 -56t-83 -21q-40 0 -80.5 13.5t-86.5 34.5q-58 27 -92.5 39.5t-62.5 12.5q-37 0 -59 -24t-26 -61h-105z" />
    <glyph glyph-name="Odieresis" unicode="&#xd6;" horiz-adv-x="1460" 
d="M1340 740q0 -180 -53.5 -322t-142 -240.5t-201.5 -150.5t-233 -52q-121 0 -232 49t-196 144t-136 233.5t-51 318.5q0 120 24.5 223t68 188t103.5 151t130.5 111t149 68.5t159.5 23.5q119 0 229.5 -49t195 -144t135 -233.5t50.5 -318.5zM1145 715q0 138 -30.5 248.5
t-86.5 187.5t-134.5 118t-173.5 41t-174 -39.5t-136 -113t-88.5 -178t-31.5 -234.5q0 -137 30.5 -247t87 -187.5t135.5 -119t177 -41.5q92 0 170 38.5t134.5 111t88.5 177.5t32 238zM380 1775q0 28 9.5 52.5t26.5 43t40 29t51 10.5t51.5 -10.5t40.5 -29t26.5 -43t9.5 -52.5
t-9.5 -52.5t-26.5 -43t-40.5 -29t-51.5 -10.5t-51 10.5t-40 29t-26.5 43t-9.5 52.5zM800 1775q0 28 9.5 52.5t26.5 43t40 29t51 10.5t51.5 -10.5t40.5 -29t26.5 -43t9.5 -52.5t-9.5 -52.5t-26.5 -43t-40.5 -29t-51.5 -10.5t-51 10.5t-40 29t-26.5 43t-9.5 52.5z" />
    <glyph glyph-name="Udieresis" unicode="&#xdc;" horiz-adv-x="1440" 
d="M1255 1460q-10 -60 -12.5 -169.5t-2.5 -265.5v-510q0 -122 -32 -221.5t-97.5 -170.5t-165.5 -109.5t-235 -38.5q-137 0 -237.5 38.5t-166.5 109.5t-98.5 170.5t-32.5 221.5v510q0 148 -2.5 261.5t-12.5 173.5h205v-900q0 -98 17 -176.5t57 -134t106 -85t165 -29.5
q97 0 162 29.5t104.5 85t56.5 134t17 176.5v900h205zM370 1775q0 28 9.5 52.5t26.5 43t40 29t51 10.5t51.5 -10.5t40.5 -29t26.5 -43t9.5 -52.5t-9.5 -52.5t-26.5 -43t-40.5 -29t-51.5 -10.5t-51 10.5t-40 29t-26.5 43t-9.5 52.5zM790 1775q0 28 9.5 52.5t26.5 43t40 29
t51 10.5t51.5 -10.5t40.5 -29t26.5 -43t9.5 -52.5t-9.5 -52.5t-26.5 -43t-40.5 -29t-51.5 -10.5t-51 10.5t-40 29t-26.5 43t-9.5 52.5z" />
    <glyph glyph-name="aacute" horiz-adv-x="1120" 
d="M765 495q-19 -1 -53 -4l-72 -6.5t-74.5 -7.5t-60.5 -7q-64 -8 -107 -25.5t-69.5 -42.5t-37.5 -56.5t-11 -65.5q0 -30 12.5 -55.5t35 -44t53.5 -29.5t69 -11t75 6.5t75.5 26t79 56t85.5 96.5v170zM950 370q0 -108 21 -197t54 -173h-180l-24 65.5t-26 89.5
q-89 -95 -185 -137.5t-190 -42.5q-71 0 -130.5 23t-102.5 61.5t-67.5 89t-24.5 106.5q0 57 19 115.5t65 108t123 85t193 46.5q26 3 65.5 6.5t80 7.5t75 7t49.5 4v75q0 91 -63.5 130.5t-176.5 39.5q-80 0 -158.5 -31.5t-166.5 -93.5q0 16 1 42.5l2 55t3 55t4 42.5l78.5 32.5
t83 29t92.5 20.5t106 8q86 0 156.5 -21.5t120 -59t76.5 -88.5t27 -111v-390zM940 1600l-420 -430h-160l350 430h230z" />
    <glyph glyph-name="agrave" horiz-adv-x="1120" 
d="M765 495q-19 -1 -53 -4l-72 -6.5t-74.5 -7.5t-60.5 -7q-64 -8 -107 -25.5t-69.5 -42.5t-37.5 -56.5t-11 -65.5q0 -30 12.5 -55.5t35 -44t53.5 -29.5t69 -11t75 6.5t75.5 26t79 56t85.5 96.5v170zM950 370q0 -108 21 -197t54 -173h-180l-24 65.5t-26 89.5
q-89 -95 -185 -137.5t-190 -42.5q-71 0 -130.5 23t-102.5 61.5t-67.5 89t-24.5 106.5q0 57 19 115.5t65 108t123 85t193 46.5q26 3 65.5 6.5t80 7.5t75 7t49.5 4v75q0 91 -63.5 130.5t-176.5 39.5q-80 0 -158.5 -31.5t-166.5 -93.5q0 16 1 42.5l2 55t3 55t4 42.5l78.5 32.5
t83 29t92.5 20.5t106 8q86 0 156.5 -21.5t120 -59t76.5 -88.5t27 -111v-390zM380 1600l350 -430h-160l-420 430h230z" />
    <glyph glyph-name="acircumflex" horiz-adv-x="1120" 
d="M765 495q-19 -1 -53 -4l-72 -6.5t-74.5 -7.5t-60.5 -7q-64 -8 -107 -25.5t-69.5 -42.5t-37.5 -56.5t-11 -65.5q0 -30 12.5 -55.5t35 -44t53.5 -29.5t69 -11t75 6.5t75.5 26t79 56t85.5 96.5v170zM950 370q0 -108 21 -197t54 -173h-180l-24 65.5t-26 89.5
q-89 -95 -185 -137.5t-190 -42.5q-71 0 -130.5 23t-102.5 61.5t-67.5 89t-24.5 106.5q0 57 19 115.5t65 108t123 85t193 46.5q26 3 65.5 6.5t80 7.5t75 7t49.5 4v75q0 91 -63.5 130.5t-176.5 39.5q-80 0 -158.5 -31.5t-166.5 -93.5q0 16 1 42.5l2 55t3 55t4 42.5l78.5 32.5
t83 29t92.5 20.5t106 8q86 0 156.5 -21.5t120 -59t76.5 -88.5t27 -111v-390zM115 1170l340 430h170l340 -430h-150l-275 280l-275 -280h-150z" />
    <glyph glyph-name="adieresis" horiz-adv-x="1120" 
d="M765 495q-19 -1 -53 -4l-72 -6.5t-74.5 -7.5t-60.5 -7q-64 -8 -107 -25.5t-69.5 -42.5t-37.5 -56.5t-11 -65.5q0 -30 12.5 -55.5t35 -44t53.5 -29.5t69 -11t75 6.5t75.5 26t79 56t85.5 96.5v170zM950 370q0 -108 21 -197t54 -173h-180l-24 65.5t-26 89.5
q-89 -95 -185 -137.5t-190 -42.5q-71 0 -130.5 23t-102.5 61.5t-67.5 89t-24.5 106.5q0 57 19 115.5t65 108t123 85t193 46.5q26 3 65.5 6.5t80 7.5t75 7t49.5 4v75q0 91 -63.5 130.5t-176.5 39.5q-80 0 -158.5 -31.5t-166.5 -93.5q0 16 1 42.5l2 55t3 55t4 42.5l78.5 32.5
t83 29t92.5 20.5t106 8q86 0 156.5 -21.5t120 -59t76.5 -88.5t27 -111v-390zM203 1345q0 28 9.5 52.5t26.5 43t40 29t51 10.5t51.5 -10.5t40.5 -29t26.5 -43t9.5 -52.5t-9.5 -52.5t-26.5 -43t-40.5 -29t-51.5 -10.5t-51 10.5t-40 29t-26.5 43t-9.5 52.5zM623 1345
q0 28 9.5 52.5t26.5 43t40 29t51 10.5t51.5 -10.5t40.5 -29t26.5 -43t9.5 -52.5t-9.5 -52.5t-26.5 -43t-40.5 -29t-51.5 -10.5t-51 10.5t-40 29t-26.5 43t-9.5 52.5z" />
    <glyph glyph-name="atilde" horiz-adv-x="1120" 
d="M765 495q-19 -1 -53 -4l-72 -6.5t-74.5 -7.5t-60.5 -7q-64 -8 -107 -25.5t-69.5 -42.5t-37.5 -56.5t-11 -65.5q0 -30 12.5 -55.5t35 -44t53.5 -29.5t69 -11t75 6.5t75.5 26t79 56t85.5 96.5v170zM950 370q0 -108 21 -197t54 -173h-180l-24 65.5t-26 89.5
q-89 -95 -185 -137.5t-190 -42.5q-71 0 -130.5 23t-102.5 61.5t-67.5 89t-24.5 106.5q0 57 19 115.5t65 108t123 85t193 46.5q26 3 65.5 6.5t80 7.5t75 7t49.5 4v75q0 91 -63.5 130.5t-176.5 39.5q-80 0 -158.5 -31.5t-166.5 -93.5q0 16 1 42.5l2 55t3 55t4 42.5l78.5 32.5
t83 29t92.5 20.5t106 8q86 0 156.5 -21.5t120 -59t76.5 -88.5t27 -111v-390zM185 1205q0 46 13.5 90.5t38 80t60 57.5t80.5 22q21 0 41 -4t40.5 -11.5t43 -17t48.5 -19.5l48.5 -20t40 -15t34.5 -9.5t32 -3.5q35 0 57.5 25t27.5 60h105q0 -48 -13.5 -93t-39 -80t-62.5 -56
t-83 -21q-40 0 -80.5 13.5t-86.5 34.5q-58 27 -92.5 39.5t-62.5 12.5q-37 0 -59 -24t-26 -61h-105z" />
    <glyph glyph-name="aring" horiz-adv-x="1120" 
d="M765 495q-19 -1 -53 -4l-72 -6.5t-74.5 -7.5t-60.5 -7q-64 -8 -107 -25.5t-69.5 -42.5t-37.5 -56.5t-11 -65.5q0 -30 12.5 -55.5t35 -44t53.5 -29.5t69 -11t75 6.5t75.5 26t79 56t85.5 96.5v170zM950 370q0 -108 21 -197t54 -173h-180l-24 65.5t-26 89.5
q-89 -95 -185 -137.5t-190 -42.5q-71 0 -130.5 23t-102.5 61.5t-67.5 89t-24.5 106.5q0 57 19 115.5t65 108t123 85t193 46.5q26 3 65.5 6.5t80 7.5t75 7t49.5 4v75q0 91 -63.5 130.5t-176.5 39.5q-80 0 -158.5 -31.5t-166.5 -93.5q0 16 1 42.5l2 55t3 55t4 42.5l78.5 32.5
t83 29t92.5 20.5t106 8q86 0 156.5 -21.5t120 -59t76.5 -88.5t27 -111v-390zM325 1385q0 45 16.5 84t46 68.5t68.5 46t84 16.5t84 -16.5t68.5 -46t46 -68.5t16.5 -84t-16.5 -84t-46 -68.5t-68.5 -46t-84 -16.5t-84 16.5t-68.5 46t-46 68.5t-16.5 84zM640 1385
q0 45 -27.5 72.5t-72.5 27.5t-72.5 -27.5t-27.5 -72.5t27.5 -72.5t72.5 -27.5t72.5 27.5t27.5 72.5z" />
    <glyph glyph-name="ccedilla" unicode="&#xe7;" horiz-adv-x="1020" 
d="M615 1040q100 0 172.5 -23.5t127.5 -61.5l-35 -180q-68 50 -135 75t-145 25q-67 0 -124.5 -25.5t-100 -73.5t-66.5 -118t-24 -158q0 -81 22 -147t63 -113.5t99 -73.5t131 -26q91 0 165 31t140 89l20 -175q-38 -29 -75.5 -49.5t-78.5 -34t-88 -20t-103 -6.5q-5 0 -10 0.5
t-10 0.5v-71q10 2 20.5 3.5t27.5 1.5q34 0 63 -12.5t50 -35t32.5 -54t11.5 -68.5q0 -51 -23 -92t-60 -69.5t-82 -43.5t-90 -15q-39 0 -71.5 11.5t-63.5 28.5l10 100q22 -16 45 -23t55 -7q22 0 45.5 5t43 17t32.5 31t14 47q-1 39 -28.5 64.5t-68.5 25.5q-24 0 -48 -7.5
t-40 -17.5v201q-74 21 -136.5 64.5t-107.5 106.5t-70.5 144.5t-25.5 178.5q0 113 36.5 213t104 175t164 118.5t215.5 43.5z" />
    <glyph glyph-name="eacute" unicode="&#xe9;" horiz-adv-x="1095" 
d="M575 1040q82 0 145 -19.5t109 -54t77 -80.5t49.5 -99t26.5 -110.5t8 -113.5v-39q0 -25 -1 -39h-709q3 -88 27.5 -153t67 -107.5t100 -63.5t125.5 -21q97 0 190 22t185 78l20 -165q-53 -27 -104 -46t-102 -31t-103.5 -17.5t-110.5 -5.5q-96 0 -183 33.5t-153 99
t-105 162.5t-39 225q0 124 33.5 224.5t95.5 172t151 110t200 38.5zM560 890q-110 0 -180 -64.5t-92 -200.5h522q0 64 -18.5 113.5t-52 83.5t-79.5 51t-100 17zM969 1600l-420 -430h-160l350 430h230z" />
    <glyph glyph-name="egrave" unicode="&#xe8;" horiz-adv-x="1095" 
d="M575 1040q82 0 145 -19.5t109 -54t77 -80.5t49.5 -99t26.5 -110.5t8 -113.5v-39q0 -25 -1 -39h-709q3 -88 27.5 -153t67 -107.5t100 -63.5t125.5 -21q97 0 190 22t185 78l20 -165q-53 -27 -104 -46t-102 -31t-103.5 -17.5t-110.5 -5.5q-96 0 -183 33.5t-153 99
t-105 162.5t-39 225q0 124 33.5 224.5t95.5 172t151 110t200 38.5zM560 890q-110 0 -180 -64.5t-92 -200.5h522q0 64 -18.5 113.5t-52 83.5t-79.5 51t-100 17zM409 1600l350 -430h-160l-420 430h230z" />
    <glyph glyph-name="ecircumflex" unicode="&#xea;" horiz-adv-x="1095" 
d="M575 1040q82 0 145 -19.5t109 -54t77 -80.5t49.5 -99t26.5 -110.5t8 -113.5v-39q0 -25 -1 -39h-709q3 -88 27.5 -153t67 -107.5t100 -63.5t125.5 -21q97 0 190 22t185 78l20 -165q-53 -27 -104 -46t-102 -31t-103.5 -17.5t-110.5 -5.5q-96 0 -183 33.5t-153 99
t-105 162.5t-39 225q0 124 33.5 224.5t95.5 172t151 110t200 38.5zM560 890q-110 0 -180 -64.5t-92 -200.5h522q0 64 -18.5 113.5t-52 83.5t-79.5 51t-100 17zM144 1170l340 430h170l340 -430h-150l-275 280l-275 -280h-150z" />
    <glyph glyph-name="edieresis" unicode="&#xeb;" horiz-adv-x="1095" 
d="M575 1040q82 0 145 -19.5t109 -54t77 -80.5t49.5 -99t26.5 -110.5t8 -113.5v-39q0 -25 -1 -39h-709q3 -88 27.5 -153t67 -107.5t100 -63.5t125.5 -21q97 0 190 22t185 78l20 -165q-53 -27 -104 -46t-102 -31t-103.5 -17.5t-110.5 -5.5q-96 0 -183 33.5t-153 99
t-105 162.5t-39 225q0 124 33.5 224.5t95.5 172t151 110t200 38.5zM560 890q-110 0 -180 -64.5t-92 -200.5h522q0 64 -18.5 113.5t-52 83.5t-79.5 51t-100 17zM232 1345q0 28 9.5 52.5t26.5 43t40 29t51 10.5t51.5 -10.5t40.5 -29t26.5 -43t9.5 -52.5t-9.5 -52.5t-26.5 -43
t-40.5 -29t-51.5 -10.5t-51 10.5t-40 29t-26.5 43t-9.5 52.5zM652 1345q0 28 9.5 52.5t26.5 43t40 29t51 10.5t51.5 -10.5t40.5 -29t26.5 -43t9.5 -52.5t-9.5 -52.5t-26.5 -43t-40.5 -29t-51.5 -10.5t-51 10.5t-40 29t-26.5 43t-9.5 52.5z" />
    <glyph glyph-name="iacute" unicode="&#xed;" horiz-adv-x="530" 
d="M355 475q0 -48 1.5 -113.5t4 -132.5t6 -128t8.5 -101h-205v530q0 73 -0.5 144t-2 134.5t-4.5 118t-8 93.5h200v-545zM665 1600l-420 -430h-160l350 430h230z" />
    <glyph glyph-name="igrave" unicode="&#xec;" horiz-adv-x="530" 
d="M355 475q0 -48 1.5 -113.5t4 -132.5t6 -128t8.5 -101h-205v530q0 73 -0.5 144t-2 134.5t-4.5 118t-8 93.5h200v-545zM105 1600l350 -430h-160l-420 430h230z" />
    <glyph glyph-name="icircumflex" unicode="&#xee;" horiz-adv-x="530" 
d="M355 475q0 -48 1.5 -113.5t4 -132.5t6 -128t8.5 -101h-205v530q0 73 -0.5 144t-2 134.5t-4.5 118t-8 93.5h200v-545zM-160 1170l340 430h170l340 -430h-150l-275 280l-275 -280h-150z" />
    <glyph glyph-name="idieresis" unicode="&#xef;" horiz-adv-x="530" 
d="M355 475q0 -48 1.5 -113.5t4 -132.5t6 -128t8.5 -101h-205v530q0 73 -0.5 144t-2 134.5t-4.5 118t-8 93.5h200v-545zM-72 1345q0 28 9.5 52.5t26.5 43t40 29t51 10.5t51.5 -10.5t40.5 -29t26.5 -43t9.5 -52.5t-9.5 -52.5t-26.5 -43t-40.5 -29t-51.5 -10.5t-51 10.5
t-40 29t-26.5 43t-9.5 52.5zM348 1345q0 28 9.5 52.5t26.5 43t40 29t51 10.5t51.5 -10.5t40.5 -29t26.5 -43t9.5 -52.5t-9.5 -52.5t-26.5 -43t-40.5 -29t-51.5 -10.5t-51 10.5t-40 29t-26.5 43t-9.5 52.5z" />
    <glyph glyph-name="ntilde" unicode="&#xf1;" horiz-adv-x="1185" 
d="M719 1040q160 0 245 -104.5t85 -310.5v-625h-185v550q0 94 -12.5 155t-37 96.5t-62 49.5t-88.5 14q-54 0 -105.5 -25.5t-94.5 -66t-76 -91.5t-49 -102v-580h-185v615q0 148 -16.5 250.5t-33.5 154.5h180q6 -16 12 -41.5t11 -53.5t9 -55l8 -45q95 114 192 164.5t203 50.5z
M244 1205q0 46 13.5 90.5t38 80t60 57.5t80.5 22q21 0 41 -4t40.5 -11.5t43 -17t48.5 -19.5l48.5 -20t40 -15t34.5 -9.5t32 -3.5q35 0 57.5 25t27.5 60h105q0 -48 -13.5 -93t-39 -80t-62.5 -56t-83 -21q-40 0 -80.5 13.5t-86.5 34.5q-58 27 -92.5 39.5t-62.5 12.5
q-37 0 -59 -24t-26 -61h-105z" />
    <glyph glyph-name="oacute" unicode="&#xf3;" horiz-adv-x="1140" 
d="M280 505q0 -87 21 -156t59.5 -116.5t91.5 -72.5t118 -25q60 0 113 25t92.5 72.5t62 116.5t22.5 156q0 88 -21 157.5t-59.5 118t-92 74t-117.5 25.5q-61 0 -114 -25.5t-92 -74t-61.5 -118t-22.5 -157.5zM95 505q0 129 39 228.5t105 168t154 103.5t187 35q103 0 188.5 -35
t147 -103.5t95.5 -168t34 -228.5t-39 -228t-105 -166t-154 -101.5t-187 -34.5q-103 0 -188.5 34.5t-147 101.5t-95.5 166t-34 228zM970 1600l-420 -430h-160l350 430h230z" />
    <glyph glyph-name="ograve" unicode="&#xf2;" horiz-adv-x="1140" 
d="M280 505q0 -87 21 -156t59.5 -116.5t91.5 -72.5t118 -25q60 0 113 25t92.5 72.5t62 116.5t22.5 156q0 88 -21 157.5t-59.5 118t-92 74t-117.5 25.5q-61 0 -114 -25.5t-92 -74t-61.5 -118t-22.5 -157.5zM95 505q0 129 39 228.5t105 168t154 103.5t187 35q103 0 188.5 -35
t147 -103.5t95.5 -168t34 -228.5t-39 -228t-105 -166t-154 -101.5t-187 -34.5q-103 0 -188.5 34.5t-147 101.5t-95.5 166t-34 228zM410 1600l350 -430h-160l-420 430h230z" />
    <glyph glyph-name="ocircumflex" unicode="&#xf4;" horiz-adv-x="1140" 
d="M280 505q0 -87 21 -156t59.5 -116.5t91.5 -72.5t118 -25q60 0 113 25t92.5 72.5t62 116.5t22.5 156q0 88 -21 157.5t-59.5 118t-92 74t-117.5 25.5q-61 0 -114 -25.5t-92 -74t-61.5 -118t-22.5 -157.5zM95 505q0 129 39 228.5t105 168t154 103.5t187 35q103 0 188.5 -35
t147 -103.5t95.5 -168t34 -228.5t-39 -228t-105 -166t-154 -101.5t-187 -34.5q-103 0 -188.5 34.5t-147 101.5t-95.5 166t-34 228zM145 1170l340 430h170l340 -430h-150l-275 280l-275 -280h-150z" />
    <glyph glyph-name="odieresis" unicode="&#xf6;" horiz-adv-x="1140" 
d="M280 505q0 -87 21 -156t59.5 -116.5t91.5 -72.5t118 -25q60 0 113 25t92.5 72.5t62 116.5t22.5 156q0 88 -21 157.5t-59.5 118t-92 74t-117.5 25.5q-61 0 -114 -25.5t-92 -74t-61.5 -118t-22.5 -157.5zM95 505q0 129 39 228.5t105 168t154 103.5t187 35q103 0 188.5 -35
t147 -103.5t95.5 -168t34 -228.5t-39 -228t-105 -166t-154 -101.5t-187 -34.5q-103 0 -188.5 34.5t-147 101.5t-95.5 166t-34 228zM233 1345q0 28 9.5 52.5t26.5 43t40 29t51 10.5t51.5 -10.5t40.5 -29t26.5 -43t9.5 -52.5t-9.5 -52.5t-26.5 -43t-40.5 -29t-51.5 -10.5
t-51 10.5t-40 29t-26.5 43t-9.5 52.5zM653 1345q0 28 9.5 52.5t26.5 43t40 29t51 10.5t51.5 -10.5t40.5 -29t26.5 -43t9.5 -52.5t-9.5 -52.5t-26.5 -43t-40.5 -29t-51.5 -10.5t-51 10.5t-40 29t-26.5 43t-9.5 52.5z" />
    <glyph glyph-name="otilde" unicode="&#xf5;" horiz-adv-x="1140" 
d="M280 505q0 -87 21 -156t59.5 -116.5t91.5 -72.5t118 -25q60 0 113 25t92.5 72.5t62 116.5t22.5 156q0 88 -21 157.5t-59.5 118t-92 74t-117.5 25.5q-61 0 -114 -25.5t-92 -74t-61.5 -118t-22.5 -157.5zM95 505q0 129 39 228.5t105 168t154 103.5t187 35q103 0 188.5 -35
t147 -103.5t95.5 -168t34 -228.5t-39 -228t-105 -166t-154 -101.5t-187 -34.5q-103 0 -188.5 34.5t-147 101.5t-95.5 166t-34 228zM215 1205q0 46 13.5 90.5t38 80t60 57.5t80.5 22q21 0 41 -4t40.5 -11.5t43 -17t48.5 -19.5l48.5 -20t40 -15t34.5 -9.5t32 -3.5
q35 0 57.5 25t27.5 60h105q0 -48 -13.5 -93t-39 -80t-62.5 -56t-83 -21q-40 0 -80.5 13.5t-86.5 34.5q-58 27 -92.5 39.5t-62.5 12.5q-37 0 -59 -24t-26 -61h-105z" />
    <glyph glyph-name="uacute" unicode="&#xfa;" horiz-adv-x="1185" 
d="M475 -25q-320 0 -320 430v295q0 48 -0.5 87t-2.5 75.5t-6 74.5t-11 83h205v-555q0 -85 8.5 -146.5t28.5 -101t52.5 -58.5t80.5 -19q44 0 94 26.5t95.5 67.5t83 90.5t57.5 95.5v280q0 49 -0.5 88.5t-2.5 75.5t-6 73t-11 83h205v-570q0 -146 16.5 -255.5t48.5 -194.5h-170
q-7 17 -15 40t-15.5 49t-14 54.5t-10.5 56.5q-91 -111 -187.5 -168t-202.5 -57zM989 1600l-420 -430h-160l350 430h230z" />
    <glyph glyph-name="ugrave" unicode="&#xf9;" horiz-adv-x="1185" 
d="M475 -25q-320 0 -320 430v295q0 48 -0.5 87t-2.5 75.5t-6 74.5t-11 83h205v-555q0 -85 8.5 -146.5t28.5 -101t52.5 -58.5t80.5 -19q44 0 94 26.5t95.5 67.5t83 90.5t57.5 95.5v280q0 49 -0.5 88.5t-2.5 75.5t-6 73t-11 83h205v-570q0 -146 16.5 -255.5t48.5 -194.5h-170
q-7 17 -15 40t-15.5 49t-14 54.5t-10.5 56.5q-91 -111 -187.5 -168t-202.5 -57zM429 1600l350 -430h-160l-420 430h230z" />
    <glyph glyph-name="ucircumflex" unicode="&#xfb;" horiz-adv-x="1185" 
d="M475 -25q-320 0 -320 430v295q0 48 -0.5 87t-2.5 75.5t-6 74.5t-11 83h205v-555q0 -85 8.5 -146.5t28.5 -101t52.5 -58.5t80.5 -19q44 0 94 26.5t95.5 67.5t83 90.5t57.5 95.5v280q0 49 -0.5 88.5t-2.5 75.5t-6 73t-11 83h205v-570q0 -146 16.5 -255.5t48.5 -194.5h-170
q-7 17 -15 40t-15.5 49t-14 54.5t-10.5 56.5q-91 -111 -187.5 -168t-202.5 -57zM164 1170l340 430h170l340 -430h-150l-275 280l-275 -280h-150z" />
    <glyph glyph-name="udieresis" unicode="&#xfc;" horiz-adv-x="1185" 
d="M475 -25q-320 0 -320 430v295q0 48 -0.5 87t-2.5 75.5t-6 74.5t-11 83h205v-555q0 -85 8.5 -146.5t28.5 -101t52.5 -58.5t80.5 -19q44 0 94 26.5t95.5 67.5t83 90.5t57.5 95.5v280q0 49 -0.5 88.5t-2.5 75.5t-6 73t-11 83h205v-570q0 -146 16.5 -255.5t48.5 -194.5h-170
q-7 17 -15 40t-15.5 49t-14 54.5t-10.5 56.5q-91 -111 -187.5 -168t-202.5 -57zM252 1345q0 28 9.5 52.5t26.5 43t40 29t51 10.5t51.5 -10.5t40.5 -29t26.5 -43t9.5 -52.5t-9.5 -52.5t-26.5 -43t-40.5 -29t-51.5 -10.5t-51 10.5t-40 29t-26.5 43t-9.5 52.5zM672 1345
q0 28 9.5 52.5t26.5 43t40 29t51 10.5t51.5 -10.5t40.5 -29t26.5 -43t9.5 -52.5t-9.5 -52.5t-26.5 -43t-40.5 -29t-51.5 -10.5t-51 10.5t-40 29t-26.5 43t-9.5 52.5z" />
    <glyph glyph-name="dagger" unicode="&#x2020;" horiz-adv-x="1025" 
d="M590 835q0 -109 0.5 -228.5t2 -252.5t5.5 -279.5t12 -309.5h-195q7 163 11.5 309.5t6 279.5t2 252.5t0.5 228.5v80q-43 0 -87.5 -1t-93.5 -2.5t-104 -3t-120 -4.5v165q64 -3 119.5 -5t104 -2.5l93 -1t87.5 -0.5q-2 112 -5.5 229t-13.5 221h195q-10 -104 -14 -221t-5 -229
q51 0 95 0.5l90 1t98.5 2.5t120.5 5v-165q-66 3 -121.5 4.5t-104 3t-92.5 2.5t-87 1v-80z" />
    <glyph glyph-name="degree" unicode="&#xb0;" horiz-adv-x="640" 
d="M70 1235q0 52 19.5 98t53 79.5t79 53t98.5 19.5q52 0 98 -19.5t79.5 -53t53 -79.5t19.5 -98q0 -53 -19.5 -98.5t-53 -79t-79.5 -53t-98 -19.5q-53 0 -98.5 19.5t-79 53t-53 79t-19.5 98.5zM455 1235q0 28 -10.5 52.5t-29 43t-43 29t-52.5 10.5t-52.5 -10.5t-43 -29
t-29 -43t-10.5 -52.5t10.5 -52.5t29 -43t43 -29t52.5 -10.5t52.5 10.5t43 29t29 43t10.5 52.5z" />
    <glyph glyph-name="cent" unicode="&#xa2;" 
d="M386 549q0 -65 15 -120t43 -98t69 -72.5t92 -42.5v678q-48 -14 -88 -43t-69.5 -73t-45.5 -101.5t-16 -127.5zM735 1320v-259q81 -5 141 -26.5t108 -53.5l-33 -171q-54 39 -106.5 62t-109.5 30v-693q69 8 127.5 36.5t112.5 75.5l19 -166q-60 -45 -120.5 -70t-138.5 -32
v-263h-130v263q-85 10 -158 48.5t-127 100.5t-84.5 147.5t-30.5 190.5q0 96 28 182t79.5 154t125.5 114.5t167 63.5v266h130z" />
    <glyph glyph-name="sterling" unicode="&#xa3;" 
d="M155 835h113q-4 54 -6 104t-2 96q0 112 28.5 196.5t80.5 141t124.5 84.5t161.5 28q29 0 63 -5t67 -14t64 -22t54 -29l-46 -150q-19 14 -44.5 25t-53.5 19t-55 12t-49 4q-47 0 -85.5 -13.5t-66 -43.5t-43 -77.5t-15.5 -115.5q0 -53 3 -114t8 -126h309v-145h-297
q5 -62 8 -119t3 -106q0 -94 -22.5 -167.5t-80.5 -132.5h203q74 0 140 0.5t122 2t100 4.5t74 8v-180h-870v130q30 22 57 50t47.5 61t32.5 71t12 80q0 70 -4.5 145.5t-10.5 152.5h-124v145z" />
    <glyph glyph-name="section" unicode="&#xa7;" horiz-adv-x="1024" 
d="M700 480q0 28 -9.5 56.5t-32.5 59.5t-61.5 65t-95.5 74q-42 -1 -77 -13t-60.5 -32.5t-39.5 -49.5t-14 -65q0 -31 10 -60.5t34.5 -61t65 -66.5t102.5 -76q39 3 72 18t56.5 37.5t36.5 51.5t13 62zM880 512q0 -107 -51 -189.5t-139 -127.5q98 -80 144 -162t46 -173
q0 -68 -30 -128t-82 -105t-122 -71t-151 -26q-61 0 -117.5 9t-106 25t-90.5 37t-71 44l50 180q34 -30 76.5 -55t87.5 -43t90.5 -27.5t85.5 -9.5q44 0 80.5 13t63 33.5t41.5 46.5t15 52q0 48 -21 89t-60 80.5t-93.5 79.5l-120.5 86q-68 47 -119 90.5t-86 90.5t-52.5 100.5
t-17.5 119.5q0 103 52 175t138 110q-98 75 -144 145t-46 144q0 61 20 121.5t66 109t119 79t180 30.5q54 0 101.5 -7t87 -18.5t72.5 -26t59 -28.5l-35 -175q-25 15 -57 31.5t-69.5 30.5t-80 23.5t-88.5 9.5q-51 0 -88 -12t-61 -31.5t-35 -44.5t-11 -50q0 -38 21 -72t60 -69
t93.5 -74l120.5 -87q67 -49 118.5 -92t86.5 -87t52.5 -91t17.5 -103z" />
    <glyph glyph-name="bullet" unicode="&#x2022;" horiz-adv-x="940" 
d="M250 733q0 45 17.5 85t47 69.5t69.5 47t85 17.5t85 -17.5t70.5 -47t48 -69.5t17.5 -85t-17.5 -85t-48 -70.5t-70.5 -48t-85 -17.5t-85 17.5t-69.5 48t-47 70.5t-17.5 85z" />
    <glyph glyph-name="paragraph" unicode="&#xb6;" horiz-adv-x="1025" 
d="M850 1345v-1345h-135v1345h-160v-1345h-135v765q-34 0 -75 7t-82 23.5t-79.5 43t-68 65t-47.5 90.5t-18 119t18 119t48 90.5t69.5 65t83 42.5t88 23t83.5 7h525v-115h-115z" />
    <glyph glyph-name="germandbls" unicode="&#xdf;" horiz-adv-x="1238" 
d="M762 845q0 -39 17.5 -66t44.5 -48t61 -38.5t67 -36.5q38 -23 79 -52t74.5 -68.5t55.5 -90.5t22 -117q0 -83 -29 -148.5t-81 -111t-123.5 -69.5t-156.5 -24q-36 0 -74.5 6.5t-73.5 16.5t-65 23t-49 27l50 180q18 -18 42.5 -35t52.5 -29.5t58 -20.5t59 -8q46 0 85.5 12.5
t68 36t44.5 57.5t16 78q0 34 -14 63.5t-38 55.5t-56 47.5t-67 39.5q-44 22 -88.5 50.5t-80.5 67t-58.5 88t-22.5 114.5q0 62 23.5 104t59 72t76.5 53.5t76.5 49t59 58.5t23.5 82q0 43 -22.5 79t-58 62t-79 40.5t-85.5 14.5q-52 0 -107 -15t-100 -50t-74 -92.5t-29 -142.5
v-1160h-215q8 39 14 94t9.5 119.5t5 136t1.5 144.5v626q0 135 39 230t103 155t147 87.5t170 27.5q115 0 202 -28.5t145.5 -75.5t87.5 -107.5t29 -124.5q0 -80 -24 -131.5t-59.5 -85.5t-77 -56.5t-77 -44.5t-59.5 -49.5t-24 -71.5z" />
    <glyph glyph-name="registered" unicode="&#xae;" horiz-adv-x="1615" 
d="M675 767h115q102 0 156 38t54 110q0 75 -49.5 118t-160.5 43q-33 0 -61 -1t-54 -3v-305zM675 548q0 -94 1.5 -157t8.5 -101h-140q6 38 7 101t1 157v350q0 94 -1 164t-7 108q30 2 69 5q33 2 78.5 3.5t102.5 1.5q72 0 132.5 -15t104.5 -46.5t68.5 -79.5t24.5 -114
q0 -55 -18 -96.5t-47.5 -71.5t-66 -48.5t-73.5 -28.5l43 -58.5l56 -75.5l61 -81.5l58 -77l47.5 -62t29.5 -35.5h-155l-261 378h-124v-120zM855 1365q-112 0 -216.5 -41t-185.5 -121t-129.5 -198.5t-48.5 -274.5t48.5 -274.5t129.5 -198.5t185.5 -121t216.5 -41t217.5 41
t187 121t131 198.5t49.5 274.5t-49.5 274.5t-131 198.5t-187 121t-217.5 41zM855 1485q87 0 173.5 -21t165.5 -63.5t146.5 -105.5t117.5 -147t78.5 -188.5t28.5 -229.5q0 -128 -28.5 -233.5t-78.5 -189t-117.5 -146t-146.5 -104t-165.5 -62t-173.5 -20.5q-90 0 -177 20.5
t-165 62t-144.5 104t-115 146t-76 189.5t-27.5 233q0 125 27.5 229.5t76 188.5t115 147t144.5 105.5t165.5 63.5t176.5 21z" />
    <glyph glyph-name="copyright" unicode="&#xa9;" horiz-adv-x="1515" 
d="M1035 375q-28 -26 -62 -45.5t-71.5 -33t-76.5 -20t-75 -6.5q-89 0 -162 32.5t-124.5 92t-80 142t-28.5 183.5q0 115 35.5 204t93 149t131 91t150.5 31q69 0 132.5 -19.5t132.5 -70.5l-40 -120q-60 55 -113.5 77.5t-111.5 22.5t-110 -23t-91 -67.5t-61.5 -109.5
t-22.5 -150q0 -66 20 -129t56.5 -112t88 -79t115.5 -30q70 0 133.5 33t116.5 87zM755 1485q87 0 173.5 -21t165.5 -63.5t146.5 -105.5t117.5 -147t78.5 -188.5t28.5 -229.5q0 -128 -28.5 -233.5t-78.5 -189t-117.5 -146t-146.5 -104t-165.5 -62t-173.5 -20.5
q-90 0 -177 20.5t-165 62t-144.5 104t-115 146t-76 189.5t-27.5 233q0 125 27.5 229.5t76 188.5t115 147t144.5 105.5t165.5 63.5t176.5 21zM755 1365q-112 0 -216.5 -41t-185.5 -121t-129.5 -198.5t-48.5 -274.5t48.5 -274.5t129.5 -198.5t185.5 -121t216.5 -41t217.5 41
t187 121t131 198.5t49.5 274.5t-49.5 274.5t-131 198.5t-187 121t-217.5 41z" />
    <glyph glyph-name="trademark" unicode="&#x2122;" horiz-adv-x="1665" 
d="M695 1460v-105q-33 8 -65 10t-70 2h-129v-471q0 -81 2 -143.5t9 -95.5h-129q7 33 9 95.5t2 143.5v471h-130q-36 0 -68.5 -2t-65.5 -10v105h635zM1373 1460h124q6 -196 13 -361l6 -140.5t6 -130.5t6.5 -105.5t6.5 -65.5h-104l-16 650l-224 -650h-109l-226 651l-16 -651
h-105q3 20 6 65.5t6 105.5t6 130.5l6 140.5q7 165 14 361h127l236 -690z" />
    <glyph glyph-name="acute" unicode="&#xb4;" horiz-adv-x="0" 
d="M-170 1600l-420 -430h-160l350 430h230z" />
    <glyph glyph-name="dieresis" unicode="&#xa8;" horiz-adv-x="675" 
d="M0 1345q0 28 9.5 52.5t26.5 43t40 29t51 10.5t51.5 -10.5t40.5 -29t26.5 -43t9.5 -52.5t-9.5 -52.5t-26.5 -43t-40.5 -29t-51.5 -10.5t-51 10.5t-40 29t-26.5 43t-9.5 52.5zM420 1345q0 28 9.5 52.5t26.5 43t40 29t51 10.5t51.5 -10.5t40.5 -29t26.5 -43t9.5 -52.5
t-9.5 -52.5t-26.5 -43t-40.5 -29t-51.5 -10.5t-51 10.5t-40 29t-26.5 43t-9.5 52.5z" />
    <glyph glyph-name="notequal" unicode="&#x2260;" 
d="M1005 1215l-154 -235h224v-150h-323l-131 -200h454v-150h-552l-183 -280h-160l183 280h-238v150h337l131 200h-468v150h566l154 235h160z" />
    <glyph glyph-name="AE" unicode="&#xc6;" horiz-adv-x="1805" 
d="M905 0q3 17 5.5 42.5t4 68.5t2.5 109t2 165h-449l-190 -385h-200l62 104.5l53.5 97l49.5 96l50 101.5l515 1061h845v-165h-545v-450h470v-160h-470v-520h164q149 0 250 2t161 13v-180h-780zM547 540h372q1 135 1 319v436z" />
    <glyph glyph-name="Oslash" unicode="&#xd8;" horiz-adv-x="1460" 
d="M290 745q0 -137 29.5 -245t85.5 -186l508 944q-86 52 -193 52q-95 0 -174 -39.5t-136 -113t-88.5 -178t-31.5 -234.5zM1145 715q0 148 -34.5 262.5t-97.5 192.5l-513 -953q94 -67 220 -67q92 0 170 38.5t134.5 111t88.5 177.5t32 238zM1206 1530l-101 -189
q52 -47 95.5 -108.5t74.5 -136.5t48 -164.5t17 -191.5q0 -180 -53.5 -322t-142 -240.5t-201.5 -150.5t-233 -52q-159 0 -296 82l-71 -132h-148l115 213q-98 95 -156.5 241t-58.5 341q0 120 24.5 223t68 188t103.5 151t130.5 111t149 68.5t159.5 23.5q71 0 138.5 -17.5
t129.5 -51.5l62 114h146z" />
    <glyph glyph-name="infinity" unicode="&#x221e;" 
d="M1160 730q0 -60 -22.5 -109t-60 -83.5t-85 -53.5t-97.5 -19q-36 0 -73.5 7t-75 23.5t-75 43t-71.5 66.5q-69 -74 -146 -107t-149 -33q-56 0 -104.5 21.5t-84 58.5t-56 84.5t-20.5 100.5q0 60 22.5 109.5t60 85.5t85 55.5t97.5 19.5q72 0 149 -37.5t146 -117.5
q69 74 146 114.5t149 40.5q56 0 104.5 -22.5t84 -60t56 -86.5t20.5 -101zM670 730q25 -37 53.5 -63.5t57 -43.5t55 -25t49.5 -8q28 0 52.5 10.5t43 29.5t29 44.5t10.5 55.5q0 26 -10.5 50.5t-29 43t-43 30t-52.5 11.5q-23 0 -51 -9.5t-57.5 -27t-57.5 -42.5t-49 -56z
M530 730q-26 37 -54 63.5t-56.5 43.5t-55.5 25t-49 8q-28 0 -52.5 -10.5t-43 -29.5t-29 -44.5t-10.5 -55.5q0 -26 10.5 -50.5t29 -43.5t43 -30t52.5 -11q22 0 50.5 9.5t58 27t57.5 42.5t49 56z" />
    <glyph glyph-name="plusminus" unicode="&#xb1;" 
d="M155 350h890v-150h-890v150zM155 985h370v380h150v-380h370v-150h-370v-365h-150v365h-370v150z" />
    <glyph glyph-name="lessequal" unicode="&#x2264;" 
d="M1080 245l-980 400v170l980 400v-180l-790 -305l790 -305v-180zM100 150h980v-150h-980v150z" />
    <glyph glyph-name="greaterequal" unicode="&#x2265;" 
d="M120 150h980v-150h-980v150zM120 1215l980 -400v-170l-980 -400v180l790 305l-790 305v180z" />
    <glyph glyph-name="yen" unicode="&#xa5;" 
d="M200 715h245l-159 297l-48.5 91.5t-50 89.5l-56.5 93t-67 101h201l343 -628l326 628h201l-68.5 -109l-54.5 -92.5l-47.5 -85.5l-47.5 -88l-159 -297h250v-145h-326v-105h326v-145h-326q0 -108 2.5 -190.5t10.5 -129.5h-191q8 47 10 129.5t3 190.5h-317v145h317v105h-317
v145z" />
    <glyph glyph-name="mu" unicode="&#xb5;" horiz-adv-x="1185" 
d="M920 0q-7 17 -15 40t-15.5 49t-14 54.5t-10.5 56.5q-24 -38 -58.5 -77.5t-76.5 -72.5t-89.5 -54t-95.5 -21q-35 0 -66 9t-57 23.5t-47 33.5t-35 39v-230q0 -60 1.5 -108.5t4.5 -89.5t8 -75.5t11 -66.5h-210v1190q0 48 -0.5 87t-2.5 75.5t-6 74.5t-11 83h205v-555
q0 -85 19.5 -146.5t51 -101t71.5 -58.5t82 -19q37 0 79 26t80.5 67t69.5 90.5t47 96.5v280q0 49 -0.5 88.5t-2.5 75.5t-6 73t-11 83h205v-570q0 -146 16.5 -255.5t48.5 -194.5h-170z" />
    <glyph glyph-name="partialdiff" unicode="&#x2202;" horiz-adv-x="1110" 
d="M825 630q-17 18 -46.5 38.5t-66.5 37.5t-78.5 28t-83.5 11q-69 0 -124 -28.5t-93 -76.5t-58 -110.5t-20 -129.5q0 -42 14 -89.5t41 -87.5t67 -66.5t93 -26.5q72 0 131 37t104 103.5t75 158.5t45 201zM1025 840q0 -103 -15 -207t-45 -200t-75 -179.5t-105.5 -145.5
t-136.5 -97.5t-168 -35.5q-94 0 -167.5 37.5t-124 99.5t-77 143.5t-26.5 169.5q0 80 20 146t54 117.5t77.5 89.5t90 63t93 37t85.5 12q94 0 178 -25.5t162 -94.5q3 29 4 57.5t1 57.5q0 78 -19.5 153t-61 133t-107 93.5t-157.5 35.5q-30 0 -57 -4t-54 -12.5t-56 -21.5
t-63 -32l-45 150q23 14 53 27.5t65 24t73.5 17t78.5 6.5q107 0 187.5 -26.5t139 -71.5t96.5 -105.5t61 -129t32 -141t9 -141.5z" />
    <glyph glyph-name="summation" unicode="&#x2211;" horiz-adv-x="1230" 
d="M280 165h420q63 0 128 1t123 3.5t106 6.5t78 9v-185h-1060v130l426 620l-396 580v130h970v-185q-30 6 -68 10t-86 6.5t-107.5 3t-133.5 0.5h-340l370 -544z" />
    <glyph glyph-name="product" unicode="&#x220f;" horiz-adv-x="1565" 
d="M1535 1460v-185q-61 11 -124.5 15.5t-140.5 4.5v-865q0 -149 2 -259.5t13 -170.5h-205v1295h-610v-1295h-205q11 60 13 170.5t2 259.5v865q-76 0 -138 -5t-122 -15v185h1515z" />
    <glyph glyph-name="pi" unicode="&#x3c0;" horiz-adv-x="1317" 
d="M1035 875v-475q0 -73 2.5 -128.5t9 -102t17 -87t26.5 -82.5h-195q-19 46 -27.5 104t-12.5 133q-2 34 -2.5 78t-1.5 94t-1 105v361h-400v-875h-185v875h-205v145h1180v-145h-205z" />
    <glyph glyph-name="integral" unicode="&#x222b;" horiz-adv-x="985" 
d="M615 1280q-8 -36 -15 -109t-13 -169t-11 -209l-10 -230l-10 -230.5t-11.5 -210.5t-13.5 -171t-16 -111q-21 -89 -57 -148.5t-78.5 -95.5t-89.5 -51t-90 -15q-58 0 -100.5 18t-74.5 47l80 150q16 -23 44.5 -34t60.5 -11q19 0 38 7t37.5 27t35 57.5t29.5 98.5q7 34 13 105
t11 165.5t9 205.5l8.5 225.5l9 226.5t10.5 207.5t13 168.5t16 111q18 73 50 131.5t73 99t90 62.5t102 22q60 0 113 -18.5t92 -56.5l-100 -155q-13 21 -43.5 38t-61.5 17t-54 -15t-40 -39t-28 -53.5t-18 -57.5z" />
    <glyph glyph-name="ordfeminine" unicode="&#xaa;" horiz-adv-x="697" 
d="M45 740h632v-100h-632v100zM360 1375q-38 0 -78 -20.5t-72 -74.5q-17 -28 -26 -69.5t-9 -85.5q0 -50 9.5 -85t25.5 -57.5t35.5 -32.5t39.5 -10q25 0 54.5 15.5t57.5 41t52.5 59t40.5 69.5v225q-18 8 -53 16.5t-77 8.5zM600 1170q0 -114 12.5 -191.5t32.5 -128.5h-105
q-3 7 -7.5 21.5t-9.5 33t-10 39t-8 41.5q-23 -30 -49.5 -57t-56 -47.5t-60.5 -33t-64 -12.5q-38 0 -75.5 16t-67.5 48t-48.5 81t-18.5 115q0 69 14.5 125t40.5 100q47 78 110 116.5t155 38.5q23 0 50 -3.5t55.5 -9.5t57 -14t52.5 -18v-260z" />
    <glyph glyph-name="ordmasculine" unicode="&#xba;" horiz-adv-x="680" 
d="M165 1155q0 -53 13 -94.5t36 -70.5t55 -44.5t71 -15.5q36 0 68 15.5t56 44.5t37.5 70.5t13.5 94.5t-13 94.5t-36 70.5t-55 44.5t-71 15.5q-36 0 -68 -15.5t-56 -44.5t-37.5 -70.5t-13.5 -94.5zM55 1155q0 78 23 137.5t62.5 100t92.5 61.5t112 21q62 0 113.5 -21
t88.5 -61.5t57.5 -100t20.5 -137.5q0 -77 -23 -137t-62.5 -100.5t-92.5 -61.5t-112 -21q-62 0 -113 21t-88.5 61.5t-58 100.5t-20.5 137zM45 740h590v-100h-590v100z" />
    <glyph glyph-name="Omega" unicode="&#x2126;" horiz-adv-x="1588" 
d="M983 165q47 45 100 107t98 138.5t74.5 168t29.5 196.5q0 132 -37 232.5t-103 167.5t-155.5 101t-194.5 34q-99 0 -184.5 -36t-147.5 -102.5t-97.5 -161t-35.5 -210.5q0 -107 24.5 -198.5t63.5 -170t88 -144.5t99 -122v-165h-535v180q21 -4 58.5 -6.5t85 -4.5t102.5 -3
t112 -1q-51 48 -103.5 110t-94.5 138t-68.5 166.5t-26.5 195.5q0 171 55.5 303t148.5 222.5t214 137.5t252 47q132 0 254 -44t215.5 -129.5t149.5 -211.5t56 -290q0 -119 -30 -216.5t-78 -176.5t-106.5 -141t-115.5 -111q58 0 115 1t105.5 3t87 4.5t60.5 6.5v-180h-535v165z
" />
    <glyph glyph-name="ae" unicode="&#xe6;" horiz-adv-x="1745" 
d="M1230 890q-110 0 -187.5 -64.5t-102.5 -200.5h520q0 64 -18.5 113.5t-50 83.5t-73 51t-88.5 17zM755 485q-19 -1 -53 -2t-72 -2.5t-74.5 -4t-60.5 -6.5q-63 -11 -104 -29.5t-66 -42.5t-35 -54t-10 -64q0 -30 12.5 -55.5t35 -44t53.5 -29.5t69 -11t75 6.5t74 26t75.5 56
t80.5 96.5q5 6 9 11.5t6 13.5q-7 31 -11 65t-4 70zM1245 1040q77 0 136.5 -19.5t103.5 -53.5t73.5 -80t48 -99t26 -110t7.5 -113v-80h-710q3 -88 29.5 -153t70.5 -107.5t103 -63.5t127 -21q48 0 94 5t91 17t89.5 31t90.5 47l20 -165q-53 -27 -102 -46t-98.5 -31
t-100.5 -17.5t-109 -5.5q-62 0 -120.5 14t-111 41.5t-96.5 69t-77 96.5l-22.5 -25.5l-22.5 -25.5q-44 -47 -89.5 -79.5t-91 -52.5t-92 -29t-92.5 -9q-71 0 -130.5 23t-102.5 61.5t-67.5 89t-24.5 106.5q0 57 19 114t64 105.5t120 84.5t187 51q26 3 65.5 5.5t80 4t75 3
t49.5 2.5v85q0 45 -19.5 77.5t-54 53t-82.5 30t-104 9.5q-40 0 -74.5 -8t-69 -24t-71 -39t-80.5 -54q0 16 1 42.5l2 55t3 55t4 42.5q39 16 74 32.5t73 29t82 20.5t101 8q51 0 100.5 -11t94 -32.5t82 -54.5t63.5 -77q68 83 162 129t203 46z" />
    <glyph glyph-name="oslash" unicode="&#xf8;" horiz-adv-x="1140" 
d="M280 507q0 -78 16.5 -140.5t47.5 -110.5l326 606q-47 18 -100 18q-61 0 -114 -25.5t-92 -73.5t-61.5 -117t-22.5 -157zM860 507q0 90 -22 160t-62 118l-334 -620q55 -30 128 -30q60 0 113 25.5t92.5 73.5t62 117t22.5 156zM948 1105l-84 -155q85 -66 133 -177t48 -266
q0 -129 -39 -228.5t-105 -167t-154 -102t-187 -34.5q-55 0 -104.5 10t-94.5 29l-48 -89h-148l86 160q-74 68 -115 173.5t-41 248.5q0 129 39 228.5t105 167t154 102.5t187 35q92 0 171 -29l51 94h146z" />
    <glyph glyph-name="questiondown" unicode="&#xbf;" horiz-adv-x="1050" 
d="M662 979q0 -28 -10.5 -52.5t-28.5 -42.5t-42.5 -28.5t-52.5 -10.5t-52.5 10.5t-42.5 28.5t-28.5 42.5t-10.5 52.5t10.5 52.5t28.5 42.5t42.5 28.5t52.5 10.5t52.5 -10.5t42.5 -28.5t28.5 -42.5t10.5 -52.5zM830 -300q-25 -24 -60.5 -44t-77.5 -34.5t-88.5 -23t-93.5 -8.5
q-80 0 -147.5 18.5t-117 56t-77.5 93.5t-28 132q0 39 8 71.5t26.5 66.5t48.5 73t73 89q30 35 52.5 64.5t38 59.5t25 63.5t14.5 77t7 101t2 134.5h175q0 -123 -4.5 -207t-17.5 -143.5t-38 -103t-65 -86.5q-48 -51 -75.5 -88t-42 -65.5t-18.5 -51.5t-4 -45t9.5 -46t32 -43.5
t59.5 -32.5t92 -13q60 0 125 27t122 87z" />
    <glyph glyph-name="exclamdown" unicode="&#xa1;" horiz-adv-x="764" 
d="M227 978q0 28 10.5 52.5t28.5 42.5t42.5 28.5t52.5 10.5t52.5 -10.5t42.5 -28.5t28.5 -42.5t10.5 -52.5t-10.5 -52.5t-28.5 -42.5t-42.5 -28.5t-52.5 -10.5t-52.5 10.5t-42.5 28.5t-28.5 42.5t-10.5 52.5zM443 660l4 -228.5t6 -252.5t12 -279.5t23 -309.5h-255
q14 163 22 309.5t12 279.5t6 252.5t5 228.5h165z" />
    <glyph glyph-name="logicalnot" unicode="&#xac;" 
d="M915 340v310h-805v150h955v-460h-150z" />
    <glyph glyph-name="radical" unicode="&#x221a;" 
d="M1180 1490l-475 -1490h-85l-450 800l-120 -70l-50 95l245 140l405 -715l435 1350h240v-110h-145z" />
    <glyph glyph-name="florin" unicode="&#x192;" horiz-adv-x="730" 
d="M20 995h200v175q0 225 91.5 337.5t253.5 112.5q59 0 116 -18.5t104 -51.5l-46 -150q-38 28 -84 44t-90 16q-39 0 -69 -13.5t-50 -43.5t-30.5 -77.5t-10.5 -115.5v-215h270v-145h-270v-356q0 -146 -1 -267t-1 -202q0 -140 -26.5 -235t-75 -152.5t-118 -82.5t-154.5 -25
q-21 0 -49.5 4.5t-58.5 12.5t-59.5 20.5t-51.5 27.5l35 165q16 -12 40.5 -23t51.5 -19.5t53.5 -13t47.5 -4.5q40 0 73.5 15.5t57.5 48.5t37.5 85t13.5 126v875h-200v145z" />
    <glyph glyph-name="approxequal" unicode="&#x2248;" 
d="M1090 900q-24 -30 -57 -54t-69.5 -41t-76 -26t-77.5 -9q-35 0 -73.5 9.5t-78.5 24t-80 31.5l-77 31.5t-70.5 24t-60.5 9.5q-63 0 -130 -37.5t-130 -112.5v165q21 29 53.5 53t70 41t78 26.5t78.5 9.5q35 0 73.5 -9.5t78.5 -24t80 -31.5l77 -31.5t70.5 -24t60.5 -9.5
q63 0 130 37.5t130 112.5v-165zM1090 530q-24 -30 -57 -54t-69.5 -41t-76 -26t-77.5 -9q-35 0 -73.5 9.5t-78.5 24t-80 31.5l-77 31.5t-70.5 24t-60.5 9.5q-63 0 -130 -37.5t-130 -112.5v165q21 29 53.5 53t70 41t78 26.5t78.5 9.5q35 0 73.5 -9.5t78.5 -24t80 -31.5
l77 -31.5t70.5 -24t60.5 -9.5q63 0 130 37.5t130 112.5v-165z" />
    <glyph glyph-name="Delta" unicode="&#x2206;" horiz-adv-x="1288" 
d="M655 1095l-435 -945h815zM0 0l685 1485l605 -1485h-1290z" />
    <glyph glyph-name="guillemotleft" unicode="&#xab;" horiz-adv-x="1300" 
d="M1003 0l-438 512l435 508h185l-390 -508l390 -512h-182zM513 0l-438 512l435 508h185l-390 -508l390 -512h-182z" />
    <glyph glyph-name="guillemotright" unicode="&#xbb;" horiz-adv-x="1300" 
d="M115 0l390 512l-390 508h185l435 -508l-438 -512h-182zM605 0l390 512l-390 508h185l435 -508l-438 -512h-182z" />
    <glyph glyph-name="ellipsis" unicode="&#x2026;" horiz-adv-x="1724" 
d="M1271 109q0 28 10.5 52.5t28.5 42.5t42.5 28.5t52.5 10.5t52.5 -10.5t42.5 -28.5t28.5 -42.5t10.5 -52.5t-10.5 -52.5t-28.5 -42.5t-42.5 -28.5t-52.5 -10.5t-52.5 10.5t-42.5 28.5t-28.5 42.5t-10.5 52.5zM728 109q0 28 10.5 52.5t28.5 42.5t42.5 28.5t52.5 10.5
t52.5 -10.5t42.5 -28.5t28.5 -42.5t10.5 -52.5t-10.5 -52.5t-28.5 -42.5t-42.5 -28.5t-52.5 -10.5t-52.5 10.5t-42.5 28.5t-28.5 42.5t-10.5 52.5zM185 109q0 28 10.5 52.5t28.5 42.5t42.5 28.5t52.5 10.5t52.5 -10.5t42.5 -28.5t28.5 -42.5t10.5 -52.5t-10.5 -52.5
t-28.5 -42.5t-42.5 -28.5t-52.5 -10.5t-52.5 10.5t-42.5 28.5t-28.5 42.5t-10.5 52.5z" />
    <glyph glyph-name="uni00A0" unicode="&#xa0;" horiz-adv-x="1024" 
 />
    <glyph glyph-name="Agrave" unicode="&#xc0;" horiz-adv-x="1395" 
d="M433 540h507l-255 725zM994 385h-615l-134 -385h-205l27 63l30.5 74.5l36.5 94.5l46 123l400 1105h215l400 -1105l45 -123l37 -94.5l31 -74.5l27 -63h-205zM527 2030l350 -430h-160l-420 430h230z" />
    <glyph glyph-name="Atilde" unicode="&#xc3;" horiz-adv-x="1395" 
d="M433 540h507l-255 725zM994 385h-615l-134 -385h-205l27 63l30.5 74.5l36.5 94.5l46 123l400 1105h215l400 -1105l45 -123l37 -94.5l31 -74.5l27 -63h-205zM332 1635q0 46 13.5 90.5t38 80t60 57.5t80.5 22q21 0 41 -4t40.5 -11.5t43 -17t48.5 -19.5l48.5 -20t40 -15
t34.5 -9.5t32 -3.5q35 0 57.5 25t27.5 60h105q0 -48 -13.5 -93t-39 -80t-62.5 -56t-83 -21q-40 0 -80.5 13.5t-86.5 34.5q-58 27 -92.5 39.5t-62.5 12.5q-37 0 -59 -24t-26 -61h-105z" />
    <glyph glyph-name="Otilde" unicode="&#xd5;" horiz-adv-x="1460" 
d="M1340 740q0 -180 -53.5 -322t-142 -240.5t-201.5 -150.5t-233 -52q-121 0 -232 49t-196 144t-136 233.5t-51 318.5q0 120 24.5 223t68 188t103.5 151t130.5 111t149 68.5t159.5 23.5q119 0 229.5 -49t195 -144t135 -233.5t50.5 -318.5zM1145 715q0 138 -30.5 248.5
t-86.5 187.5t-134.5 118t-173.5 41t-174 -39.5t-136 -113t-88.5 -178t-31.5 -234.5q0 -137 30.5 -247t87 -187.5t135.5 -119t177 -41.5q92 0 170 38.5t134.5 111t88.5 177.5t32 238zM362 1635q0 46 13.5 90.5t38 80t60 57.5t80.5 22q21 0 41 -4t40.5 -11.5t43 -17
t48.5 -19.5l48.5 -20t40 -15t34.5 -9.5t32 -3.5q35 0 57.5 25t27.5 60h105q0 -48 -13.5 -93t-39 -80t-62.5 -56t-83 -21q-40 0 -80.5 13.5t-86.5 34.5q-58 27 -92.5 39.5t-62.5 12.5q-37 0 -59 -24t-26 -61h-105z" />
    <glyph glyph-name="OE" unicode="&#x152;" horiz-adv-x="1950" 
d="M1075 715q0 138 -26 248.5t-76.5 187.5t-124 118t-168.5 41q-87 0 -159 -39.5t-123.5 -113t-79.5 -178t-28 -234.5q0 -137 27 -247t78 -187.5t123 -119t162 -41.5q92 0 165 38.5t124 111t78.5 177.5t27.5 238zM1063 165q-39 -43 -84.5 -78t-95.5 -60t-103.5 -38.5
t-109.5 -13.5q-117 0 -221.5 49t-183 144t-124.5 233.5t-46 318.5t49 322t131 240.5t190 150.5t225 52q61 0 114.5 -14t100 -39t86 -59.5t72.5 -76.5q-1 20 -2 44t-3 46.5t-4 42t-4 31.5h750v-165h-545v-450h470v-160h-470v-520h164q149 0 250 2t161 13v-180h-780q5 27 8 72
t5 93z" />
    <glyph glyph-name="oe" unicode="&#x153;" horiz-adv-x="1860" 
d="M95 507q0 129 39 228.5t105 167t154 102.5t187 35q122 0 218.5 -48.5t157.5 -142.5q63 91 159.5 141t224.5 50q82 0 145 -19.5t109 -54t77 -80.5t49.5 -99t26.5 -110.5t8 -113.5v-39q0 -25 -1 -39h-709q3 -88 27.5 -153t67 -107.5t100 -63.5t125.5 -21q97 0 190 22
t185 78l20 -165q-53 -27 -104 -46t-102 -31t-103.5 -17.5t-110.5 -5.5q-59 0 -114.5 12.5t-105.5 37t-93.5 61.5t-76.5 86q-67 -97 -169 -147t-221 -50q-103 0 -188.5 34.5t-147 102t-95.5 167t-34 228.5zM280 507q0 -87 21 -156t59.5 -117t91.5 -73.5t118 -25.5
q60 0 113 25.5t92.5 73.5t62 117t22.5 156q0 88 -21 157t-59.5 117t-92 73.5t-117.5 25.5q-61 0 -114 -25.5t-92 -73.5t-61.5 -117t-22.5 -157zM1325 890q-110 0 -180 -64.5t-92 -200.5h522q0 64 -18.5 113.5t-52 83.5t-79.5 51t-100 17z" />
    <glyph glyph-name="endash" unicode="&#x2013;" horiz-adv-x="1055" 
d="M80 705h895v-150h-895v150z" />
    <glyph glyph-name="emdash" unicode="&#x2014;" horiz-adv-x="1735" 
d="M80 705h1575v-150h-1575v150z" />
    <glyph glyph-name="quotedblleft" unicode="&#x201c;" horiz-adv-x="1050" 
d="M485 1165q-5 -24 -18.5 -42.5t-32.5 -31t-41 -19.5t-43 -7q-30 0 -56.5 11.5t-46 33t-31 52t-11.5 68.5q0 92 43.5 182t131.5 173l100 -40q-22 -22 -45.5 -54t-43.5 -69.5t-33 -78t-13 -78.5h140v-100zM915 1165q-5 -24 -18.5 -42.5t-32.5 -31t-41 -19.5t-43 -7
q-30 0 -56.5 11.5t-46 33t-31 52t-11.5 68.5q0 92 43.5 182t131.5 173l100 -40q-22 -22 -45.5 -54t-43.5 -69.5t-33 -78t-13 -78.5h140v-100z" />
    <glyph glyph-name="quotedblright" unicode="&#x201d;" horiz-adv-x="1010" 
d="M635 1485q5 24 18.5 42.5t32.5 31t41 19.5t43 7q30 0 56.5 -11.5t46 -33t31 -52t11.5 -68.5q0 -92 -43.5 -182t-131.5 -173l-100 40q22 22 45.5 54t43.5 69.5t33 78t13 78.5h-140v100zM205 1485q5 24 18.5 42.5t32.5 31t41 19.5t43 7q30 0 56.5 -11.5t46 -33t31 -52
t11.5 -68.5q0 -92 -43.5 -182t-131.5 -173l-100 40q22 22 45.5 54t43.5 69.5t33 78t13 78.5h-140v100z" />
    <glyph glyph-name="quoteleft" unicode="&#x2018;" horiz-adv-x="530" 
d="M435 1165q-5 -24 -18.5 -42.5t-32.5 -31t-41 -19.5t-43 -7q-30 0 -56.5 11.5t-46 33t-31 52t-11.5 68.5q0 92 43.5 182t131.5 173l100 -40q-22 -22 -45.5 -54t-43.5 -69.5t-33 -78t-13 -78.5h140v-100z" />
    <glyph glyph-name="quoteright" unicode="&#x2019;" horiz-adv-x="545" 
d="M165 1485q5 24 18.5 42.5t32.5 31t41 19.5t43 7q30 0 56.5 -11.5t46 -33t31 -52t11.5 -68.5q0 -92 -43.5 -182t-131.5 -173l-100 40q22 22 45.5 54t43.5 69.5t33 78t13 78.5h-140v100z" />
    <glyph glyph-name="divide" unicode="&#xf7;" 
d="M155 800h890v-150h-890v150zM458 1045q0 28 11.5 53.5t31 44.5t45 30t54.5 11q28 0 53 -11t44 -30t29.5 -44.5t10.5 -53.5q0 -29 -10.5 -54t-29.5 -44t-44 -30t-53 -11q-29 0 -54.5 11t-45 30t-31 44t-11.5 54zM458 407q0 28 11.5 53.5t31 44t45 29.5t54.5 11
q28 0 53 -11t44 -29.5t29.5 -44t10.5 -53.5q0 -29 -10.5 -54t-29.5 -44.5t-44 -30.5t-53 -11q-29 0 -54.5 11t-45 30.5t-31 44.5t-11.5 54z" />
    <glyph glyph-name="lozenge" unicode="&#x25ca;" horiz-adv-x="1025" 
d="M515 1455l-325 -630l325 -680l320 680zM575 0h-125l-415 825l415 775h125l420 -775z" />
    <glyph glyph-name="ydieresis" unicode="&#xff;" horiz-adv-x="1060" 
d="M655 0q-52 -144 -102 -235t-101.5 -143.5t-107 -72t-119.5 -19.5q-69 0 -129.5 22t-115.5 63l60 160q16 -13 37.5 -26.5t46 -24t50.5 -17.5t51 -7q30 0 59 10.5t58.5 40t60.5 83t66 140.5l-279 691l-65 153t-95 202h200l323 -817l41.5 117.5l46.5 131l48 136l46 131.5
l105 301h200l-47 -107.5l-39 -93l-32.5 -81.5t-26.5 -73zM198 1345q0 28 9.5 52.5t26.5 43t40 29t51 10.5t51.5 -10.5t40.5 -29t26.5 -43t9.5 -52.5t-9.5 -52.5t-26.5 -43t-40.5 -29t-51.5 -10.5t-51 10.5t-40 29t-26.5 43t-9.5 52.5zM618 1345q0 28 9.5 52.5t26.5 43t40 29
t51 10.5t51.5 -10.5t40.5 -29t26.5 -43t9.5 -52.5t-9.5 -52.5t-26.5 -43t-40.5 -29t-51.5 -10.5t-51 10.5t-40 29t-26.5 43t-9.5 52.5z" />
    <glyph glyph-name="Ydieresis" unicode="&#x178;" horiz-adv-x="1320" 
d="M265 1460l395 -661l375 661h230l-78 -114.5l-62.5 -97.5l-55 -90l-54.5 -93l-270 -462v-168q0 -148 2 -261.5t13 -173.5h-220q11 60 13 173.5t2 261.5v176l-265 454l-56.5 96l-57.5 95t-64.5 98l-76.5 106h230zM313 1775q0 28 9.5 52.5t26.5 43t40 29t51 10.5t51.5 -10.5
t40.5 -29t26.5 -43t9.5 -52.5t-9.5 -52.5t-26.5 -43t-40.5 -29t-51.5 -10.5t-51 10.5t-40 29t-26.5 43t-9.5 52.5zM733 1775q0 28 9.5 52.5t26.5 43t40 29t51 10.5t51.5 -10.5t40.5 -29t26.5 -43t9.5 -52.5t-9.5 -52.5t-26.5 -43t-40.5 -29t-51.5 -10.5t-51 10.5t-40 29
t-26.5 43t-9.5 52.5z" />
    <glyph glyph-name="fraction" unicode="&#x2044;" 
d="M1190 1600l-1029 -1845h-151l1030 1845h150z" />
    <glyph glyph-name="currency" unicode="&#xa4;" 
d="M905 877q0 64 -23 119.5t-63 96.5t-95.5 65t-119.5 24q-67 0 -123.5 -23t-98 -64t-65 -97.5t-23.5 -123.5q0 -66 23.5 -122t65.5 -96.5t98.5 -63.5t122.5 -23q65 0 120.5 24t95.5 65.5t62.5 97.5t22.5 121zM1069 318l-211 211q-56 -45 -119.5 -68.5t-134.5 -23.5
q-77 0 -141 23t-121 69l-211 -211l-94 93l211 211q-42 56 -63.5 118t-21.5 134t21.5 139.5t67.5 121.5l-215 215l94 94l215 -215q55 41 120.5 63t137.5 22q71 0 133 -23t115 -64l217 217l94 -94l-213 -213q39 -54 63 -121t24 -139q0 -143 -85 -255l211 -211z" />
    <glyph glyph-name="guilsinglleft" unicode="&#x2039;" horiz-adv-x="790" 
d="M513 0l-438 512l435 508h165l-370 -508l370 -512h-162z" />
    <glyph glyph-name="guilsinglright" unicode="&#x203a;" horiz-adv-x="790" 
d="M75 0l370 512l-370 508h165l435 -508l-438 -512h-162z" />
    <glyph glyph-name="fi" unicode="&#xfb01;" horiz-adv-x="1215" 
d="M805 1345q0 28 9.5 52.5t26.5 43t40 29t51 10.5t51.5 -10.5t40.5 -29t26.5 -43t9.5 -52.5t-9.5 -52.5t-26.5 -43t-40.5 -29t-51.5 -10.5t-51 10.5t-40 29t-26.5 43t-9.5 52.5zM220 995v175q0 225 91.5 337.5t253.5 112.5q59 0 116 -18.5t104 -51.5l-46 -150
q-38 28 -84 44t-90 16q-39 0 -69 -13.5t-50 -43.5t-30.5 -77.5t-10.5 -115.5v-215h620v-520q0 -48 1.5 -113.5t4 -132.5t6 -128t8.5 -101h-205v850h-435v-356q0 -73 1.5 -144.5t5 -136t9.5 -119.5t14 -94h-215v850h-200v145h200z" />
    <glyph glyph-name="fl" unicode="&#xfb02;" horiz-adv-x="1215" 
d="M20 995h200v145q0 124 30 214.5t83 149.5t125 87.5t157 28.5q63 0 120 -14t106 -39h184v-1092q0 -48 1.5 -113t4 -132t6 -128t8.5 -102h-205v1391q-52 38 -107 53.5t-118 15.5q-39 0 -76.5 -14t-67.5 -47.5t-48 -89t-18 -137.5v-177h220v-145h-220v-356q0 -73 1.5 -144.5
t5 -136t9.5 -119.5t14 -94h-215v850h-200v145z" />
    <glyph glyph-name="daggerdbl" unicode="&#x2021;" horiz-adv-x="1024" 
d="M435 325v590q-43 0 -87.5 -1t-93.5 -2.5t-104 -3t-120 -4.5v165q64 -3 119.5 -5t104 -2.5l93 -1t87.5 -0.5q-2 115 -6 232.5t-13 217.5h195q-10 -100 -13.5 -217.5t-5.5 -232.5q51 0 95 0.5l90 1t98.5 2.5t120.5 5v-165q-66 3 -121.5 4.5t-104 3t-92.5 2.5t-87 1v-590
q51 0 95 0.5l90.5 1t99 2.5t120.5 5v-165q-66 3 -121 4.5t-103.5 3t-92.5 2.5t-87 1q2 -108 6 -215.5t13 -199.5h-195q8 92 12 199.5t6 215.5q-43 0 -87 -1t-93 -2.5t-104 -3t-119 -4.5v165q65 -3 120 -5t104 -2.5t93.5 -1t87.5 -0.5z" />
    <glyph glyph-name="periodcentered" unicode="&#xb7;" horiz-adv-x="679" 
d="M205 709q0 28 10.5 52.5t28.5 42.5t42.5 28.5t52.5 10.5t52.5 -10.5t42.5 -28.5t28.5 -42.5t10.5 -52.5t-10.5 -52.5t-28.5 -42.5t-42.5 -28.5t-52.5 -10.5t-52.5 10.5t-42.5 28.5t-28.5 42.5t-10.5 52.5z" />
    <glyph glyph-name="quotesinglbase" unicode="&#x201a;" horiz-adv-x="760" 
d="M265 150q5 24 18.5 42.5t32.5 31t41 19.5t43 7q30 0 56.5 -11.5t46 -33t31 -52t11.5 -68.5q0 -92 -43.5 -182t-131.5 -173l-100 40q22 22 45.5 54t43.5 69.5t33 78t13 78.5h-140v100z" />
    <glyph glyph-name="quotedblbase" unicode="&#x201e;" horiz-adv-x="990" 
d="M645 150q5 24 18.5 42.5t32.5 31t41 19.5t43 7q30 0 56.5 -11.5t46 -33t31 -52t11.5 -68.5q0 -92 -43.5 -182t-131.5 -173l-100 40q22 22 45.5 54t43.5 69.5t33 78t13 78.5h-140v100zM215 150q5 24 18.5 42.5t32.5 31t41 19.5t43 7q30 0 56.5 -11.5t46 -33t31 -52
t11.5 -68.5q0 -92 -43.5 -182t-131.5 -173l-100 40q22 22 45.5 54t43.5 69.5t33 78t13 78.5h-140v100z" />
    <glyph glyph-name="perthousand" unicode="&#x2030;" horiz-adv-x="2201" 
d="M2101 379q0 -111 -22.5 -188t-62 -125t-94.5 -69.5t-121 -21.5t-119.5 21.5t-91.5 69t-58.5 122t-20.5 180.5t22 182t62 125t95 72t120 23q66 0 119.5 -22.5t91.5 -70.5t59 -122t21 -176zM1936 366q0 75 -7.5 125.5t-23.5 81.5t-41 44t-59 13q-33 0 -57 -13t-40 -42.5
t-24 -77t-8 -116.5q0 -75 7.5 -126t23.5 -82t40.5 -44.5t57.5 -13.5q32 0 56.5 13.5t41 43t25 77.5t8.5 117zM690 1089q0 -111 -22.5 -188t-62 -125t-94.5 -69.5t-121 -21.5t-119.5 21.5t-91.5 69t-58.5 122t-20.5 180.5t22 182t62 125t95 72t120 23q66 0 119.5 -22.5
t91.5 -70.5t59 -122t21 -176zM525 1076q0 75 -7.5 125.5t-23.5 81.5t-41 44t-59 13q-33 0 -57 -13t-40 -42.5t-24 -77t-8 -116.5q0 -75 7.5 -126t23.5 -82t40.5 -44.5t57.5 -13.5q32 0 56.5 13.5t41 43t25 77.5t8.5 117zM1239 1480l-780 -1505h-168l782 1505h166zM1426 379
q0 -111 -22.5 -188t-62 -125t-94.5 -69.5t-121 -21.5t-119.5 21.5t-91.5 69t-58.5 122t-20.5 180.5t22 182t62 125t95 72t120 23q66 0 119.5 -22.5t91.5 -70.5t59 -122t21 -176zM1261 366q0 75 -7.5 125.5t-23.5 81.5t-41 44t-59 13q-33 0 -57 -13t-40 -42.5t-24 -77
t-8 -116.5q0 -75 7.5 -126t23.5 -82t40.5 -44.5t57.5 -13.5q32 0 56.5 13.5t41 43t25 77.5t8.5 117z" />
    <glyph glyph-name="Acircumflex" unicode="&#xc2;" horiz-adv-x="1395" 
d="M433 540h507l-255 725zM994 385h-615l-134 -385h-205l27 63l30.5 74.5l36.5 94.5l46 123l400 1105h215l400 -1105l45 -123l37 -94.5l31 -74.5l27 -63h-205zM262 1600l340 430h170l340 -430h-150l-275 280l-275 -280h-150z" />
    <glyph glyph-name="Ecircumflex" unicode="&#xca;" horiz-adv-x="1160" 
d="M935 845v-160h-570v-520h264q149 0 250 2t161 13v-180h-880q11 60 13 173.5t2 261.5v590q0 148 -2 261.5t-13 173.5h850v-165h-645v-450h570zM175 1600l340 430h170l340 -430h-150l-275 280l-275 -280h-150z" />
    <glyph glyph-name="Aacute" unicode="&#xc1;" horiz-adv-x="1395" 
d="M433 540h507l-255 725zM994 385h-615l-134 -385h-205l27 63l30.5 74.5l36.5 94.5l46 123l400 1105h215l400 -1105l45 -123l37 -94.5l31 -74.5l27 -63h-205zM1087 2030l-420 -430h-160l350 430h230z" />
    <glyph glyph-name="Edieresis" unicode="&#xcb;" horiz-adv-x="1160" 
d="M935 845v-160h-570v-520h264q149 0 250 2t161 13v-180h-880q11 60 13 173.5t2 261.5v590q0 148 -2 261.5t-13 173.5h850v-165h-645v-450h570zM263 1775q0 28 9.5 52.5t26.5 43t40 29t51 10.5t51.5 -10.5t40.5 -29t26.5 -43t9.5 -52.5t-9.5 -52.5t-26.5 -43t-40.5 -29
t-51.5 -10.5t-51 10.5t-40 29t-26.5 43t-9.5 52.5zM683 1775q0 28 9.5 52.5t26.5 43t40 29t51 10.5t51.5 -10.5t40.5 -29t26.5 -43t9.5 -52.5t-9.5 -52.5t-26.5 -43t-40.5 -29t-51.5 -10.5t-51 10.5t-40 29t-26.5 43t-9.5 52.5z" />
    <glyph glyph-name="Egrave" unicode="&#xc8;" horiz-adv-x="1160" 
d="M935 845v-160h-570v-520h264q149 0 250 2t161 13v-180h-880q11 60 13 173.5t2 261.5v590q0 148 -2 261.5t-13 173.5h850v-165h-645v-450h570zM440 2030l350 -430h-160l-420 430h230z" />
    <glyph glyph-name="Iacute" unicode="&#xcd;" horiz-adv-x="975" 
d="M815 1460v-145h-245v-1170h245v-145h-675v145h240v1170h-240v145h675zM877 2030l-420 -430h-160l350 430h230z" />
    <glyph glyph-name="Icircumflex" unicode="&#xce;" horiz-adv-x="975" 
d="M815 1460v-145h-245v-1170h245v-145h-675v145h240v1170h-240v145h675zM52 1600l340 430h170l340 -430h-150l-275 280l-275 -280h-150z" />
    <glyph glyph-name="Idieresis" unicode="&#xcf;" horiz-adv-x="975" 
d="M815 1460v-145h-245v-1170h245v-145h-675v145h240v1170h-240v145h675zM140 1775q0 28 9.5 52.5t26.5 43t40 29t51 10.5t51.5 -10.5t40.5 -29t26.5 -43t9.5 -52.5t-9.5 -52.5t-26.5 -43t-40.5 -29t-51.5 -10.5t-51 10.5t-40 29t-26.5 43t-9.5 52.5zM560 1775
q0 28 9.5 52.5t26.5 43t40 29t51 10.5t51.5 -10.5t40.5 -29t26.5 -43t9.5 -52.5t-9.5 -52.5t-26.5 -43t-40.5 -29t-51.5 -10.5t-51 10.5t-40 29t-26.5 43t-9.5 52.5z" />
    <glyph glyph-name="Igrave" unicode="&#xcc;" horiz-adv-x="975" 
d="M815 1460v-145h-245v-1170h245v-145h-675v145h240v1170h-240v145h675zM317 2030l350 -430h-160l-420 430h230z" />
    <glyph glyph-name="Oacute" unicode="&#xd3;" horiz-adv-x="1460" 
d="M1340 740q0 -180 -53.5 -322t-142 -240.5t-201.5 -150.5t-233 -52q-121 0 -232 49t-196 144t-136 233.5t-51 318.5q0 120 24.5 223t68 188t103.5 151t130.5 111t149 68.5t159.5 23.5q119 0 229.5 -49t195 -144t135 -233.5t50.5 -318.5zM1145 715q0 138 -30.5 248.5
t-86.5 187.5t-134.5 118t-173.5 41t-174 -39.5t-136 -113t-88.5 -178t-31.5 -234.5q0 -137 30.5 -247t87 -187.5t135.5 -119t177 -41.5q92 0 170 38.5t134.5 111t88.5 177.5t32 238zM1117 2030l-420 -430h-160l350 430h230z" />
    <glyph glyph-name="Ocircumflex" unicode="&#xd4;" horiz-adv-x="1460" 
d="M1340 740q0 -180 -53.5 -322t-142 -240.5t-201.5 -150.5t-233 -52q-121 0 -232 49t-196 144t-136 233.5t-51 318.5q0 120 24.5 223t68 188t103.5 151t130.5 111t149 68.5t159.5 23.5q119 0 229.5 -49t195 -144t135 -233.5t50.5 -318.5zM1145 715q0 138 -30.5 248.5
t-86.5 187.5t-134.5 118t-173.5 41t-174 -39.5t-136 -113t-88.5 -178t-31.5 -234.5q0 -137 30.5 -247t87 -187.5t135.5 -119t177 -41.5q92 0 170 38.5t134.5 111t88.5 177.5t32 238zM292 1600l340 430h170l340 -430h-150l-275 280l-275 -280h-150z" />
    <glyph glyph-name="uni25CC" unicode="&#x25cc;" horiz-adv-x="1106" 
d="M506 868q0 20 13.5 34t33.5 14t34 -14t14 -34t-14 -33.5t-34 -13.5t-33.5 13.5t-13.5 33.5zM506 47q0 20 13.5 34t33.5 14t34 -14t14 -34t-14 -33.5t-34 -13.5t-33.5 13.5t-13.5 33.5zM666 855q6 14 18 22t26 8q20 0 34 -15t14 -34q0 -20 -15 -33.5t-33 -13.5
q-20 0 -33.5 15.5t-13.5 33.5q0 8 3 17zM352 96q6 14 19.5 22t25.5 8q20 0 33.5 -15t13.5 -33q0 -20 -15 -33.5t-33 -13.5q-20 0 -34 15t-14 32q0 5 1 9t3 9zM809 782q16 14 34 14q20 0 33.5 -14t13.5 -34t-13.5 -34t-33.5 -14t-33.5 15t-13.5 33q0 19 13 34zM229 200
q15 15 32 15q21 0 35 -13.5t14 -33.5q0 -19 -13.5 -33.5t-33.5 -14.5q-19 0 -33.5 14.5t-14.5 33.5q0 18 14 32zM914 659q5 2 9 3t9 1q18 0 33 -14t15 -34q0 -18 -14 -33t-35 -15q-18 0 -32 13.5t-14 33.5q0 14 7.5 26.5t21.5 18.5zM155 344q8 4 19 4q20 0 34 -13t14 -33
q0 -19 -14 -34t-34 -15q-19 0 -33.5 14.5t-14.5 34.5q0 14 7.5 25.5t21.5 16.5zM963 506q20 0 34 -14t14 -34q0 -19 -13.5 -33t-33.5 -14h-4q-18 0 -31.5 14t-13.5 32q0 20 15 33.5t33 15.5zM142 505q19 0 34 -13.5t15 -32.5q0 -20 -15 -34.5t-33 -14.5q-21 0 -34.5 14.5
t-13.5 33.5q0 20 13.5 33.5t33.5 13.5zM950 345q14 -6 22 -18t8 -26q0 -20 -14.5 -33.5t-33.5 -13.5q-23 0 -35.5 14.5t-12.5 32.5q0 23 15.5 35t33.5 12q9 0 17 -3zM191 659q14 -6 22.5 -19t8.5 -27q0 -20 -15.5 -33t-33.5 -13q-21 0 -34 15t-13 33q0 20 14.5 34t32.5 14
q5 0 9 -1t9 -3zM877 202q14 -14 14 -34q0 -19 -13.5 -33t-34.5 -14q-20 0 -34 14t-14 33q0 20 13 33.5t33 13.5t36 -13zM295 782q15 -13 15 -33q0 -22 -13 -35t-34 -13q-20 0 -34 13.5t-14 32.5q0 20 14 34.5t33 14.5t33 -14zM754 97q2 -5 3 -9t1 -9q0 -18 -14 -33t-34 -15
q-18 0 -33 14t-15 35q0 17 13 32t32 15q14 0 27 -8t20 -22zM439 856q4 -8 4 -19q0 -19 -12.5 -33.5t-32.5 -14.5t-35 13.5t-15 34.5q0 18 14.5 33t34.5 15q14 0 25 -7.5t17 -21.5z" />
    <glyph glyph-name="Ograve" unicode="&#xd2;" horiz-adv-x="1460" 
d="M1340 740q0 -180 -53.5 -322t-142 -240.5t-201.5 -150.5t-233 -52q-121 0 -232 49t-196 144t-136 233.5t-51 318.5q0 120 24.5 223t68 188t103.5 151t130.5 111t149 68.5t159.5 23.5q119 0 229.5 -49t195 -144t135 -233.5t50.5 -318.5zM1145 715q0 138 -30.5 248.5
t-86.5 187.5t-134.5 118t-173.5 41t-174 -39.5t-136 -113t-88.5 -178t-31.5 -234.5q0 -137 30.5 -247t87 -187.5t135.5 -119t177 -41.5q92 0 170 38.5t134.5 111t88.5 177.5t32 238zM557 2030l350 -430h-160l-420 430h230z" />
    <glyph glyph-name="Uacute" unicode="&#xda;" horiz-adv-x="1440" 
d="M1255 1460q-10 -60 -12.5 -169.5t-2.5 -265.5v-510q0 -122 -32 -221.5t-97.5 -170.5t-165.5 -109.5t-235 -38.5q-137 0 -237.5 38.5t-166.5 109.5t-98.5 170.5t-32.5 221.5v510q0 148 -2.5 261.5t-12.5 173.5h205v-900q0 -98 17 -176.5t57 -134t106 -85t165 -29.5
q97 0 162 29.5t104.5 85t56.5 134t17 176.5v900h205zM1107 2030l-420 -430h-160l350 430h230z" />
    <glyph glyph-name="Ucircumflex" unicode="&#xdb;" horiz-adv-x="1440" 
d="M1255 1460q-10 -60 -12.5 -169.5t-2.5 -265.5v-510q0 -122 -32 -221.5t-97.5 -170.5t-165.5 -109.5t-235 -38.5q-137 0 -237.5 38.5t-166.5 109.5t-98.5 170.5t-32.5 221.5v510q0 148 -2.5 261.5t-12.5 173.5h205v-900q0 -98 17 -176.5t57 -134t106 -85t165 -29.5
q97 0 162 29.5t104.5 85t56.5 134t17 176.5v900h205zM282 1600l340 430h170l340 -430h-150l-275 280l-275 -280h-150z" />
    <glyph glyph-name="Ugrave" unicode="&#xd9;" horiz-adv-x="1440" 
d="M1255 1460q-10 -60 -12.5 -169.5t-2.5 -265.5v-510q0 -122 -32 -221.5t-97.5 -170.5t-165.5 -109.5t-235 -38.5q-137 0 -237.5 38.5t-166.5 109.5t-98.5 170.5t-32.5 221.5v510q0 148 -2.5 261.5t-12.5 173.5h205v-900q0 -98 17 -176.5t57 -134t106 -85t165 -29.5
q97 0 162 29.5t104.5 85t56.5 134t17 176.5v900h205zM547 2030l350 -430h-160l-420 430h230z" />
    <glyph glyph-name="dotlessi" unicode="&#x131;" horiz-adv-x="530" 
d="M355 475q0 -48 1.5 -113.5t4 -132.5t6 -128t8.5 -101h-205v530q0 73 -0.5 144t-2 134.5t-4.5 118t-8 93.5h200v-545z" />
    <glyph glyph-name="circumflex" unicode="&#x2c6;" horiz-adv-x="870" 
d="M10 1170l340 430h170l340 -430h-150l-275 280l-275 -280h-150z" />
    <glyph glyph-name="tilde" unicode="&#x2dc;" horiz-adv-x="710" 
d="M0 1205q0 46 13.5 90.5t38 80t60 57.5t80.5 22q21 0 41 -4t40.5 -11.5t43 -17t48.5 -19.5l48.5 -20t40 -15t34.5 -9.5t32 -3.5q35 0 57.5 25t27.5 60h105q0 -48 -13.5 -93t-39 -80t-62.5 -56t-83 -21q-40 0 -80.5 13.5t-86.5 34.5q-58 27 -92.5 39.5t-62.5 12.5
q-37 0 -59 -24t-26 -61h-105z" />
    <glyph glyph-name="macron" unicode="&#xaf;" horiz-adv-x="710" 
d="M0 1390h710v-150h-710v150z" />
    <glyph glyph-name="breve" unicode="&#x2d8;" horiz-adv-x="750" 
d="M750 1550q0 -73 -26 -144.5t-74.5 -128.5t-118 -92t-156.5 -35q-88 0 -157.5 35t-118 92t-74 128.5t-25.5 144.5h120q6 -51 28.5 -96t56.5 -79.5t77.5 -54.5t92.5 -20t92 20t76 54.5t55 79.5t30 96h122z" />
    <glyph glyph-name="dotaccent" unicode="&#x2d9;" horiz-adv-x="270" 
d="M0 1345q0 28 10.5 52.5t29 43t43 29t52.5 10.5t52.5 -10.5t43 -29t29 -43t10.5 -52.5t-10.5 -52.5t-29 -43t-43 -29t-52.5 -10.5t-52.5 10.5t-43 29t-29 43t-10.5 52.5z" />
    <glyph glyph-name="ring" unicode="&#x2da;" horiz-adv-x="430" 
d="M0 1385q0 45 16.5 84t46 68.5t68.5 46t84 16.5t84 -16.5t68.5 -46t46 -68.5t16.5 -84t-16.5 -84t-46 -68.5t-68.5 -46t-84 -16.5t-84 16.5t-68.5 46t-46 68.5t-16.5 84zM315 1385q0 45 -27.5 72.5t-72.5 27.5t-72.5 -27.5t-27.5 -72.5t27.5 -72.5t72.5 -27.5t72.5 27.5
t27.5 72.5z" />
    <glyph glyph-name="cedilla" unicode="&#xb8;" horiz-adv-x="390" 
d="M185 2v-97q10 2 20.5 3.5t27.5 1.5q34 0 63 -12.5t50 -35t32.5 -54t11.5 -68.5q0 -51 -23 -92t-60 -69.5t-82 -43.5t-90 -15q-39 0 -71.5 11.5t-63.5 28.5l10 100q22 -16 45 -23t55 -7q22 0 45.5 5t43 17t32.5 31t14 47q-1 39 -28.5 64.5t-68.5 25.5q-24 0 -48 -7.5
t-40 -17.5v207h125z" />
    <glyph glyph-name="hungarumlaut" unicode="&#x2dd;" horiz-adv-x="790" 
d="M450 1600l-310 -450h-140l240 450h210zM790 1600l-310 -450h-140l240 450h210z" />
    <glyph glyph-name="ogonek" unicode="&#x2db;" horiz-adv-x="445" 
d="M300 2q-78 -49 -119 -96.5t-41 -100.5q0 -57 32 -88.5t88 -31.5q16 0 37 5.5t42.5 15.5t41.5 23.5t34 30.5l30 -100q-44 -44 -96.5 -67t-108.5 -23q-46 0 -89 15t-76.5 42.5t-54 65t-20.5 82.5q0 78 41 133.5t119 93.5h140z" />
    <glyph glyph-name="caron" unicode="&#x2c7;" horiz-adv-x="850" 
d="M150 1600l275 -280l275 280h150l-340 -430h-170l-340 430h150z" />
    <glyph glyph-name="uni1EAD" horiz-adv-x="1120" 
d="M765 495q-19 -1 -53 -4l-72 -6.5t-74.5 -7.5t-60.5 -7q-64 -8 -107 -25.5t-69.5 -42.5t-37.5 -56.5t-11 -65.5q0 -30 12.5 -55.5t35 -44t53.5 -29.5t69 -11t75 6.5t75.5 26t79 56t85.5 96.5v170zM950 370q0 -108 21 -197t54 -173h-180l-24 65.5t-26 89.5
q-89 -95 -185 -137.5t-190 -42.5q-71 0 -130.5 23t-102.5 61.5t-67.5 89t-24.5 106.5q0 57 19 115.5t65 108t123 85t193 46.5q26 3 65.5 6.5t80 7.5t75 7t49.5 4v75q0 91 -63.5 130.5t-176.5 39.5q-80 0 -158.5 -31.5t-166.5 -93.5q0 16 1 42.5l2 55t3 55t4 42.5l78.5 32.5
t83 29t92.5 20.5t106 8q86 0 156.5 -21.5t120 -59t76.5 -88.5t27 -111v-390zM405 -344q0 28 10.5 52.5t29 43t43 29t52.5 10.5t52.5 -10.5t43 -29t29 -43t10.5 -52.5t-10.5 -52.5t-29 -43t-43 -29t-52.5 -10.5t-52.5 10.5t-43 29t-29 43t-10.5 52.5zM115 1170l340 430h170
l340 -430h-150l-275 280l-275 -280h-150z" />
    <glyph glyph-name="uni1EA5" horiz-adv-x="1120" 
d="M765 495q-19 -1 -53 -4l-72 -6.5t-74.5 -7.5t-60.5 -7q-64 -8 -107 -25.5t-69.5 -42.5t-37.5 -56.5t-11 -65.5q0 -30 12.5 -55.5t35 -44t53.5 -29.5t69 -11t75 6.5t75.5 26t79 56t85.5 96.5v170zM950 370q0 -108 21 -197t54 -173h-180l-24 65.5t-26 89.5
q-89 -95 -185 -137.5t-190 -42.5q-71 0 -130.5 23t-102.5 61.5t-67.5 89t-24.5 106.5q0 57 19 115.5t65 108t123 85t193 46.5q26 3 65.5 6.5t80 7.5t75 7t49.5 4v75q0 91 -63.5 130.5t-176.5 39.5q-80 0 -158.5 -31.5t-166.5 -93.5q0 16 1 42.5l2 55t3 55t4 42.5l78.5 32.5
t83 29t92.5 20.5t106 8q86 0 156.5 -21.5t120 -59t76.5 -88.5t27 -111v-390zM115 1170l340 430h170l340 -430h-150l-275 280l-275 -280h-150zM940 2135l-420 -430h-160l350 430h230z" />
    <glyph glyph-name="uni1EA5.VN" horiz-adv-x="1120" 
d="M765 495q-19 -1 -53 -4l-72 -6.5t-74.5 -7.5t-60.5 -7q-64 -8 -107 -25.5t-69.5 -42.5t-37.5 -56.5t-11 -65.5q0 -30 12.5 -55.5t35 -44t53.5 -29.5t69 -11t75 6.5t75.5 26t79 56t85.5 96.5v170zM950 370q0 -108 21 -197t54 -173h-180l-24 65.5t-26 89.5
q-89 -95 -185 -137.5t-190 -42.5q-71 0 -130.5 23t-102.5 61.5t-67.5 89t-24.5 106.5q0 57 19 115.5t65 108t123 85t193 46.5q26 3 65.5 6.5t80 7.5t75 7t49.5 4v75q0 91 -63.5 130.5t-176.5 39.5q-80 0 -158.5 -31.5t-166.5 -93.5q0 16 1 42.5l2 55t3 55t4 42.5l78.5 32.5
t83 29t92.5 20.5t106 8q86 0 156.5 -21.5t120 -59t76.5 -88.5t27 -111v-390zM1084 1663l-222 -234l-67 70l198 247zM115 1170l340 430h170l340 -430h-150l-275 280l-275 -280h-150z" />
    <glyph glyph-name="uni1EA7" horiz-adv-x="1120" 
d="M765 495q-19 -1 -53 -4l-72 -6.5t-74.5 -7.5t-60.5 -7q-64 -8 -107 -25.5t-69.5 -42.5t-37.5 -56.5t-11 -65.5q0 -30 12.5 -55.5t35 -44t53.5 -29.5t69 -11t75 6.5t75.5 26t79 56t85.5 96.5v170zM950 370q0 -108 21 -197t54 -173h-180l-24 65.5t-26 89.5
q-89 -95 -185 -137.5t-190 -42.5q-71 0 -130.5 23t-102.5 61.5t-67.5 89t-24.5 106.5q0 57 19 115.5t65 108t123 85t193 46.5q26 3 65.5 6.5t80 7.5t75 7t49.5 4v75q0 91 -63.5 130.5t-176.5 39.5q-80 0 -158.5 -31.5t-166.5 -93.5q0 16 1 42.5l2 55t3 55t4 42.5l78.5 32.5
t83 29t92.5 20.5t106 8q86 0 156.5 -21.5t120 -59t76.5 -88.5t27 -111v-390zM115 1170l340 430h170l340 -430h-150l-275 280l-275 -280h-150zM380 2135l350 -430h-160l-420 430h230z" />
    <glyph glyph-name="uni1EA7.VN" horiz-adv-x="1120" 
d="M765 495q-19 -1 -53 -4l-72 -6.5t-74.5 -7.5t-60.5 -7q-64 -8 -107 -25.5t-69.5 -42.5t-37.5 -56.5t-11 -65.5q0 -30 12.5 -55.5t35 -44t53.5 -29.5t69 -11t75 6.5t75.5 26t79 56t85.5 96.5v170zM950 370q0 -108 21 -197t54 -173h-180l-24 65.5t-26 89.5
q-89 -95 -185 -137.5t-190 -42.5q-71 0 -130.5 23t-102.5 61.5t-67.5 89t-24.5 106.5q0 57 19 115.5t65 108t123 85t193 46.5q26 3 65.5 6.5t80 7.5t75 7t49.5 4v75q0 91 -63.5 130.5t-176.5 39.5q-80 0 -158.5 -31.5t-166.5 -93.5q0 16 1 42.5l2 55t3 55t4 42.5l78.5 32.5
t83 29t92.5 20.5t106 8q86 0 156.5 -21.5t120 -59t76.5 -88.5t27 -111v-390zM87 1746l198 -247l-67 -70l-222 234zM115 1170l340 430h170l340 -430h-150l-275 280l-275 -280h-150z" />
    <glyph glyph-name="uni1EAB" horiz-adv-x="1120" 
d="M765 495q-19 -1 -53 -4l-72 -6.5t-74.5 -7.5t-60.5 -7q-64 -8 -107 -25.5t-69.5 -42.5t-37.5 -56.5t-11 -65.5q0 -30 12.5 -55.5t35 -44t53.5 -29.5t69 -11t75 6.5t75.5 26t79 56t85.5 96.5v170zM950 370q0 -108 21 -197t54 -173h-180l-24 65.5t-26 89.5
q-89 -95 -185 -137.5t-190 -42.5q-71 0 -130.5 23t-102.5 61.5t-67.5 89t-24.5 106.5q0 57 19 115.5t65 108t123 85t193 46.5q26 3 65.5 6.5t80 7.5t75 7t49.5 4v75q0 91 -63.5 130.5t-176.5 39.5q-80 0 -158.5 -31.5t-166.5 -93.5q0 16 1 42.5l2 55t3 55t4 42.5l78.5 32.5
t83 29t92.5 20.5t106 8q86 0 156.5 -21.5t120 -59t76.5 -88.5t27 -111v-390zM115 1170l340 430h170l340 -430h-150l-275 280l-275 -280h-150zM185 1740q0 46 13.5 90.5t38 80t60 57.5t80.5 22q21 0 41 -4t40.5 -11.5t43 -17t48.5 -19.5l48.5 -20t40 -15t34.5 -9.5t32 -3.5
q35 0 57.5 25t27.5 60h105q0 -48 -13.5 -93t-39 -80t-62.5 -56t-83 -21q-40 0 -80.5 13.5t-86.5 34.5q-58 27 -92.5 39.5t-62.5 12.5q-37 0 -59 -24t-26 -61h-105z" />
    <glyph glyph-name="uni1EAB.VN" horiz-adv-x="1120" 
d="M765 495q-19 -1 -53 -4l-72 -6.5t-74.5 -7.5t-60.5 -7q-64 -8 -107 -25.5t-69.5 -42.5t-37.5 -56.5t-11 -65.5q0 -30 12.5 -55.5t35 -44t53.5 -29.5t69 -11t75 6.5t75.5 26t79 56t85.5 96.5v170zM950 370q0 -108 21 -197t54 -173h-180l-24 65.5t-26 89.5
q-89 -95 -185 -137.5t-190 -42.5q-71 0 -130.5 23t-102.5 61.5t-67.5 89t-24.5 106.5q0 57 19 115.5t65 108t123 85t193 46.5q26 3 65.5 6.5t80 7.5t75 7t49.5 4v75q0 91 -63.5 130.5t-176.5 39.5q-80 0 -158.5 -31.5t-166.5 -93.5q0 16 1 42.5l2 55t3 55t4 42.5l78.5 32.5
t83 29t92.5 20.5t106 8q86 0 156.5 -21.5t120 -59t76.5 -88.5t27 -111v-390zM201 1639q0 43 12.5 86t36.5 76.5t58 54.5t76 21q40 0 77 -13.5t87 -35.5q50 -23 83.5 -34.5t63.5 -11.5q34 0 55 24t26 57h100q0 -46 -13 -89t-37.5 -76t-59.5 -53t-78 -20q-38 0 -76.5 13
t-82.5 33q-55 26 -88 37.5t-59 11.5q-35 0 -56 -23t-25 -58h-100zM115 1170l340 430h170l340 -430h-150l-275 280l-275 -280h-150z" />
    <glyph glyph-name="uni1EA9" horiz-adv-x="1120" 
d="M765 495q-19 -1 -53 -4l-72 -6.5t-74.5 -7.5t-60.5 -7q-64 -8 -107 -25.5t-69.5 -42.5t-37.5 -56.5t-11 -65.5q0 -30 12.5 -55.5t35 -44t53.5 -29.5t69 -11t75 6.5t75.5 26t79 56t85.5 96.5v170zM950 370q0 -108 21 -197t54 -173h-180l-24 65.5t-26 89.5
q-89 -95 -185 -137.5t-190 -42.5q-71 0 -130.5 23t-102.5 61.5t-67.5 89t-24.5 106.5q0 57 19 115.5t65 108t123 85t193 46.5q26 3 65.5 6.5t80 7.5t75 7t49.5 4v75q0 91 -63.5 130.5t-176.5 39.5q-80 0 -158.5 -31.5t-166.5 -93.5q0 16 1 42.5l2 55t3 55t4 42.5l78.5 32.5
t83 29t92.5 20.5t106 8q86 0 156.5 -21.5t120 -59t76.5 -88.5t27 -111v-390zM115 1170l340 430h170l340 -430h-150l-275 280l-275 -280h-150zM463 1660q0 64 8.5 110.5t28.5 80.5q15 24 36 44l40.5 37.5t33 35t13.5 37.5q0 37 -28.5 58.5t-86.5 21.5q-44 0 -82 -19.5
t-68 -50.5l-25 105q32 29 81 49.5t109 20.5q46 0 87 -13.5t71.5 -36.5t48.5 -54t18 -66t-17.5 -62t-40 -49t-44.5 -40t-32 -36q-18 -32 -24.5 -71.5t-6.5 -101.5h-120z" />
    <glyph glyph-name="uni1EA9.VN" horiz-adv-x="1120" 
d="M765 495q-19 -1 -53 -4l-72 -6.5t-74.5 -7.5t-60.5 -7q-64 -8 -107 -25.5t-69.5 -42.5t-37.5 -56.5t-11 -65.5q0 -30 12.5 -55.5t35 -44t53.5 -29.5t69 -11t75 6.5t75.5 26t79 56t85.5 96.5v170zM950 370q0 -108 21 -197t54 -173h-180l-24 65.5t-26 89.5
q-89 -95 -185 -137.5t-190 -42.5q-71 0 -130.5 23t-102.5 61.5t-67.5 89t-24.5 106.5q0 57 19 115.5t65 108t123 85t193 46.5q26 3 65.5 6.5t80 7.5t75 7t49.5 4v75q0 91 -63.5 130.5t-176.5 39.5q-80 0 -158.5 -31.5t-166.5 -93.5q0 16 1 42.5l2 55t3 55t4 42.5l78.5 32.5
t83 29t92.5 20.5t106 8q86 0 156.5 -21.5t120 -59t76.5 -88.5t27 -111v-390zM890 1370q0 75 7.5 113.5t24.5 60.5l49.5 62t18.5 44q0 25 -19 42.5t-46 17.5q-32 0 -60.5 -8t-54.5 -27l-20 90q27 18 65.5 29t91.5 11q33 0 62 -10t50.5 -28.5t33.5 -45.5t12 -61
q0 -18 -3 -32.5t-11.5 -30t-23.5 -33t-40 -40.5q-12 -11 -18.5 -22.5t-9.5 -29t-3.5 -42t-0.5 -60.5h-105zM115 1170l340 430h170l340 -430h-150l-275 280l-275 -280h-150z" />
    <glyph glyph-name="abreve" horiz-adv-x="1120" 
d="M765 495q-19 -1 -53 -4l-72 -6.5t-74.5 -7.5t-60.5 -7q-64 -8 -107 -25.5t-69.5 -42.5t-37.5 -56.5t-11 -65.5q0 -30 12.5 -55.5t35 -44t53.5 -29.5t69 -11t75 6.5t75.5 26t79 56t85.5 96.5v170zM950 370q0 -108 21 -197t54 -173h-180l-24 65.5t-26 89.5
q-89 -95 -185 -137.5t-190 -42.5q-71 0 -130.5 23t-102.5 61.5t-67.5 89t-24.5 106.5q0 57 19 115.5t65 108t123 85t193 46.5q26 3 65.5 6.5t80 7.5t75 7t49.5 4v75q0 91 -63.5 130.5t-176.5 39.5q-80 0 -158.5 -31.5t-166.5 -93.5q0 16 1 42.5l2 55t3 55t4 42.5l78.5 32.5
t83 29t92.5 20.5t106 8q86 0 156.5 -21.5t120 -59t76.5 -88.5t27 -111v-390zM915 1550q0 -73 -26 -144.5t-74.5 -128.5t-118 -92t-156.5 -35q-88 0 -157.5 35t-118 92t-74 128.5t-25.5 144.5h120q6 -51 28.5 -96t56.5 -79.5t77.5 -54.5t92.5 -20t92 20t76 54.5t55 79.5
t30 96h122z" />
    <glyph glyph-name="uni1EB7" horiz-adv-x="1120" 
d="M765 495q-19 -1 -53 -4l-72 -6.5t-74.5 -7.5t-60.5 -7q-64 -8 -107 -25.5t-69.5 -42.5t-37.5 -56.5t-11 -65.5q0 -30 12.5 -55.5t35 -44t53.5 -29.5t69 -11t75 6.5t75.5 26t79 56t85.5 96.5v170zM950 370q0 -108 21 -197t54 -173h-180l-24 65.5t-26 89.5
q-89 -95 -185 -137.5t-190 -42.5q-71 0 -130.5 23t-102.5 61.5t-67.5 89t-24.5 106.5q0 57 19 115.5t65 108t123 85t193 46.5q26 3 65.5 6.5t80 7.5t75 7t49.5 4v75q0 91 -63.5 130.5t-176.5 39.5q-80 0 -158.5 -31.5t-166.5 -93.5q0 16 1 42.5l2 55t3 55t4 42.5l78.5 32.5
t83 29t92.5 20.5t106 8q86 0 156.5 -21.5t120 -59t76.5 -88.5t27 -111v-390zM405 -344q0 28 10.5 52.5t29 43t43 29t52.5 10.5t52.5 -10.5t43 -29t29 -43t10.5 -52.5t-10.5 -52.5t-29 -43t-43 -29t-52.5 -10.5t-52.5 10.5t-43 29t-29 43t-10.5 52.5zM915 1550
q0 -73 -26 -144.5t-74.5 -128.5t-118 -92t-156.5 -35q-88 0 -157.5 35t-118 92t-74 128.5t-25.5 144.5h120q6 -51 28.5 -96t56.5 -79.5t77.5 -54.5t92.5 -20t92 20t76 54.5t55 79.5t30 96h122z" />
    <glyph glyph-name="uni1EAF" horiz-adv-x="1120" 
d="M765 495q-19 -1 -53 -4l-72 -6.5t-74.5 -7.5t-60.5 -7q-64 -8 -107 -25.5t-69.5 -42.5t-37.5 -56.5t-11 -65.5q0 -30 12.5 -55.5t35 -44t53.5 -29.5t69 -11t75 6.5t75.5 26t79 56t85.5 96.5v170zM950 370q0 -108 21 -197t54 -173h-180l-24 65.5t-26 89.5
q-89 -95 -185 -137.5t-190 -42.5q-71 0 -130.5 23t-102.5 61.5t-67.5 89t-24.5 106.5q0 57 19 115.5t65 108t123 85t193 46.5q26 3 65.5 6.5t80 7.5t75 7t49.5 4v75q0 91 -63.5 130.5t-176.5 39.5q-80 0 -158.5 -31.5t-166.5 -93.5q0 16 1 42.5l2 55t3 55t4 42.5l78.5 32.5
t83 29t92.5 20.5t106 8q86 0 156.5 -21.5t120 -59t76.5 -88.5t27 -111v-390zM915 1550q0 -73 -26 -144.5t-74.5 -128.5t-118 -92t-156.5 -35q-88 0 -157.5 35t-118 92t-74 128.5t-25.5 144.5h120q6 -51 28.5 -96t56.5 -79.5t77.5 -54.5t92.5 -20t92 20t76 54.5t55 79.5
t30 96h122zM940 2135l-420 -430h-160l350 430h230z" />
    <glyph glyph-name="uni1EAF.VN" horiz-adv-x="1120" 
d="M765 495q-19 -1 -53 -4l-72 -6.5t-74.5 -7.5t-60.5 -7q-64 -8 -107 -25.5t-69.5 -42.5t-37.5 -56.5t-11 -65.5q0 -30 12.5 -55.5t35 -44t53.5 -29.5t69 -11t75 6.5t75.5 26t79 56t85.5 96.5v170zM950 370q0 -108 21 -197t54 -173h-180l-24 65.5t-26 89.5
q-89 -95 -185 -137.5t-190 -42.5q-71 0 -130.5 23t-102.5 61.5t-67.5 89t-24.5 106.5q0 57 19 115.5t65 108t123 85t193 46.5q26 3 65.5 6.5t80 7.5t75 7t49.5 4v75q0 91 -63.5 130.5t-176.5 39.5q-80 0 -158.5 -31.5t-166.5 -93.5q0 16 1 42.5l2 55t3 55t4 42.5l78.5 32.5
t83 29t92.5 20.5t106 8q86 0 156.5 -21.5t120 -59t76.5 -88.5t27 -111v-390zM882 1858l-252 -263h-150l222 263h180zM915 1550q0 -73 -26 -144.5t-74.5 -128.5t-118 -92t-156.5 -35q-88 0 -157.5 35t-118 92t-74 128.5t-25.5 144.5h120q6 -51 28.5 -96t56.5 -79.5
t77.5 -54.5t92.5 -20t92 20t76 54.5t55 79.5t30 96h122z" />
    <glyph glyph-name="uni1EB1" horiz-adv-x="1120" 
d="M765 495q-19 -1 -53 -4l-72 -6.5t-74.5 -7.5t-60.5 -7q-64 -8 -107 -25.5t-69.5 -42.5t-37.5 -56.5t-11 -65.5q0 -30 12.5 -55.5t35 -44t53.5 -29.5t69 -11t75 6.5t75.5 26t79 56t85.5 96.5v170zM950 370q0 -108 21 -197t54 -173h-180l-24 65.5t-26 89.5
q-89 -95 -185 -137.5t-190 -42.5q-71 0 -130.5 23t-102.5 61.5t-67.5 89t-24.5 106.5q0 57 19 115.5t65 108t123 85t193 46.5q26 3 65.5 6.5t80 7.5t75 7t49.5 4v75q0 91 -63.5 130.5t-176.5 39.5q-80 0 -158.5 -31.5t-166.5 -93.5q0 16 1 42.5l2 55t3 55t4 42.5l78.5 32.5
t83 29t92.5 20.5t106 8q86 0 156.5 -21.5t120 -59t76.5 -88.5t27 -111v-390zM915 1550q0 -73 -26 -144.5t-74.5 -128.5t-118 -92t-156.5 -35q-88 0 -157.5 35t-118 92t-74 128.5t-25.5 144.5h120q6 -51 28.5 -96t56.5 -79.5t77.5 -54.5t92.5 -20t92 20t76 54.5t55 79.5
t30 96h122zM380 2135l350 -430h-160l-420 430h230z" />
    <glyph glyph-name="uni1EB1.VN" horiz-adv-x="1120" 
d="M765 495q-19 -1 -53 -4l-72 -6.5t-74.5 -7.5t-60.5 -7q-64 -8 -107 -25.5t-69.5 -42.5t-37.5 -56.5t-11 -65.5q0 -30 12.5 -55.5t35 -44t53.5 -29.5t69 -11t75 6.5t75.5 26t79 56t85.5 96.5v170zM950 370q0 -108 21 -197t54 -173h-180l-24 65.5t-26 89.5
q-89 -95 -185 -137.5t-190 -42.5q-71 0 -130.5 23t-102.5 61.5t-67.5 89t-24.5 106.5q0 57 19 115.5t65 108t123 85t193 46.5q26 3 65.5 6.5t80 7.5t75 7t49.5 4v75q0 91 -63.5 130.5t-176.5 39.5q-80 0 -158.5 -31.5t-166.5 -93.5q0 16 1 42.5l2 55t3 55t4 42.5l78.5 32.5
t83 29t92.5 20.5t106 8q86 0 156.5 -21.5t120 -59t76.5 -88.5t27 -111v-390zM388 1858l222 -263h-150l-252 263h180zM915 1550q0 -73 -26 -144.5t-74.5 -128.5t-118 -92t-156.5 -35q-88 0 -157.5 35t-118 92t-74 128.5t-25.5 144.5h120q6 -51 28.5 -96t56.5 -79.5
t77.5 -54.5t92.5 -20t92 20t76 54.5t55 79.5t30 96h122z" />
    <glyph glyph-name="uni1EB5" horiz-adv-x="1120" 
d="M765 495q-19 -1 -53 -4l-72 -6.5t-74.5 -7.5t-60.5 -7q-64 -8 -107 -25.5t-69.5 -42.5t-37.5 -56.5t-11 -65.5q0 -30 12.5 -55.5t35 -44t53.5 -29.5t69 -11t75 6.5t75.5 26t79 56t85.5 96.5v170zM950 370q0 -108 21 -197t54 -173h-180l-24 65.5t-26 89.5
q-89 -95 -185 -137.5t-190 -42.5q-71 0 -130.5 23t-102.5 61.5t-67.5 89t-24.5 106.5q0 57 19 115.5t65 108t123 85t193 46.5q26 3 65.5 6.5t80 7.5t75 7t49.5 4v75q0 91 -63.5 130.5t-176.5 39.5q-80 0 -158.5 -31.5t-166.5 -93.5q0 16 1 42.5l2 55t3 55t4 42.5l78.5 32.5
t83 29t92.5 20.5t106 8q86 0 156.5 -21.5t120 -59t76.5 -88.5t27 -111v-390zM915 1550q0 -73 -26 -144.5t-74.5 -128.5t-118 -92t-156.5 -35q-88 0 -157.5 35t-118 92t-74 128.5t-25.5 144.5h120q6 -51 28.5 -96t56.5 -79.5t77.5 -54.5t92.5 -20t92 20t76 54.5t55 79.5
t30 96h122zM185 1740q0 46 13.5 90.5t38 80t60 57.5t80.5 22q21 0 41 -4t40.5 -11.5t43 -17t48.5 -19.5l48.5 -20t40 -15t34.5 -9.5t32 -3.5q35 0 57.5 25t27.5 60h105q0 -48 -13.5 -93t-39 -80t-62.5 -56t-83 -21q-40 0 -80.5 13.5t-86.5 34.5q-58 27 -92.5 39.5
t-62.5 12.5q-37 0 -59 -24t-26 -61h-105z" />
    <glyph glyph-name="uni1EB5.VN" horiz-adv-x="1120" 
d="M765 495q-19 -1 -53 -4l-72 -6.5t-74.5 -7.5t-60.5 -7q-64 -8 -107 -25.5t-69.5 -42.5t-37.5 -56.5t-11 -65.5q0 -30 12.5 -55.5t35 -44t53.5 -29.5t69 -11t75 6.5t75.5 26t79 56t85.5 96.5v170zM950 370q0 -108 21 -197t54 -173h-180l-24 65.5t-26 89.5
q-89 -95 -185 -137.5t-190 -42.5q-71 0 -130.5 23t-102.5 61.5t-67.5 89t-24.5 106.5q0 57 19 115.5t65 108t123 85t193 46.5q26 3 65.5 6.5t80 7.5t75 7t49.5 4v75q0 91 -63.5 130.5t-176.5 39.5q-80 0 -158.5 -31.5t-166.5 -93.5q0 16 1 42.5l2 55t3 55t4 42.5l78.5 32.5
t83 29t92.5 20.5t106 8q86 0 156.5 -21.5t120 -59t76.5 -88.5t27 -111v-390zM915 1550q0 -73 -26 -144.5t-74.5 -128.5t-118 -92t-156.5 -35q-88 0 -157.5 35t-118 92t-74 128.5t-25.5 144.5h120q6 -51 28.5 -96t56.5 -79.5t77.5 -54.5t92.5 -20t92 20t76 54.5t55 79.5
t30 96h122zM201 1623q0 43 12.5 86t36.5 76.5t58 54.5t76 21q40 0 77 -13.5t87 -35.5q50 -23 83.5 -34.5t63.5 -11.5q34 0 55 24t26 57h100q0 -46 -13 -89t-37.5 -76t-59.5 -53t-78 -20q-38 0 -76.5 13t-82.5 33q-55 26 -88 37.5t-59 11.5q-35 0 -56 -23t-25 -58h-100z" />
    <glyph glyph-name="uni1EB3" horiz-adv-x="1120" 
d="M765 495q-19 -1 -53 -4l-72 -6.5t-74.5 -7.5t-60.5 -7q-64 -8 -107 -25.5t-69.5 -42.5t-37.5 -56.5t-11 -65.5q0 -30 12.5 -55.5t35 -44t53.5 -29.5t69 -11t75 6.5t75.5 26t79 56t85.5 96.5v170zM950 370q0 -108 21 -197t54 -173h-180l-24 65.5t-26 89.5
q-89 -95 -185 -137.5t-190 -42.5q-71 0 -130.5 23t-102.5 61.5t-67.5 89t-24.5 106.5q0 57 19 115.5t65 108t123 85t193 46.5q26 3 65.5 6.5t80 7.5t75 7t49.5 4v75q0 91 -63.5 130.5t-176.5 39.5q-80 0 -158.5 -31.5t-166.5 -93.5q0 16 1 42.5l2 55t3 55t4 42.5l78.5 32.5
t83 29t92.5 20.5t106 8q86 0 156.5 -21.5t120 -59t76.5 -88.5t27 -111v-390zM915 1550q0 -73 -26 -144.5t-74.5 -128.5t-118 -92t-156.5 -35q-88 0 -157.5 35t-118 92t-74 128.5t-25.5 144.5h120q6 -51 28.5 -96t56.5 -79.5t77.5 -54.5t92.5 -20t92 20t76 54.5t55 79.5
t30 96h122zM463 1660q0 64 8.5 110.5t28.5 80.5q15 24 36 44l40.5 37.5t33 35t13.5 37.5q0 37 -28.5 58.5t-86.5 21.5q-44 0 -82 -19.5t-68 -50.5l-25 105q32 29 81 49.5t109 20.5q46 0 87 -13.5t71.5 -36.5t48.5 -54t18 -66t-17.5 -62t-40 -49t-44.5 -40t-32 -36
q-18 -32 -24.5 -71.5t-6.5 -101.5h-120z" />
    <glyph glyph-name="uni1EB3.VN" horiz-adv-x="1120" 
d="M765 495q-19 -1 -53 -4l-72 -6.5t-74.5 -7.5t-60.5 -7q-64 -8 -107 -25.5t-69.5 -42.5t-37.5 -56.5t-11 -65.5q0 -30 12.5 -55.5t35 -44t53.5 -29.5t69 -11t75 6.5t75.5 26t79 56t85.5 96.5v170zM950 370q0 -108 21 -197t54 -173h-180l-24 65.5t-26 89.5
q-89 -95 -185 -137.5t-190 -42.5q-71 0 -130.5 23t-102.5 61.5t-67.5 89t-24.5 106.5q0 57 19 115.5t65 108t123 85t193 46.5q26 3 65.5 6.5t80 7.5t75 7t49.5 4v75q0 91 -63.5 130.5t-176.5 39.5q-80 0 -158.5 -31.5t-166.5 -93.5q0 16 1 42.5l2 55t3 55t4 42.5l78.5 32.5
t83 29t92.5 20.5t106 8q86 0 156.5 -21.5t120 -59t76.5 -88.5t27 -111v-390zM480 1475q0 45 2.5 76.5t8 55t14 40.5t20.5 33q8 11 21.5 24t26.5 28.5t22.5 33t9.5 37.5q0 21 -22.5 41.5t-62.5 20.5q-32 0 -68.5 -14t-66.5 -41l-20 90q34 29 78 44.5t97 15.5q33 0 65.5 -11
t58 -30.5t41 -46t15.5 -58.5t-9.5 -55t-23.5 -41t-29.5 -31.5t-27.5 -26.5q-12 -14 -20 -28t-12.5 -34t-6 -49.5t-1.5 -73.5h-110zM915 1550q0 -73 -26 -144.5t-74.5 -128.5t-118 -92t-156.5 -35q-88 0 -157.5 35t-118 92t-74 128.5t-25.5 144.5h120q6 -51 28.5 -96
t56.5 -79.5t77.5 -54.5t92.5 -20t92 20t76 54.5t55 79.5t30 96h122z" />
    <glyph glyph-name="uni01CE" horiz-adv-x="1120" 
d="M765 495q-19 -1 -53 -4l-72 -6.5t-74.5 -7.5t-60.5 -7q-64 -8 -107 -25.5t-69.5 -42.5t-37.5 -56.5t-11 -65.5q0 -30 12.5 -55.5t35 -44t53.5 -29.5t69 -11t75 6.5t75.5 26t79 56t85.5 96.5v170zM950 370q0 -108 21 -197t54 -173h-180l-24 65.5t-26 89.5
q-89 -95 -185 -137.5t-190 -42.5q-71 0 -130.5 23t-102.5 61.5t-67.5 89t-24.5 106.5q0 57 19 115.5t65 108t123 85t193 46.5q26 3 65.5 6.5t80 7.5t75 7t49.5 4v75q0 91 -63.5 130.5t-176.5 39.5q-80 0 -158.5 -31.5t-166.5 -93.5q0 16 1 42.5l2 55t3 55t4 42.5l78.5 32.5
t83 29t92.5 20.5t106 8q86 0 156.5 -21.5t120 -59t76.5 -88.5t27 -111v-390zM265 1600l275 -280l275 280h150l-340 -430h-170l-340 430h150z" />
    <glyph glyph-name="amacron" horiz-adv-x="1120" 
d="M765 495q-19 -1 -53 -4l-72 -6.5t-74.5 -7.5t-60.5 -7q-64 -8 -107 -25.5t-69.5 -42.5t-37.5 -56.5t-11 -65.5q0 -30 12.5 -55.5t35 -44t53.5 -29.5t69 -11t75 6.5t75.5 26t79 56t85.5 96.5v170zM950 370q0 -108 21 -197t54 -173h-180l-24 65.5t-26 89.5
q-89 -95 -185 -137.5t-190 -42.5q-71 0 -130.5 23t-102.5 61.5t-67.5 89t-24.5 106.5q0 57 19 115.5t65 108t123 85t193 46.5q26 3 65.5 6.5t80 7.5t75 7t49.5 4v75q0 91 -63.5 130.5t-176.5 39.5q-80 0 -158.5 -31.5t-166.5 -93.5q0 16 1 42.5l2 55t3 55t4 42.5l78.5 32.5
t83 29t92.5 20.5t106 8q86 0 156.5 -21.5t120 -59t76.5 -88.5t27 -111v-390zM165 1390h750v-150h-750v150z" />
    <glyph glyph-name="uni01DF" horiz-adv-x="1120" 
d="M765 495q-19 -1 -53 -4l-72 -6.5t-74.5 -7.5t-60.5 -7q-64 -8 -107 -25.5t-69.5 -42.5t-37.5 -56.5t-11 -65.5q0 -30 12.5 -55.5t35 -44t53.5 -29.5t69 -11t75 6.5t75.5 26t79 56t85.5 96.5v170zM950 370q0 -108 21 -197t54 -173h-180l-24 65.5t-26 89.5
q-89 -95 -185 -137.5t-190 -42.5q-71 0 -130.5 23t-102.5 61.5t-67.5 89t-24.5 106.5q0 57 19 115.5t65 108t123 85t193 46.5q26 3 65.5 6.5t80 7.5t75 7t49.5 4v75q0 91 -63.5 130.5t-176.5 39.5q-80 0 -158.5 -31.5t-166.5 -93.5q0 16 1 42.5l2 55t3 55t4 42.5l78.5 32.5
t83 29t92.5 20.5t106 8q86 0 156.5 -21.5t120 -59t76.5 -88.5t27 -111v-390zM203 1345q0 28 9.5 52.5t26.5 43t40 29t51 10.5t51.5 -10.5t40.5 -29t26.5 -43t9.5 -52.5t-9.5 -52.5t-26.5 -43t-40.5 -29t-51.5 -10.5t-51 10.5t-40 29t-26.5 43t-9.5 52.5zM623 1345
q0 28 9.5 52.5t26.5 43t40 29t51 10.5t51.5 -10.5t40.5 -29t26.5 -43t9.5 -52.5t-9.5 -52.5t-26.5 -43t-40.5 -29t-51.5 -10.5t-51 10.5t-40 29t-26.5 43t-9.5 52.5zM165 1795h750v-150h-750v150z" />
    <glyph glyph-name="uni0227" horiz-adv-x="1120" 
d="M765 495q-19 -1 -53 -4l-72 -6.5t-74.5 -7.5t-60.5 -7q-64 -8 -107 -25.5t-69.5 -42.5t-37.5 -56.5t-11 -65.5q0 -30 12.5 -55.5t35 -44t53.5 -29.5t69 -11t75 6.5t75.5 26t79 56t85.5 96.5v170zM950 370q0 -108 21 -197t54 -173h-180l-24 65.5t-26 89.5
q-89 -95 -185 -137.5t-190 -42.5q-71 0 -130.5 23t-102.5 61.5t-67.5 89t-24.5 106.5q0 57 19 115.5t65 108t123 85t193 46.5q26 3 65.5 6.5t80 7.5t75 7t49.5 4v75q0 91 -63.5 130.5t-176.5 39.5q-80 0 -158.5 -31.5t-166.5 -93.5q0 16 1 42.5l2 55t3 55t4 42.5l78.5 32.5
t83 29t92.5 20.5t106 8q86 0 156.5 -21.5t120 -59t76.5 -88.5t27 -111v-390zM405 1345q0 28 10.5 52.5t29 43t43 29t52.5 10.5t52.5 -10.5t43 -29t29 -43t10.5 -52.5t-10.5 -52.5t-29 -43t-43 -29t-52.5 -10.5t-52.5 10.5t-43 29t-29 43t-10.5 52.5z" />
    <glyph glyph-name="uni01E1" horiz-adv-x="1120" 
d="M765 495q-19 -1 -53 -4l-72 -6.5t-74.5 -7.5t-60.5 -7q-64 -8 -107 -25.5t-69.5 -42.5t-37.5 -56.5t-11 -65.5q0 -30 12.5 -55.5t35 -44t53.5 -29.5t69 -11t75 6.5t75.5 26t79 56t85.5 96.5v170zM950 370q0 -108 21 -197t54 -173h-180l-24 65.5t-26 89.5
q-89 -95 -185 -137.5t-190 -42.5q-71 0 -130.5 23t-102.5 61.5t-67.5 89t-24.5 106.5q0 57 19 115.5t65 108t123 85t193 46.5q26 3 65.5 6.5t80 7.5t75 7t49.5 4v75q0 91 -63.5 130.5t-176.5 39.5q-80 0 -158.5 -31.5t-166.5 -93.5q0 16 1 42.5l2 55t3 55t4 42.5l78.5 32.5
t83 29t92.5 20.5t106 8q86 0 156.5 -21.5t120 -59t76.5 -88.5t27 -111v-390zM405 1345q0 28 10.5 52.5t29 43t43 29t52.5 10.5t52.5 -10.5t43 -29t29 -43t10.5 -52.5t-10.5 -52.5t-29 -43t-43 -29t-52.5 -10.5t-52.5 10.5t-43 29t-29 43t-10.5 52.5zM165 1795h750v-150h-750
v150z" />
    <glyph glyph-name="aringacute" horiz-adv-x="1120" 
d="M765 495q-19 -1 -53 -4l-72 -6.5t-74.5 -7.5t-60.5 -7q-64 -8 -107 -25.5t-69.5 -42.5t-37.5 -56.5t-11 -65.5q0 -30 12.5 -55.5t35 -44t53.5 -29.5t69 -11t75 6.5t75.5 26t79 56t85.5 96.5v170zM950 370q0 -108 21 -197t54 -173h-180l-24 65.5t-26 89.5
q-89 -95 -185 -137.5t-190 -42.5q-71 0 -130.5 23t-102.5 61.5t-67.5 89t-24.5 106.5q0 57 19 115.5t65 108t123 85t193 46.5q26 3 65.5 6.5t80 7.5t75 7t49.5 4v75q0 91 -63.5 130.5t-176.5 39.5q-80 0 -158.5 -31.5t-166.5 -93.5q0 16 1 42.5l2 55t3 55t4 42.5l78.5 32.5
t83 29t92.5 20.5t106 8q86 0 156.5 -21.5t120 -59t76.5 -88.5t27 -111v-390zM325 1385q0 45 16.5 84t46 68.5t68.5 46t84 16.5t84 -16.5t68.5 -46t46 -68.5t16.5 -84t-16.5 -84t-46 -68.5t-68.5 -46t-84 -16.5t-84 16.5t-68.5 46t-46 68.5t-16.5 84zM640 1385
q0 45 -27.5 72.5t-72.5 27.5t-72.5 -27.5t-27.5 -72.5t27.5 -72.5t72.5 -27.5t72.5 27.5t27.5 72.5zM940 2135l-420 -430h-160l350 430h230z" />
    <glyph glyph-name="uni1EA3" horiz-adv-x="1120" 
d="M765 495q-19 -1 -53 -4l-72 -6.5t-74.5 -7.5t-60.5 -7q-64 -8 -107 -25.5t-69.5 -42.5t-37.5 -56.5t-11 -65.5q0 -30 12.5 -55.5t35 -44t53.5 -29.5t69 -11t75 6.5t75.5 26t79 56t85.5 96.5v170zM950 370q0 -108 21 -197t54 -173h-180l-24 65.5t-26 89.5
q-89 -95 -185 -137.5t-190 -42.5q-71 0 -130.5 23t-102.5 61.5t-67.5 89t-24.5 106.5q0 57 19 115.5t65 108t123 85t193 46.5q26 3 65.5 6.5t80 7.5t75 7t49.5 4v75q0 91 -63.5 130.5t-176.5 39.5q-80 0 -158.5 -31.5t-166.5 -93.5q0 16 1 42.5l2 55t3 55t4 42.5l78.5 32.5
t83 29t92.5 20.5t106 8q86 0 156.5 -21.5t120 -59t76.5 -88.5t27 -111v-390zM463 1125q0 64 8.5 110.5t28.5 80.5q15 24 36 44l40.5 37.5t33 35t13.5 37.5q0 37 -28.5 58.5t-86.5 21.5q-44 0 -82 -19.5t-68 -50.5l-25 105q32 29 81 49.5t109 20.5q46 0 87 -13.5t71.5 -36.5
t48.5 -54t18 -66t-17.5 -62t-40 -49t-44.5 -40t-32 -36q-18 -32 -24.5 -71.5t-6.5 -101.5h-120z" />
    <glyph glyph-name="uni1EA1" horiz-adv-x="1120" 
d="M765 495q-19 -1 -53 -4l-72 -6.5t-74.5 -7.5t-60.5 -7q-64 -8 -107 -25.5t-69.5 -42.5t-37.5 -56.5t-11 -65.5q0 -30 12.5 -55.5t35 -44t53.5 -29.5t69 -11t75 6.5t75.5 26t79 56t85.5 96.5v170zM950 370q0 -108 21 -197t54 -173h-180l-24 65.5t-26 89.5
q-89 -95 -185 -137.5t-190 -42.5q-71 0 -130.5 23t-102.5 61.5t-67.5 89t-24.5 106.5q0 57 19 115.5t65 108t123 85t193 46.5q26 3 65.5 6.5t80 7.5t75 7t49.5 4v75q0 91 -63.5 130.5t-176.5 39.5q-80 0 -158.5 -31.5t-166.5 -93.5q0 16 1 42.5l2 55t3 55t4 42.5l78.5 32.5
t83 29t92.5 20.5t106 8q86 0 156.5 -21.5t120 -59t76.5 -88.5t27 -111v-390zM405 -344q0 28 10.5 52.5t29 43t43 29t52.5 10.5t52.5 -10.5t43 -29t29 -43t10.5 -52.5t-10.5 -52.5t-29 -43t-43 -29t-52.5 -10.5t-52.5 10.5t-43 29t-29 43t-10.5 52.5z" />
    <glyph glyph-name="uni0251" unicode="&#x251;" horiz-adv-x="1150" 
d="M595 870q-32 0 -64.5 -7.5t-64 -25.5t-61 -47.5t-55.5 -74.5q-27 -46 -43.5 -114.5t-16.5 -140.5q0 -83 15.5 -142.5t41 -98t58 -56.5t65.5 -18q42 0 91.5 26t96.5 69t88.5 99t68.5 116v375q-15 7 -38.5 14t-52 13t-62 9.5t-67.5 3.5zM1000 530q0 -189 21 -317.5
t54 -212.5h-175l-14 36t-18.5 52.5t-18 63.5t-14.5 68q-39 -50 -82.5 -94t-91.5 -78t-100 -53.5t-106 -19.5q-63 0 -125.5 27t-112.5 81t-81 135.5t-31 191.5q0 115 25.5 208.5t69.5 166.5q39 64 83 112t96.5 79.5t115.5 47.5t140 16q38 0 84.5 -5.5t95 -15.5t96.5 -24
t89 -30v-435z" />
    <glyph glyph-name="a" horiz-adv-x="1120" 
d="M765 495q-19 -1 -53 -4l-72 -6.5t-74.5 -7.5t-60.5 -7q-64 -8 -107 -25.5t-69.5 -42.5t-37.5 -56.5t-11 -65.5q0 -30 12.5 -55.5t35 -44t53.5 -29.5t69 -11t75 6.5t75.5 26t79 56t85.5 96.5v170zM950 370q0 -108 21 -197t54 -173h-180l-24 65.5t-26 89.5
q-89 -95 -185 -137.5t-190 -42.5q-71 0 -130.5 23t-102.5 61.5t-67.5 89t-24.5 106.5q0 57 19 115.5t65 108t123 85t193 46.5q26 3 65.5 6.5t80 7.5t75 7t49.5 4v75q0 91 -63.5 130.5t-176.5 39.5q-80 0 -158.5 -31.5t-166.5 -93.5q0 16 1 42.5l2 55t3 55t4 42.5l78.5 32.5
t83 29t92.5 20.5t106 8q86 0 156.5 -21.5t120 -59t76.5 -88.5t27 -111v-390z" />
    <glyph glyph-name="aacute.SngStory" unicode="&#xe1;" horiz-adv-x="1150" 
d="M595 870q-32 0 -64.5 -7.5t-64 -25.5t-61 -47.5t-55.5 -74.5q-27 -46 -43.5 -114.5t-16.5 -140.5q0 -83 15.5 -142.5t41 -98t58 -56.5t65.5 -18q42 0 91.5 26t96.5 69t88.5 99t68.5 116v375q-15 7 -38.5 14t-52 13t-62 9.5t-67.5 3.5zM1000 530q0 -189 21 -317.5
t54 -212.5h-175l-14 36t-18.5 52.5t-18 63.5t-14.5 68q-39 -50 -82.5 -94t-91.5 -78t-100 -53.5t-106 -19.5q-63 0 -125.5 27t-112.5 81t-81 135.5t-31 191.5q0 115 25.5 208.5t69.5 166.5q39 64 83 112t96.5 79.5t115.5 47.5t140 16q38 0 84.5 -5.5t95 -15.5t96.5 -24
t89 -30v-435zM1015 1600l-420 -430h-160l350 430h230z" />
    <glyph glyph-name="agrave.SngStory" unicode="&#xe0;" horiz-adv-x="1150" 
d="M595 870q-32 0 -64.5 -7.5t-64 -25.5t-61 -47.5t-55.5 -74.5q-27 -46 -43.5 -114.5t-16.5 -140.5q0 -83 15.5 -142.5t41 -98t58 -56.5t65.5 -18q42 0 91.5 26t96.5 69t88.5 99t68.5 116v375q-15 7 -38.5 14t-52 13t-62 9.5t-67.5 3.5zM1000 530q0 -189 21 -317.5
t54 -212.5h-175l-14 36t-18.5 52.5t-18 63.5t-14.5 68q-39 -50 -82.5 -94t-91.5 -78t-100 -53.5t-106 -19.5q-63 0 -125.5 27t-112.5 81t-81 135.5t-31 191.5q0 115 25.5 208.5t69.5 166.5q39 64 83 112t96.5 79.5t115.5 47.5t140 16q38 0 84.5 -5.5t95 -15.5t96.5 -24
t89 -30v-435zM455 1600l350 -430h-160l-420 430h230z" />
    <glyph glyph-name="acircumflex.SngStory" unicode="&#xe2;" horiz-adv-x="1150" 
d="M595 870q-32 0 -64.5 -7.5t-64 -25.5t-61 -47.5t-55.5 -74.5q-27 -46 -43.5 -114.5t-16.5 -140.5q0 -83 15.5 -142.5t41 -98t58 -56.5t65.5 -18q42 0 91.5 26t96.5 69t88.5 99t68.5 116v375q-15 7 -38.5 14t-52 13t-62 9.5t-67.5 3.5zM1000 530q0 -189 21 -317.5
t54 -212.5h-175l-14 36t-18.5 52.5t-18 63.5t-14.5 68q-39 -50 -82.5 -94t-91.5 -78t-100 -53.5t-106 -19.5q-63 0 -125.5 27t-112.5 81t-81 135.5t-31 191.5q0 115 25.5 208.5t69.5 166.5q39 64 83 112t96.5 79.5t115.5 47.5t140 16q38 0 84.5 -5.5t95 -15.5t96.5 -24
t89 -30v-435zM190 1170l340 430h170l340 -430h-150l-275 280l-275 -280h-150z" />
    <glyph glyph-name="uni1EAD.SngStory" unicode="&#x1ead;" horiz-adv-x="1150" 
d="M595 870q-32 0 -64.5 -7.5t-64 -25.5t-61 -47.5t-55.5 -74.5q-27 -46 -43.5 -114.5t-16.5 -140.5q0 -83 15.5 -142.5t41 -98t58 -56.5t65.5 -18q42 0 91.5 26t96.5 69t88.5 99t68.5 116v375q-15 7 -38.5 14t-52 13t-62 9.5t-67.5 3.5zM1000 530q0 -189 21 -317.5
t54 -212.5h-175l-14 36t-18.5 52.5t-18 63.5t-14.5 68q-39 -50 -82.5 -94t-91.5 -78t-100 -53.5t-106 -19.5q-63 0 -125.5 27t-112.5 81t-81 135.5t-31 191.5q0 115 25.5 208.5t69.5 166.5q39 64 83 112t96.5 79.5t115.5 47.5t140 16q38 0 84.5 -5.5t95 -15.5t96.5 -24
t89 -30v-435zM480 -344q0 28 10.5 52.5t29 43t43 29t52.5 10.5t52.5 -10.5t43 -29t29 -43t10.5 -52.5t-10.5 -52.5t-29 -43t-43 -29t-52.5 -10.5t-52.5 10.5t-43 29t-29 43t-10.5 52.5zM190 1170l340 430h170l340 -430h-150l-275 280l-275 -280h-150z" />
    <glyph glyph-name="uni1EA5.SngStory" unicode="&#x1ea5;" horiz-adv-x="1150" 
d="M595 870q-32 0 -64.5 -7.5t-64 -25.5t-61 -47.5t-55.5 -74.5q-27 -46 -43.5 -114.5t-16.5 -140.5q0 -83 15.5 -142.5t41 -98t58 -56.5t65.5 -18q42 0 91.5 26t96.5 69t88.5 99t68.5 116v375q-15 7 -38.5 14t-52 13t-62 9.5t-67.5 3.5zM1000 530q0 -189 21 -317.5
t54 -212.5h-175l-14 36t-18.5 52.5t-18 63.5t-14.5 68q-39 -50 -82.5 -94t-91.5 -78t-100 -53.5t-106 -19.5q-63 0 -125.5 27t-112.5 81t-81 135.5t-31 191.5q0 115 25.5 208.5t69.5 166.5q39 64 83 112t96.5 79.5t115.5 47.5t140 16q38 0 84.5 -5.5t95 -15.5t96.5 -24
t89 -30v-435zM190 1170l340 430h170l340 -430h-150l-275 280l-275 -280h-150zM1015 2135l-420 -430h-160l350 430h230z" />
    <glyph glyph-name="uni1EA5.SngStory.VN" horiz-adv-x="1150" 
d="M595 870q-32 0 -64.5 -7.5t-64 -25.5t-61 -47.5t-55.5 -74.5q-27 -46 -43.5 -114.5t-16.5 -140.5q0 -83 15.5 -142.5t41 -98t58 -56.5t65.5 -18q42 0 91.5 26t96.5 69t88.5 99t68.5 116v375q-15 7 -38.5 14t-52 13t-62 9.5t-67.5 3.5zM1000 530q0 -189 21 -317.5
t54 -212.5h-175l-14 36t-18.5 52.5t-18 63.5t-14.5 68q-39 -50 -82.5 -94t-91.5 -78t-100 -53.5t-106 -19.5q-63 0 -125.5 27t-112.5 81t-81 135.5t-31 191.5q0 115 25.5 208.5t69.5 166.5q39 64 83 112t96.5 79.5t115.5 47.5t140 16q38 0 84.5 -5.5t95 -15.5t96.5 -24
t89 -30v-435zM1159 1663l-222 -234l-67 70l198 247zM190 1170l340 430h170l340 -430h-150l-275 280l-275 -280h-150z" />
    <glyph glyph-name="uni1EA7.SngStory" unicode="&#x1ea7;" horiz-adv-x="1150" 
d="M595 870q-32 0 -64.5 -7.5t-64 -25.5t-61 -47.5t-55.5 -74.5q-27 -46 -43.5 -114.5t-16.5 -140.5q0 -83 15.5 -142.5t41 -98t58 -56.5t65.5 -18q42 0 91.5 26t96.5 69t88.5 99t68.5 116v375q-15 7 -38.5 14t-52 13t-62 9.5t-67.5 3.5zM1000 530q0 -189 21 -317.5
t54 -212.5h-175l-14 36t-18.5 52.5t-18 63.5t-14.5 68q-39 -50 -82.5 -94t-91.5 -78t-100 -53.5t-106 -19.5q-63 0 -125.5 27t-112.5 81t-81 135.5t-31 191.5q0 115 25.5 208.5t69.5 166.5q39 64 83 112t96.5 79.5t115.5 47.5t140 16q38 0 84.5 -5.5t95 -15.5t96.5 -24
t89 -30v-435zM190 1170l340 430h170l340 -430h-150l-275 280l-275 -280h-150zM455 2135l350 -430h-160l-420 430h230z" />
    <glyph glyph-name="uni1EA7.SngStory.VN" horiz-adv-x="1150" 
d="M595 870q-32 0 -64.5 -7.5t-64 -25.5t-61 -47.5t-55.5 -74.5q-27 -46 -43.5 -114.5t-16.5 -140.5q0 -83 15.5 -142.5t41 -98t58 -56.5t65.5 -18q42 0 91.5 26t96.5 69t88.5 99t68.5 116v375q-15 7 -38.5 14t-52 13t-62 9.5t-67.5 3.5zM1000 530q0 -189 21 -317.5
t54 -212.5h-175l-14 36t-18.5 52.5t-18 63.5t-14.5 68q-39 -50 -82.5 -94t-91.5 -78t-100 -53.5t-106 -19.5q-63 0 -125.5 27t-112.5 81t-81 135.5t-31 191.5q0 115 25.5 208.5t69.5 166.5q39 64 83 112t96.5 79.5t115.5 47.5t140 16q38 0 84.5 -5.5t95 -15.5t96.5 -24
t89 -30v-435zM162 1746l198 -247l-67 -70l-222 234zM190 1170l340 430h170l340 -430h-150l-275 280l-275 -280h-150z" />
    <glyph glyph-name="uni1EAB.SngStory" unicode="&#x1eab;" horiz-adv-x="1150" 
d="M595 870q-32 0 -64.5 -7.5t-64 -25.5t-61 -47.5t-55.5 -74.5q-27 -46 -43.5 -114.5t-16.5 -140.5q0 -83 15.5 -142.5t41 -98t58 -56.5t65.5 -18q42 0 91.5 26t96.5 69t88.5 99t68.5 116v375q-15 7 -38.5 14t-52 13t-62 9.5t-67.5 3.5zM1000 530q0 -189 21 -317.5
t54 -212.5h-175l-14 36t-18.5 52.5t-18 63.5t-14.5 68q-39 -50 -82.5 -94t-91.5 -78t-100 -53.5t-106 -19.5q-63 0 -125.5 27t-112.5 81t-81 135.5t-31 191.5q0 115 25.5 208.5t69.5 166.5q39 64 83 112t96.5 79.5t115.5 47.5t140 16q38 0 84.5 -5.5t95 -15.5t96.5 -24
t89 -30v-435zM190 1170l340 430h170l340 -430h-150l-275 280l-275 -280h-150zM260 1740q0 46 13.5 90.5t38 80t60 57.5t80.5 22q21 0 41 -4t40.5 -11.5t43 -17t48.5 -19.5l48.5 -20t40 -15t34.5 -9.5t32 -3.5q35 0 57.5 25t27.5 60h105q0 -48 -13.5 -93t-39 -80t-62.5 -56
t-83 -21q-40 0 -80.5 13.5t-86.5 34.5q-58 27 -92.5 39.5t-62.5 12.5q-37 0 -59 -24t-26 -61h-105z" />
    <glyph glyph-name="uni1EAB.SngStory.VN" horiz-adv-x="1150" 
d="M595 870q-32 0 -64.5 -7.5t-64 -25.5t-61 -47.5t-55.5 -74.5q-27 -46 -43.5 -114.5t-16.5 -140.5q0 -83 15.5 -142.5t41 -98t58 -56.5t65.5 -18q42 0 91.5 26t96.5 69t88.5 99t68.5 116v375q-15 7 -38.5 14t-52 13t-62 9.5t-67.5 3.5zM1000 530q0 -189 21 -317.5
t54 -212.5h-175l-14 36t-18.5 52.5t-18 63.5t-14.5 68q-39 -50 -82.5 -94t-91.5 -78t-100 -53.5t-106 -19.5q-63 0 -125.5 27t-112.5 81t-81 135.5t-31 191.5q0 115 25.5 208.5t69.5 166.5q39 64 83 112t96.5 79.5t115.5 47.5t140 16q38 0 84.5 -5.5t95 -15.5t96.5 -24
t89 -30v-435zM276 1639q0 43 12.5 86t36.5 76.5t58 54.5t76 21q40 0 77 -13.5t87 -35.5q50 -23 83.5 -34.5t63.5 -11.5q34 0 55 24t26 57h100q0 -46 -13 -89t-37.5 -76t-59.5 -53t-78 -20q-38 0 -76.5 13t-82.5 33q-55 26 -88 37.5t-59 11.5q-35 0 -56 -23t-25 -58h-100z
M190 1170l340 430h170l340 -430h-150l-275 280l-275 -280h-150z" />
    <glyph glyph-name="uni1EA9.SngStory" unicode="&#x1ea9;" horiz-adv-x="1150" 
d="M595 870q-32 0 -64.5 -7.5t-64 -25.5t-61 -47.5t-55.5 -74.5q-27 -46 -43.5 -114.5t-16.5 -140.5q0 -83 15.5 -142.5t41 -98t58 -56.5t65.5 -18q42 0 91.5 26t96.5 69t88.5 99t68.5 116v375q-15 7 -38.5 14t-52 13t-62 9.5t-67.5 3.5zM1000 530q0 -189 21 -317.5
t54 -212.5h-175l-14 36t-18.5 52.5t-18 63.5t-14.5 68q-39 -50 -82.5 -94t-91.5 -78t-100 -53.5t-106 -19.5q-63 0 -125.5 27t-112.5 81t-81 135.5t-31 191.5q0 115 25.5 208.5t69.5 166.5q39 64 83 112t96.5 79.5t115.5 47.5t140 16q38 0 84.5 -5.5t95 -15.5t96.5 -24
t89 -30v-435zM190 1170l340 430h170l340 -430h-150l-275 280l-275 -280h-150zM538 1660q0 64 8.5 110.5t28.5 80.5q15 24 36 44l40.5 37.5t33 35t13.5 37.5q0 37 -28.5 58.5t-86.5 21.5q-44 0 -82 -19.5t-68 -50.5l-25 105q32 29 81 49.5t109 20.5q46 0 87 -13.5t71.5 -36.5
t48.5 -54t18 -66t-17.5 -62t-40 -49t-44.5 -40t-32 -36q-18 -32 -24.5 -71.5t-6.5 -101.5h-120z" />
    <glyph glyph-name="uni1EA9.SngStory.VN" horiz-adv-x="1150" 
d="M595 870q-32 0 -64.5 -7.5t-64 -25.5t-61 -47.5t-55.5 -74.5q-27 -46 -43.5 -114.5t-16.5 -140.5q0 -83 15.5 -142.5t41 -98t58 -56.5t65.5 -18q42 0 91.5 26t96.5 69t88.5 99t68.5 116v375q-15 7 -38.5 14t-52 13t-62 9.5t-67.5 3.5zM1000 530q0 -189 21 -317.5
t54 -212.5h-175l-14 36t-18.5 52.5t-18 63.5t-14.5 68q-39 -50 -82.5 -94t-91.5 -78t-100 -53.5t-106 -19.5q-63 0 -125.5 27t-112.5 81t-81 135.5t-31 191.5q0 115 25.5 208.5t69.5 166.5q39 64 83 112t96.5 79.5t115.5 47.5t140 16q38 0 84.5 -5.5t95 -15.5t96.5 -24
t89 -30v-435zM965 1370q0 75 7.5 113.5t24.5 60.5l49.5 62t18.5 44q0 25 -19 42.5t-46 17.5q-32 0 -60.5 -8t-54.5 -27l-20 90q27 18 65.5 29t91.5 11q33 0 62 -10t50.5 -28.5t33.5 -45.5t12 -61q0 -18 -3 -32.5t-11.5 -30t-23.5 -33t-40 -40.5q-12 -11 -18.5 -22.5
t-9.5 -29t-3.5 -42t-0.5 -60.5h-105zM190 1170l340 430h170l340 -430h-150l-275 280l-275 -280h-150z" />
    <glyph glyph-name="abreve.SngStory" unicode="&#x103;" horiz-adv-x="1150" 
d="M595 870q-32 0 -64.5 -7.5t-64 -25.5t-61 -47.5t-55.5 -74.5q-27 -46 -43.5 -114.5t-16.5 -140.5q0 -83 15.5 -142.5t41 -98t58 -56.5t65.5 -18q42 0 91.5 26t96.5 69t88.5 99t68.5 116v375q-15 7 -38.5 14t-52 13t-62 9.5t-67.5 3.5zM1000 530q0 -189 21 -317.5
t54 -212.5h-175l-14 36t-18.5 52.5t-18 63.5t-14.5 68q-39 -50 -82.5 -94t-91.5 -78t-100 -53.5t-106 -19.5q-63 0 -125.5 27t-112.5 81t-81 135.5t-31 191.5q0 115 25.5 208.5t69.5 166.5q39 64 83 112t96.5 79.5t115.5 47.5t140 16q38 0 84.5 -5.5t95 -15.5t96.5 -24
t89 -30v-435zM990 1550q0 -73 -26 -144.5t-74.5 -128.5t-118 -92t-156.5 -35q-88 0 -157.5 35t-118 92t-74 128.5t-25.5 144.5h120q6 -51 28.5 -96t56.5 -79.5t77.5 -54.5t92.5 -20t92 20t76 54.5t55 79.5t30 96h122z" />
    <glyph glyph-name="uni1EB7.SngStory" unicode="&#x1eb7;" horiz-adv-x="1150" 
d="M595 870q-32 0 -64.5 -7.5t-64 -25.5t-61 -47.5t-55.5 -74.5q-27 -46 -43.5 -114.5t-16.5 -140.5q0 -83 15.5 -142.5t41 -98t58 -56.5t65.5 -18q42 0 91.5 26t96.5 69t88.5 99t68.5 116v375q-15 7 -38.5 14t-52 13t-62 9.5t-67.5 3.5zM1000 530q0 -189 21 -317.5
t54 -212.5h-175l-14 36t-18.5 52.5t-18 63.5t-14.5 68q-39 -50 -82.5 -94t-91.5 -78t-100 -53.5t-106 -19.5q-63 0 -125.5 27t-112.5 81t-81 135.5t-31 191.5q0 115 25.5 208.5t69.5 166.5q39 64 83 112t96.5 79.5t115.5 47.5t140 16q38 0 84.5 -5.5t95 -15.5t96.5 -24
t89 -30v-435zM480 -344q0 28 10.5 52.5t29 43t43 29t52.5 10.5t52.5 -10.5t43 -29t29 -43t10.5 -52.5t-10.5 -52.5t-29 -43t-43 -29t-52.5 -10.5t-52.5 10.5t-43 29t-29 43t-10.5 52.5zM990 1550q0 -73 -26 -144.5t-74.5 -128.5t-118 -92t-156.5 -35q-88 0 -157.5 35
t-118 92t-74 128.5t-25.5 144.5h120q6 -51 28.5 -96t56.5 -79.5t77.5 -54.5t92.5 -20t92 20t76 54.5t55 79.5t30 96h122z" />
    <glyph glyph-name="uni1EAF.SngStory" unicode="&#x1eaf;" horiz-adv-x="1150" 
d="M595 870q-32 0 -64.5 -7.5t-64 -25.5t-61 -47.5t-55.5 -74.5q-27 -46 -43.5 -114.5t-16.5 -140.5q0 -83 15.5 -142.5t41 -98t58 -56.5t65.5 -18q42 0 91.5 26t96.5 69t88.5 99t68.5 116v375q-15 7 -38.5 14t-52 13t-62 9.5t-67.5 3.5zM1000 530q0 -189 21 -317.5
t54 -212.5h-175l-14 36t-18.5 52.5t-18 63.5t-14.5 68q-39 -50 -82.5 -94t-91.5 -78t-100 -53.5t-106 -19.5q-63 0 -125.5 27t-112.5 81t-81 135.5t-31 191.5q0 115 25.5 208.5t69.5 166.5q39 64 83 112t96.5 79.5t115.5 47.5t140 16q38 0 84.5 -5.5t95 -15.5t96.5 -24
t89 -30v-435zM990 1550q0 -73 -26 -144.5t-74.5 -128.5t-118 -92t-156.5 -35q-88 0 -157.5 35t-118 92t-74 128.5t-25.5 144.5h120q6 -51 28.5 -96t56.5 -79.5t77.5 -54.5t92.5 -20t92 20t76 54.5t55 79.5t30 96h122zM1015 2135l-420 -430h-160l350 430h230z" />
    <glyph glyph-name="uni1EAF.SngStory.VN" horiz-adv-x="1150" 
d="M595 870q-32 0 -64.5 -7.5t-64 -25.5t-61 -47.5t-55.5 -74.5q-27 -46 -43.5 -114.5t-16.5 -140.5q0 -83 15.5 -142.5t41 -98t58 -56.5t65.5 -18q42 0 91.5 26t96.5 69t88.5 99t68.5 116v375q-15 7 -38.5 14t-52 13t-62 9.5t-67.5 3.5zM1000 530q0 -189 21 -317.5
t54 -212.5h-175l-14 36t-18.5 52.5t-18 63.5t-14.5 68q-39 -50 -82.5 -94t-91.5 -78t-100 -53.5t-106 -19.5q-63 0 -125.5 27t-112.5 81t-81 135.5t-31 191.5q0 115 25.5 208.5t69.5 166.5q39 64 83 112t96.5 79.5t115.5 47.5t140 16q38 0 84.5 -5.5t95 -15.5t96.5 -24
t89 -30v-435zM957 1858l-252 -263h-150l222 263h180zM990 1550q0 -73 -26 -144.5t-74.5 -128.5t-118 -92t-156.5 -35q-88 0 -157.5 35t-118 92t-74 128.5t-25.5 144.5h120q6 -51 28.5 -96t56.5 -79.5t77.5 -54.5t92.5 -20t92 20t76 54.5t55 79.5t30 96h122z" />
    <glyph glyph-name="uni1EB1.SngStory" unicode="&#x1eb1;" horiz-adv-x="1150" 
d="M595 870q-32 0 -64.5 -7.5t-64 -25.5t-61 -47.5t-55.5 -74.5q-27 -46 -43.5 -114.5t-16.5 -140.5q0 -83 15.5 -142.5t41 -98t58 -56.5t65.5 -18q42 0 91.5 26t96.5 69t88.5 99t68.5 116v375q-15 7 -38.5 14t-52 13t-62 9.5t-67.5 3.5zM1000 530q0 -189 21 -317.5
t54 -212.5h-175l-14 36t-18.5 52.5t-18 63.5t-14.5 68q-39 -50 -82.5 -94t-91.5 -78t-100 -53.5t-106 -19.5q-63 0 -125.5 27t-112.5 81t-81 135.5t-31 191.5q0 115 25.5 208.5t69.5 166.5q39 64 83 112t96.5 79.5t115.5 47.5t140 16q38 0 84.5 -5.5t95 -15.5t96.5 -24
t89 -30v-435zM990 1550q0 -73 -26 -144.5t-74.5 -128.5t-118 -92t-156.5 -35q-88 0 -157.5 35t-118 92t-74 128.5t-25.5 144.5h120q6 -51 28.5 -96t56.5 -79.5t77.5 -54.5t92.5 -20t92 20t76 54.5t55 79.5t30 96h122zM455 2135l350 -430h-160l-420 430h230z" />
    <glyph glyph-name="uni1EB1.SngStory.VN" horiz-adv-x="1150" 
d="M595 870q-32 0 -64.5 -7.5t-64 -25.5t-61 -47.5t-55.5 -74.5q-27 -46 -43.5 -114.5t-16.5 -140.5q0 -83 15.5 -142.5t41 -98t58 -56.5t65.5 -18q42 0 91.5 26t96.5 69t88.5 99t68.5 116v375q-15 7 -38.5 14t-52 13t-62 9.5t-67.5 3.5zM1000 530q0 -189 21 -317.5
t54 -212.5h-175l-14 36t-18.5 52.5t-18 63.5t-14.5 68q-39 -50 -82.5 -94t-91.5 -78t-100 -53.5t-106 -19.5q-63 0 -125.5 27t-112.5 81t-81 135.5t-31 191.5q0 115 25.5 208.5t69.5 166.5q39 64 83 112t96.5 79.5t115.5 47.5t140 16q38 0 84.5 -5.5t95 -15.5t96.5 -24
t89 -30v-435zM463 1858l222 -263h-150l-252 263h180zM990 1550q0 -73 -26 -144.5t-74.5 -128.5t-118 -92t-156.5 -35q-88 0 -157.5 35t-118 92t-74 128.5t-25.5 144.5h120q6 -51 28.5 -96t56.5 -79.5t77.5 -54.5t92.5 -20t92 20t76 54.5t55 79.5t30 96h122z" />
    <glyph glyph-name="uni1EB5.SngStory" unicode="&#x1eb5;" horiz-adv-x="1150" 
d="M595 870q-32 0 -64.5 -7.5t-64 -25.5t-61 -47.5t-55.5 -74.5q-27 -46 -43.5 -114.5t-16.5 -140.5q0 -83 15.5 -142.5t41 -98t58 -56.5t65.5 -18q42 0 91.5 26t96.5 69t88.5 99t68.5 116v375q-15 7 -38.5 14t-52 13t-62 9.5t-67.5 3.5zM1000 530q0 -189 21 -317.5
t54 -212.5h-175l-14 36t-18.5 52.5t-18 63.5t-14.5 68q-39 -50 -82.5 -94t-91.5 -78t-100 -53.5t-106 -19.5q-63 0 -125.5 27t-112.5 81t-81 135.5t-31 191.5q0 115 25.5 208.5t69.5 166.5q39 64 83 112t96.5 79.5t115.5 47.5t140 16q38 0 84.5 -5.5t95 -15.5t96.5 -24
t89 -30v-435zM990 1550q0 -73 -26 -144.5t-74.5 -128.5t-118 -92t-156.5 -35q-88 0 -157.5 35t-118 92t-74 128.5t-25.5 144.5h120q6 -51 28.5 -96t56.5 -79.5t77.5 -54.5t92.5 -20t92 20t76 54.5t55 79.5t30 96h122zM260 1740q0 46 13.5 90.5t38 80t60 57.5t80.5 22
q21 0 41 -4t40.5 -11.5t43 -17t48.5 -19.5l48.5 -20t40 -15t34.5 -9.5t32 -3.5q35 0 57.5 25t27.5 60h105q0 -48 -13.5 -93t-39 -80t-62.5 -56t-83 -21q-40 0 -80.5 13.5t-86.5 34.5q-58 27 -92.5 39.5t-62.5 12.5q-37 0 -59 -24t-26 -61h-105z" />
    <glyph glyph-name="uni1EB5.SngStory.VN" horiz-adv-x="1150" 
d="M595 870q-32 0 -64.5 -7.5t-64 -25.5t-61 -47.5t-55.5 -74.5q-27 -46 -43.5 -114.5t-16.5 -140.5q0 -83 15.5 -142.5t41 -98t58 -56.5t65.5 -18q42 0 91.5 26t96.5 69t88.5 99t68.5 116v375q-15 7 -38.5 14t-52 13t-62 9.5t-67.5 3.5zM1000 530q0 -189 21 -317.5
t54 -212.5h-175l-14 36t-18.5 52.5t-18 63.5t-14.5 68q-39 -50 -82.5 -94t-91.5 -78t-100 -53.5t-106 -19.5q-63 0 -125.5 27t-112.5 81t-81 135.5t-31 191.5q0 115 25.5 208.5t69.5 166.5q39 64 83 112t96.5 79.5t115.5 47.5t140 16q38 0 84.5 -5.5t95 -15.5t96.5 -24
t89 -30v-435zM990 1550q0 -73 -26 -144.5t-74.5 -128.5t-118 -92t-156.5 -35q-88 0 -157.5 35t-118 92t-74 128.5t-25.5 144.5h120q6 -51 28.5 -96t56.5 -79.5t77.5 -54.5t92.5 -20t92 20t76 54.5t55 79.5t30 96h122zM276 1623q0 43 12.5 86t36.5 76.5t58 54.5t76 21
q40 0 77 -13.5t87 -35.5q50 -23 83.5 -34.5t63.5 -11.5q34 0 55 24t26 57h100q0 -46 -13 -89t-37.5 -76t-59.5 -53t-78 -20q-38 0 -76.5 13t-82.5 33q-55 26 -88 37.5t-59 11.5q-35 0 -56 -23t-25 -58h-100z" />
    <glyph glyph-name="uni1EB3.SngStory" unicode="&#x1eb3;" horiz-adv-x="1150" 
d="M595 870q-32 0 -64.5 -7.5t-64 -25.5t-61 -47.5t-55.5 -74.5q-27 -46 -43.5 -114.5t-16.5 -140.5q0 -83 15.5 -142.5t41 -98t58 -56.5t65.5 -18q42 0 91.5 26t96.5 69t88.5 99t68.5 116v375q-15 7 -38.5 14t-52 13t-62 9.5t-67.5 3.5zM1000 530q0 -189 21 -317.5
t54 -212.5h-175l-14 36t-18.5 52.5t-18 63.5t-14.5 68q-39 -50 -82.5 -94t-91.5 -78t-100 -53.5t-106 -19.5q-63 0 -125.5 27t-112.5 81t-81 135.5t-31 191.5q0 115 25.5 208.5t69.5 166.5q39 64 83 112t96.5 79.5t115.5 47.5t140 16q38 0 84.5 -5.5t95 -15.5t96.5 -24
t89 -30v-435zM990 1550q0 -73 -26 -144.5t-74.5 -128.5t-118 -92t-156.5 -35q-88 0 -157.5 35t-118 92t-74 128.5t-25.5 144.5h120q6 -51 28.5 -96t56.5 -79.5t77.5 -54.5t92.5 -20t92 20t76 54.5t55 79.5t30 96h122zM538 1660q0 64 8.5 110.5t28.5 80.5q15 24 36 44
l40.5 37.5t33 35t13.5 37.5q0 37 -28.5 58.5t-86.5 21.5q-44 0 -82 -19.5t-68 -50.5l-25 105q32 29 81 49.5t109 20.5q46 0 87 -13.5t71.5 -36.5t48.5 -54t18 -66t-17.5 -62t-40 -49t-44.5 -40t-32 -36q-18 -32 -24.5 -71.5t-6.5 -101.5h-120z" />
    <glyph glyph-name="uni1EB3.SngStory.VN" horiz-adv-x="1150" 
d="M555 1475q0 45 2.5 76.5t8 55t14 40.5t20.5 33q8 11 21.5 24t26.5 28.5t22.5 33t9.5 37.5q0 21 -22.5 41.5t-62.5 20.5q-32 0 -68.5 -14t-66.5 -41l-20 90q34 29 78 44.5t97 15.5q33 0 65.5 -11t58 -30.5t41 -46t15.5 -58.5t-9.5 -55t-23.5 -41t-29.5 -31.5t-27.5 -26.5
q-12 -14 -20 -28t-12.5 -34t-6 -49.5t-1.5 -73.5h-110zM990 1550q0 -73 -26 -144.5t-74.5 -128.5t-118 -92t-156.5 -35q-88 0 -157.5 35t-118 92t-74 128.5t-25.5 144.5h120q6 -51 28.5 -96t56.5 -79.5t77.5 -54.5t92.5 -20t92 20t76 54.5t55 79.5t30 96h122zM595 870
q-32 0 -64.5 -7.5t-64 -25.5t-61 -47.5t-55.5 -74.5q-27 -46 -43.5 -114.5t-16.5 -140.5q0 -83 15.5 -142.5t41 -98t58 -56.5t65.5 -18q42 0 91.5 26t96.5 69t88.5 99t68.5 116v375q-15 7 -38.5 14t-52 13t-62 9.5t-67.5 3.5zM1000 530q0 -189 21 -317.5t54 -212.5h-175
l-14 36t-18.5 52.5t-18 63.5t-14.5 68q-39 -50 -82.5 -94t-91.5 -78t-100 -53.5t-106 -19.5q-63 0 -125.5 27t-112.5 81t-81 135.5t-31 191.5q0 115 25.5 208.5t69.5 166.5q39 64 83 112t96.5 79.5t115.5 47.5t140 16q38 0 84.5 -5.5t95 -15.5t96.5 -24t89 -30v-435z" />
    <glyph glyph-name="uni01CE.SngStory" unicode="&#x1ce;" horiz-adv-x="1150" 
d="M595 870q-32 0 -64.5 -7.5t-64 -25.5t-61 -47.5t-55.5 -74.5q-27 -46 -43.5 -114.5t-16.5 -140.5q0 -83 15.5 -142.5t41 -98t58 -56.5t65.5 -18q42 0 91.5 26t96.5 69t88.5 99t68.5 116v375q-15 7 -38.5 14t-52 13t-62 9.5t-67.5 3.5zM1000 530q0 -189 21 -317.5
t54 -212.5h-175l-14 36t-18.5 52.5t-18 63.5t-14.5 68q-39 -50 -82.5 -94t-91.5 -78t-100 -53.5t-106 -19.5q-63 0 -125.5 27t-112.5 81t-81 135.5t-31 191.5q0 115 25.5 208.5t69.5 166.5q39 64 83 112t96.5 79.5t115.5 47.5t140 16q38 0 84.5 -5.5t95 -15.5t96.5 -24
t89 -30v-435zM340 1600l275 -280l275 280h150l-340 -430h-170l-340 430h150z" />
    <glyph glyph-name="atilde.SngStory" unicode="&#xe3;" horiz-adv-x="1150" 
d="M595 870q-32 0 -64.5 -7.5t-64 -25.5t-61 -47.5t-55.5 -74.5q-27 -46 -43.5 -114.5t-16.5 -140.5q0 -83 15.5 -142.5t41 -98t58 -56.5t65.5 -18q42 0 91.5 26t96.5 69t88.5 99t68.5 116v375q-15 7 -38.5 14t-52 13t-62 9.5t-67.5 3.5zM1000 530q0 -189 21 -317.5
t54 -212.5h-175l-14 36t-18.5 52.5t-18 63.5t-14.5 68q-39 -50 -82.5 -94t-91.5 -78t-100 -53.5t-106 -19.5q-63 0 -125.5 27t-112.5 81t-81 135.5t-31 191.5q0 115 25.5 208.5t69.5 166.5q39 64 83 112t96.5 79.5t115.5 47.5t140 16q38 0 84.5 -5.5t95 -15.5t96.5 -24
t89 -30v-435zM260 1205q0 46 13.5 90.5t38 80t60 57.5t80.5 22q21 0 41 -4t40.5 -11.5t43 -17t48.5 -19.5l48.5 -20t40 -15t34.5 -9.5t32 -3.5q35 0 57.5 25t27.5 60h105q0 -48 -13.5 -93t-39 -80t-62.5 -56t-83 -21q-40 0 -80.5 13.5t-86.5 34.5q-58 27 -92.5 39.5
t-62.5 12.5q-37 0 -59 -24t-26 -61h-105z" />
    <glyph glyph-name="amacron.SngStory" unicode="&#x101;" horiz-adv-x="1150" 
d="M595 870q-32 0 -64.5 -7.5t-64 -25.5t-61 -47.5t-55.5 -74.5q-27 -46 -43.5 -114.5t-16.5 -140.5q0 -83 15.5 -142.5t41 -98t58 -56.5t65.5 -18q42 0 91.5 26t96.5 69t88.5 99t68.5 116v375q-15 7 -38.5 14t-52 13t-62 9.5t-67.5 3.5zM1000 530q0 -189 21 -317.5
t54 -212.5h-175l-14 36t-18.5 52.5t-18 63.5t-14.5 68q-39 -50 -82.5 -94t-91.5 -78t-100 -53.5t-106 -19.5q-63 0 -125.5 27t-112.5 81t-81 135.5t-31 191.5q0 115 25.5 208.5t69.5 166.5q39 64 83 112t96.5 79.5t115.5 47.5t140 16q38 0 84.5 -5.5t95 -15.5t96.5 -24
t89 -30v-435zM240 1390h750v-150h-750v150z" />
    <glyph glyph-name="adieresis.SngStory" unicode="&#xe4;" horiz-adv-x="1150" 
d="M595 870q-32 0 -64.5 -7.5t-64 -25.5t-61 -47.5t-55.5 -74.5q-27 -46 -43.5 -114.5t-16.5 -140.5q0 -83 15.5 -142.5t41 -98t58 -56.5t65.5 -18q42 0 91.5 26t96.5 69t88.5 99t68.5 116v375q-15 7 -38.5 14t-52 13t-62 9.5t-67.5 3.5zM1000 530q0 -189 21 -317.5
t54 -212.5h-175l-14 36t-18.5 52.5t-18 63.5t-14.5 68q-39 -50 -82.5 -94t-91.5 -78t-100 -53.5t-106 -19.5q-63 0 -125.5 27t-112.5 81t-81 135.5t-31 191.5q0 115 25.5 208.5t69.5 166.5q39 64 83 112t96.5 79.5t115.5 47.5t140 16q38 0 84.5 -5.5t95 -15.5t96.5 -24
t89 -30v-435zM278 1345q0 28 9.5 52.5t26.5 43t40 29t51 10.5t51.5 -10.5t40.5 -29t26.5 -43t9.5 -52.5t-9.5 -52.5t-26.5 -43t-40.5 -29t-51.5 -10.5t-51 10.5t-40 29t-26.5 43t-9.5 52.5zM698 1345q0 28 9.5 52.5t26.5 43t40 29t51 10.5t51.5 -10.5t40.5 -29t26.5 -43
t9.5 -52.5t-9.5 -52.5t-26.5 -43t-40.5 -29t-51.5 -10.5t-51 10.5t-40 29t-26.5 43t-9.5 52.5z" />
    <glyph glyph-name="uni01DF.SngStory" unicode="&#x1df;" horiz-adv-x="1150" 
d="M595 870q-32 0 -64.5 -7.5t-64 -25.5t-61 -47.5t-55.5 -74.5q-27 -46 -43.5 -114.5t-16.5 -140.5q0 -83 15.5 -142.5t41 -98t58 -56.5t65.5 -18q42 0 91.5 26t96.5 69t88.5 99t68.5 116v375q-15 7 -38.5 14t-52 13t-62 9.5t-67.5 3.5zM1000 530q0 -189 21 -317.5
t54 -212.5h-175l-14 36t-18.5 52.5t-18 63.5t-14.5 68q-39 -50 -82.5 -94t-91.5 -78t-100 -53.5t-106 -19.5q-63 0 -125.5 27t-112.5 81t-81 135.5t-31 191.5q0 115 25.5 208.5t69.5 166.5q39 64 83 112t96.5 79.5t115.5 47.5t140 16q38 0 84.5 -5.5t95 -15.5t96.5 -24
t89 -30v-435zM278 1345q0 28 9.5 52.5t26.5 43t40 29t51 10.5t51.5 -10.5t40.5 -29t26.5 -43t9.5 -52.5t-9.5 -52.5t-26.5 -43t-40.5 -29t-51.5 -10.5t-51 10.5t-40 29t-26.5 43t-9.5 52.5zM698 1345q0 28 9.5 52.5t26.5 43t40 29t51 10.5t51.5 -10.5t40.5 -29t26.5 -43
t9.5 -52.5t-9.5 -52.5t-26.5 -43t-40.5 -29t-51.5 -10.5t-51 10.5t-40 29t-26.5 43t-9.5 52.5zM240 1795h750v-150h-750v150z" />
    <glyph glyph-name="uni0227.SngStory" unicode="&#x227;" horiz-adv-x="1150" 
d="M595 870q-32 0 -64.5 -7.5t-64 -25.5t-61 -47.5t-55.5 -74.5q-27 -46 -43.5 -114.5t-16.5 -140.5q0 -83 15.5 -142.5t41 -98t58 -56.5t65.5 -18q42 0 91.5 26t96.5 69t88.5 99t68.5 116v375q-15 7 -38.5 14t-52 13t-62 9.5t-67.5 3.5zM1000 530q0 -189 21 -317.5
t54 -212.5h-175l-14 36t-18.5 52.5t-18 63.5t-14.5 68q-39 -50 -82.5 -94t-91.5 -78t-100 -53.5t-106 -19.5q-63 0 -125.5 27t-112.5 81t-81 135.5t-31 191.5q0 115 25.5 208.5t69.5 166.5q39 64 83 112t96.5 79.5t115.5 47.5t140 16q38 0 84.5 -5.5t95 -15.5t96.5 -24
t89 -30v-435zM480 1345q0 28 10.5 52.5t29 43t43 29t52.5 10.5t52.5 -10.5t43 -29t29 -43t10.5 -52.5t-10.5 -52.5t-29 -43t-43 -29t-52.5 -10.5t-52.5 10.5t-43 29t-29 43t-10.5 52.5z" />
    <glyph glyph-name="uni01E1.SngStory" unicode="&#x1e1;" horiz-adv-x="1150" 
d="M595 870q-32 0 -64.5 -7.5t-64 -25.5t-61 -47.5t-55.5 -74.5q-27 -46 -43.5 -114.5t-16.5 -140.5q0 -83 15.5 -142.5t41 -98t58 -56.5t65.5 -18q42 0 91.5 26t96.5 69t88.5 99t68.5 116v375q-15 7 -38.5 14t-52 13t-62 9.5t-67.5 3.5zM1000 530q0 -189 21 -317.5
t54 -212.5h-175l-14 36t-18.5 52.5t-18 63.5t-14.5 68q-39 -50 -82.5 -94t-91.5 -78t-100 -53.5t-106 -19.5q-63 0 -125.5 27t-112.5 81t-81 135.5t-31 191.5q0 115 25.5 208.5t69.5 166.5q39 64 83 112t96.5 79.5t115.5 47.5t140 16q38 0 84.5 -5.5t95 -15.5t96.5 -24
t89 -30v-435zM480 1345q0 28 10.5 52.5t29 43t43 29t52.5 10.5t52.5 -10.5t43 -29t29 -43t10.5 -52.5t-10.5 -52.5t-29 -43t-43 -29t-52.5 -10.5t-52.5 10.5t-43 29t-29 43t-10.5 52.5zM240 1795h750v-150h-750v150z" />
    <glyph glyph-name="aring.SngStory" unicode="&#xe5;" horiz-adv-x="1150" 
d="M595 870q-32 0 -64.5 -7.5t-64 -25.5t-61 -47.5t-55.5 -74.5q-27 -46 -43.5 -114.5t-16.5 -140.5q0 -83 15.5 -142.5t41 -98t58 -56.5t65.5 -18q42 0 91.5 26t96.5 69t88.5 99t68.5 116v375q-15 7 -38.5 14t-52 13t-62 9.5t-67.5 3.5zM1000 530q0 -189 21 -317.5
t54 -212.5h-175l-14 36t-18.5 52.5t-18 63.5t-14.5 68q-39 -50 -82.5 -94t-91.5 -78t-100 -53.5t-106 -19.5q-63 0 -125.5 27t-112.5 81t-81 135.5t-31 191.5q0 115 25.5 208.5t69.5 166.5q39 64 83 112t96.5 79.5t115.5 47.5t140 16q38 0 84.5 -5.5t95 -15.5t96.5 -24
t89 -30v-435zM400 1385q0 45 16.5 84t46 68.5t68.5 46t84 16.5t84 -16.5t68.5 -46t46 -68.5t16.5 -84t-16.5 -84t-46 -68.5t-68.5 -46t-84 -16.5t-84 16.5t-68.5 46t-46 68.5t-16.5 84zM715 1385q0 45 -27.5 72.5t-72.5 27.5t-72.5 -27.5t-27.5 -72.5t27.5 -72.5t72.5 -27.5
t72.5 27.5t27.5 72.5z" />
    <glyph glyph-name="aringacute.SngStory" unicode="&#x1fb;" horiz-adv-x="1150" 
d="M595 870q-32 0 -64.5 -7.5t-64 -25.5t-61 -47.5t-55.5 -74.5q-27 -46 -43.5 -114.5t-16.5 -140.5q0 -83 15.5 -142.5t41 -98t58 -56.5t65.5 -18q42 0 91.5 26t96.5 69t88.5 99t68.5 116v375q-15 7 -38.5 14t-52 13t-62 9.5t-67.5 3.5zM1000 530q0 -189 21 -317.5
t54 -212.5h-175l-14 36t-18.5 52.5t-18 63.5t-14.5 68q-39 -50 -82.5 -94t-91.5 -78t-100 -53.5t-106 -19.5q-63 0 -125.5 27t-112.5 81t-81 135.5t-31 191.5q0 115 25.5 208.5t69.5 166.5q39 64 83 112t96.5 79.5t115.5 47.5t140 16q38 0 84.5 -5.5t95 -15.5t96.5 -24
t89 -30v-435zM400 1385q0 45 16.5 84t46 68.5t68.5 46t84 16.5t84 -16.5t68.5 -46t46 -68.5t16.5 -84t-16.5 -84t-46 -68.5t-68.5 -46t-84 -16.5t-84 16.5t-68.5 46t-46 68.5t-16.5 84zM715 1385q0 45 -27.5 72.5t-72.5 27.5t-72.5 -27.5t-27.5 -72.5t27.5 -72.5t72.5 -27.5
t72.5 27.5t27.5 72.5zM1015 2135l-420 -430h-160l350 430h230z" />
    <glyph glyph-name="uni1EA3.SngStory" unicode="&#x1ea3;" horiz-adv-x="1150" 
d="M595 870q-32 0 -64.5 -7.5t-64 -25.5t-61 -47.5t-55.5 -74.5q-27 -46 -43.5 -114.5t-16.5 -140.5q0 -83 15.5 -142.5t41 -98t58 -56.5t65.5 -18q42 0 91.5 26t96.5 69t88.5 99t68.5 116v375q-15 7 -38.5 14t-52 13t-62 9.5t-67.5 3.5zM1000 530q0 -189 21 -317.5
t54 -212.5h-175l-14 36t-18.5 52.5t-18 63.5t-14.5 68q-39 -50 -82.5 -94t-91.5 -78t-100 -53.5t-106 -19.5q-63 0 -125.5 27t-112.5 81t-81 135.5t-31 191.5q0 115 25.5 208.5t69.5 166.5q39 64 83 112t96.5 79.5t115.5 47.5t140 16q38 0 84.5 -5.5t95 -15.5t96.5 -24
t89 -30v-435zM538 1125q0 64 8.5 110.5t28.5 80.5q15 24 36 44l40.5 37.5t33 35t13.5 37.5q0 37 -28.5 58.5t-86.5 21.5q-44 0 -82 -19.5t-68 -50.5l-25 105q32 29 81 49.5t109 20.5q46 0 87 -13.5t71.5 -36.5t48.5 -54t18 -66t-17.5 -62t-40 -49t-44.5 -40t-32 -36
q-18 -32 -24.5 -71.5t-6.5 -101.5h-120z" />
    <glyph glyph-name="uni1EA1.SngStory" unicode="&#x1ea1;" horiz-adv-x="1150" 
d="M595 870q-32 0 -64.5 -7.5t-64 -25.5t-61 -47.5t-55.5 -74.5q-27 -46 -43.5 -114.5t-16.5 -140.5q0 -83 15.5 -142.5t41 -98t58 -56.5t65.5 -18q42 0 91.5 26t96.5 69t88.5 99t68.5 116v375q-15 7 -38.5 14t-52 13t-62 9.5t-67.5 3.5zM1000 530q0 -189 21 -317.5
t54 -212.5h-175l-14 36t-18.5 52.5t-18 63.5t-14.5 68q-39 -50 -82.5 -94t-91.5 -78t-100 -53.5t-106 -19.5q-63 0 -125.5 27t-112.5 81t-81 135.5t-31 191.5q0 115 25.5 208.5t69.5 166.5q39 64 83 112t96.5 79.5t115.5 47.5t140 16q38 0 84.5 -5.5t95 -15.5t96.5 -24
t89 -30v-435zM480 -344q0 28 10.5 52.5t29 43t43 29t52.5 10.5t52.5 -10.5t43 -29t29 -43t10.5 -52.5t-10.5 -52.5t-29 -43t-43 -29t-52.5 -10.5t-52.5 10.5t-43 29t-29 43t-10.5 52.5z" />
    <glyph glyph-name="aeacute" unicode="&#x1fd;" horiz-adv-x="1745" 
d="M1230 890q-110 0 -187.5 -64.5t-102.5 -200.5h520q0 64 -18.5 113.5t-50 83.5t-73 51t-88.5 17zM755 485q-19 -1 -53 -2t-72 -2.5t-74.5 -4t-60.5 -6.5q-63 -11 -104 -29.5t-66 -42.5t-35 -54t-10 -64q0 -30 12.5 -55.5t35 -44t53.5 -29.5t69 -11t75 6.5t74 26t75.5 56
t80.5 96.5q5 6 9 11.5t6 13.5q-7 31 -11 65t-4 70zM1245 1040q77 0 136.5 -19.5t103.5 -53.5t73.5 -80t48 -99t26 -110t7.5 -113v-80h-710q3 -88 29.5 -153t70.5 -107.5t103 -63.5t127 -21q48 0 94 5t91 17t89.5 31t90.5 47l20 -165q-53 -27 -102 -46t-98.5 -31
t-100.5 -17.5t-109 -5.5q-62 0 -120.5 14t-111 41.5t-96.5 69t-77 96.5l-22.5 -25.5l-22.5 -25.5q-44 -47 -89.5 -79.5t-91 -52.5t-92 -29t-92.5 -9q-71 0 -130.5 23t-102.5 61.5t-67.5 89t-24.5 106.5q0 57 19 114t64 105.5t120 84.5t187 51q26 3 65.5 5.5t80 4t75 3
t49.5 2.5v85q0 45 -19.5 77.5t-54 53t-82.5 30t-104 9.5q-40 0 -74.5 -8t-69 -24t-71 -39t-80.5 -54q0 16 1 42.5l2 55t3 55t4 42.5q39 16 74 32.5t73 29t82 20.5t101 8q51 0 100.5 -11t94 -32.5t82 -54.5t63.5 -77q68 83 162 129t203 46zM1265 1600l-420 -430h-160l350 430
h230z" />
    <glyph glyph-name="uni01E3" unicode="&#x1e3;" horiz-adv-x="1745" 
d="M1230 890q-110 0 -187.5 -64.5t-102.5 -200.5h520q0 64 -18.5 113.5t-50 83.5t-73 51t-88.5 17zM755 485q-19 -1 -53 -2t-72 -2.5t-74.5 -4t-60.5 -6.5q-63 -11 -104 -29.5t-66 -42.5t-35 -54t-10 -64q0 -30 12.5 -55.5t35 -44t53.5 -29.5t69 -11t75 6.5t74 26t75.5 56
t80.5 96.5q5 6 9 11.5t6 13.5q-7 31 -11 65t-4 70zM1245 1040q77 0 136.5 -19.5t103.5 -53.5t73.5 -80t48 -99t26 -110t7.5 -113v-80h-710q3 -88 29.5 -153t70.5 -107.5t103 -63.5t127 -21q48 0 94 5t91 17t89.5 31t90.5 47l20 -165q-53 -27 -102 -46t-98.5 -31
t-100.5 -17.5t-109 -5.5q-62 0 -120.5 14t-111 41.5t-96.5 69t-77 96.5l-22.5 -25.5l-22.5 -25.5q-44 -47 -89.5 -79.5t-91 -52.5t-92 -29t-92.5 -9q-71 0 -130.5 23t-102.5 61.5t-67.5 89t-24.5 106.5q0 57 19 114t64 105.5t120 84.5t187 51q26 3 65.5 5.5t80 4t75 3
t49.5 2.5v85q0 45 -19.5 77.5t-54 53t-82.5 30t-104 9.5q-40 0 -74.5 -8t-69 -24t-71 -39t-80.5 -54q0 16 1 42.5l2 55t3 55t4 42.5q39 16 74 32.5t73 29t82 20.5t101 8q51 0 100.5 -11t94 -32.5t82 -54.5t63.5 -77q68 83 162 129t203 46zM490 1390h750v-150h-750v150z" />
    <glyph glyph-name="uni1EA4" unicode="&#x1ea4;" horiz-adv-x="1395" 
d="M433 540h507l-255 725zM994 385h-615l-134 -385h-205l27 63l30.5 74.5l36.5 94.5l46 123l400 1105h215l400 -1105l45 -123l37 -94.5l31 -74.5l27 -63h-205zM262 1600l340 430h170l340 -430h-150l-275 280l-275 -280h-150zM1087 2565l-420 -430h-160l350 430h230z" />
    <glyph glyph-name="uni1EA4.VN" horiz-adv-x="1395" 
d="M433 540h507l-255 725zM994 385h-615l-134 -385h-205l27 63l30.5 74.5l36.5 94.5l46 123l400 1105h215l400 -1105l45 -123l37 -94.5l31 -74.5l27 -63h-205zM1231 2093l-222 -234l-67 70l198 247zM262 1600l340 430h170l340 -430h-150l-275 280l-275 -280h-150z" />
    <glyph glyph-name="uni1EA6" unicode="&#x1ea6;" horiz-adv-x="1395" 
d="M433 540h507l-255 725zM994 385h-615l-134 -385h-205l27 63l30.5 74.5l36.5 94.5l46 123l400 1105h215l400 -1105l45 -123l37 -94.5l31 -74.5l27 -63h-205zM262 1600l340 430h170l340 -430h-150l-275 280l-275 -280h-150zM527 2565l350 -430h-160l-420 430h230z" />
    <glyph glyph-name="uni1EA6.VN" horiz-adv-x="1395" 
d="M433 540h507l-255 725zM994 385h-615l-134 -385h-205l27 63l30.5 74.5l36.5 94.5l46 123l400 1105h215l400 -1105l45 -123l37 -94.5l31 -74.5l27 -63h-205zM234 2176l198 -247l-67 -70l-222 234zM262 1600l340 430h170l340 -430h-150l-275 280l-275 -280h-150z" />
    <glyph glyph-name="uni1EAA" unicode="&#x1eaa;" horiz-adv-x="1395" 
d="M433 540h507l-255 725zM994 385h-615l-134 -385h-205l27 63l30.5 74.5l36.5 94.5l46 123l400 1105h215l400 -1105l45 -123l37 -94.5l31 -74.5l27 -63h-205zM262 1600l340 430h170l340 -430h-150l-275 280l-275 -280h-150zM332 2170q0 46 13.5 90.5t38 80t60 57.5t80.5 22
q21 0 41 -4t40.5 -11.5t43 -17t48.5 -19.5l48.5 -20t40 -15t34.5 -9.5t32 -3.5q35 0 57.5 25t27.5 60h105q0 -48 -13.5 -93t-39 -80t-62.5 -56t-83 -21q-40 0 -80.5 13.5t-86.5 34.5q-58 27 -92.5 39.5t-62.5 12.5q-37 0 -59 -24t-26 -61h-105z" />
    <glyph glyph-name="uni1EAA.VN" horiz-adv-x="1395" 
d="M433 540h507l-255 725zM994 385h-615l-134 -385h-205l27 63l30.5 74.5l36.5 94.5l46 123l400 1105h215l400 -1105l45 -123l37 -94.5l31 -74.5l27 -63h-205zM348 2069q0 43 12.5 86t36.5 76.5t58 54.5t76 21q40 0 77 -13.5t87 -35.5q50 -23 83.5 -34.5t63.5 -11.5
q34 0 55 24t26 57h100q0 -46 -13 -89t-37.5 -76t-59.5 -53t-78 -20q-38 0 -76.5 13t-82.5 33q-55 26 -88 37.5t-59 11.5q-35 0 -56 -23t-25 -58h-100zM262 1600l340 430h170l340 -430h-150l-275 280l-275 -280h-150z" />
    <glyph glyph-name="uni1EA8" unicode="&#x1ea8;" horiz-adv-x="1395" 
d="M433 540h507l-255 725zM994 385h-615l-134 -385h-205l27 63l30.5 74.5l36.5 94.5l46 123l400 1105h215l400 -1105l45 -123l37 -94.5l31 -74.5l27 -63h-205zM262 1600l340 430h170l340 -430h-150l-275 280l-275 -280h-150zM610 2090q0 64 8.5 110.5t28.5 80.5q15 24 36 44
l40.5 37.5t33 35t13.5 37.5q0 37 -28.5 58.5t-86.5 21.5q-44 0 -82 -19.5t-68 -50.5l-25 105q32 29 81 49.5t109 20.5q46 0 87 -13.5t71.5 -36.5t48.5 -54t18 -66t-17.5 -62t-40 -49t-44.5 -40t-32 -36q-18 -32 -24.5 -71.5t-6.5 -101.5h-120z" />
    <glyph glyph-name="uni1EA8.VN" horiz-adv-x="1395" 
d="M433 540h507l-255 725zM994 385h-615l-134 -385h-205l27 63l30.5 74.5l36.5 94.5l46 123l400 1105h215l400 -1105l45 -123l37 -94.5l31 -74.5l27 -63h-205zM1037 1800q0 75 7.5 113.5t24.5 60.5l49.5 62t18.5 44q0 25 -19 42.5t-46 17.5q-32 0 -60.5 -8t-54.5 -27l-20 90
q27 18 65.5 29t91.5 11q33 0 62 -10t50.5 -28.5t33.5 -45.5t12 -61q0 -18 -3 -32.5t-11.5 -30t-23.5 -33t-40 -40.5q-12 -11 -18.5 -22.5t-9.5 -29t-3.5 -42t-0.5 -60.5h-105zM262 1600l340 430h170l340 -430h-150l-275 280l-275 -280h-150z" />
    <glyph glyph-name="uni1EAC" unicode="&#x1eac;" horiz-adv-x="1395" 
d="M433 540h507l-255 725zM994 385h-615l-134 -385h-205l27 63l30.5 74.5l36.5 94.5l46 123l400 1105h215l400 -1105l45 -123l37 -94.5l31 -74.5l27 -63h-205zM552 -344q0 28 10.5 52.5t29 43t43 29t52.5 10.5t52.5 -10.5t43 -29t29 -43t10.5 -52.5t-10.5 -52.5t-29 -43
t-43 -29t-52.5 -10.5t-52.5 10.5t-43 29t-29 43t-10.5 52.5zM262 1600l340 430h170l340 -430h-150l-275 280l-275 -280h-150z" />
    <glyph glyph-name="Abreve" unicode="&#x102;" horiz-adv-x="1395" 
d="M433 540h507l-255 725zM994 385h-615l-134 -385h-205l27 63l30.5 74.5l36.5 94.5l46 123l400 1105h215l400 -1105l45 -123l37 -94.5l31 -74.5l27 -63h-205zM1062 1980q0 -73 -26 -144.5t-74.5 -128.5t-118 -92t-156.5 -35q-88 0 -157.5 35t-118 92t-74 128.5t-25.5 144.5
h120q6 -51 28.5 -96t56.5 -79.5t77.5 -54.5t92.5 -20t92 20t76 54.5t55 79.5t30 96h122z" />
    <glyph glyph-name="uni1EAE" unicode="&#x1eae;" horiz-adv-x="1395" 
d="M433 540h507l-255 725zM994 385h-615l-134 -385h-205l27 63l30.5 74.5l36.5 94.5l46 123l400 1105h215l400 -1105l45 -123l37 -94.5l31 -74.5l27 -63h-205zM1062 1980q0 -73 -26 -144.5t-74.5 -128.5t-118 -92t-156.5 -35q-88 0 -157.5 35t-118 92t-74 128.5t-25.5 144.5
h120q6 -51 28.5 -96t56.5 -79.5t77.5 -54.5t92.5 -20t92 20t76 54.5t55 79.5t30 96h122zM1087 2565l-420 -430h-160l350 430h230z" />
    <glyph glyph-name="uni1EAE.VN" horiz-adv-x="1395" 
d="M433 540h507l-255 725zM994 385h-615l-134 -385h-205l27 63l30.5 74.5l36.5 94.5l46 123l400 1105h215l400 -1105l45 -123l37 -94.5l31 -74.5l27 -63h-205zM1029 2288l-252 -263h-150l222 263h180zM1062 1980q0 -73 -26 -144.5t-74.5 -128.5t-118 -92t-156.5 -35
q-88 0 -157.5 35t-118 92t-74 128.5t-25.5 144.5h120q6 -51 28.5 -96t56.5 -79.5t77.5 -54.5t92.5 -20t92 20t76 54.5t55 79.5t30 96h122z" />
    <glyph glyph-name="uni1EB0" unicode="&#x1eb0;" horiz-adv-x="1395" 
d="M433 540h507l-255 725zM994 385h-615l-134 -385h-205l27 63l30.5 74.5l36.5 94.5l46 123l400 1105h215l400 -1105l45 -123l37 -94.5l31 -74.5l27 -63h-205zM1062 1980q0 -73 -26 -144.5t-74.5 -128.5t-118 -92t-156.5 -35q-88 0 -157.5 35t-118 92t-74 128.5t-25.5 144.5
h120q6 -51 28.5 -96t56.5 -79.5t77.5 -54.5t92.5 -20t92 20t76 54.5t55 79.5t30 96h122zM527 2565l350 -430h-160l-420 430h230z" />
    <glyph glyph-name="uni1EB0.VN" horiz-adv-x="1395" 
d="M433 540h507l-255 725zM994 385h-615l-134 -385h-205l27 63l30.5 74.5l36.5 94.5l46 123l400 1105h215l400 -1105l45 -123l37 -94.5l31 -74.5l27 -63h-205zM535 2288l222 -263h-150l-252 263h180zM1062 1980q0 -73 -26 -144.5t-74.5 -128.5t-118 -92t-156.5 -35
q-88 0 -157.5 35t-118 92t-74 128.5t-25.5 144.5h120q6 -51 28.5 -96t56.5 -79.5t77.5 -54.5t92.5 -20t92 20t76 54.5t55 79.5t30 96h122z" />
    <glyph glyph-name="uni1EB4" unicode="&#x1eb4;" horiz-adv-x="1395" 
d="M433 540h507l-255 725zM994 385h-615l-134 -385h-205l27 63l30.5 74.5l36.5 94.5l46 123l400 1105h215l400 -1105l45 -123l37 -94.5l31 -74.5l27 -63h-205zM1062 1980q0 -73 -26 -144.5t-74.5 -128.5t-118 -92t-156.5 -35q-88 0 -157.5 35t-118 92t-74 128.5t-25.5 144.5
h120q6 -51 28.5 -96t56.5 -79.5t77.5 -54.5t92.5 -20t92 20t76 54.5t55 79.5t30 96h122zM332 2170q0 46 13.5 90.5t38 80t60 57.5t80.5 22q21 0 41 -4t40.5 -11.5t43 -17t48.5 -19.5l48.5 -20t40 -15t34.5 -9.5t32 -3.5q35 0 57.5 25t27.5 60h105q0 -48 -13.5 -93t-39 -80
t-62.5 -56t-83 -21q-40 0 -80.5 13.5t-86.5 34.5q-58 27 -92.5 39.5t-62.5 12.5q-37 0 -59 -24t-26 -61h-105z" />
    <glyph glyph-name="uni1EB4.VN" horiz-adv-x="1395" 
d="M433 540h507l-255 725zM994 385h-615l-134 -385h-205l27 63l30.5 74.5l36.5 94.5l46 123l400 1105h215l400 -1105l45 -123l37 -94.5l31 -74.5l27 -63h-205zM1062 1980q0 -73 -26 -144.5t-74.5 -128.5t-118 -92t-156.5 -35q-88 0 -157.5 35t-118 92t-74 128.5t-25.5 144.5
h120q6 -51 28.5 -96t56.5 -79.5t77.5 -54.5t92.5 -20t92 20t76 54.5t55 79.5t30 96h122zM348 2053q0 43 12.5 86t36.5 76.5t58 54.5t76 21q40 0 77 -13.5t87 -35.5q50 -23 83.5 -34.5t63.5 -11.5q34 0 55 24t26 57h100q0 -46 -13 -89t-37.5 -76t-59.5 -53t-78 -20
q-38 0 -76.5 13t-82.5 33q-55 26 -88 37.5t-59 11.5q-35 0 -56 -23t-25 -58h-100z" />
    <glyph glyph-name="uni1EB2" unicode="&#x1eb2;" horiz-adv-x="1395" 
d="M433 540h507l-255 725zM994 385h-615l-134 -385h-205l27 63l30.5 74.5l36.5 94.5l46 123l400 1105h215l400 -1105l45 -123l37 -94.5l31 -74.5l27 -63h-205zM1062 1980q0 -73 -26 -144.5t-74.5 -128.5t-118 -92t-156.5 -35q-88 0 -157.5 35t-118 92t-74 128.5t-25.5 144.5
h120q6 -51 28.5 -96t56.5 -79.5t77.5 -54.5t92.5 -20t92 20t76 54.5t55 79.5t30 96h122zM610 2090q0 64 8.5 110.5t28.5 80.5q15 24 36 44l40.5 37.5t33 35t13.5 37.5q0 37 -28.5 58.5t-86.5 21.5q-44 0 -82 -19.5t-68 -50.5l-25 105q32 29 81 49.5t109 20.5q46 0 87 -13.5
t71.5 -36.5t48.5 -54t18 -66t-17.5 -62t-40 -49t-44.5 -40t-32 -36q-18 -32 -24.5 -71.5t-6.5 -101.5h-120z" />
    <glyph glyph-name="uni1EB2.VN" horiz-adv-x="1395" 
d="M433 540h507l-255 725zM994 385h-615l-134 -385h-205l27 63l30.5 74.5l36.5 94.5l46 123l400 1105h215l400 -1105l45 -123l37 -94.5l31 -74.5l27 -63h-205zM627 1905q0 45 2.5 76.5t8 55t14 40.5t20.5 33q8 11 21.5 24t26.5 28.5t22.5 33t9.5 37.5q0 21 -22.5 41.5
t-62.5 20.5q-32 0 -68.5 -14t-66.5 -41l-20 90q34 29 78 44.5t97 15.5q33 0 65.5 -11t58 -30.5t41 -46t15.5 -58.5t-9.5 -55t-23.5 -41t-29.5 -31.5t-27.5 -26.5q-12 -14 -20 -28t-12.5 -34t-6 -49.5t-1.5 -73.5h-110zM1062 1980q0 -73 -26 -144.5t-74.5 -128.5t-118 -92
t-156.5 -35q-88 0 -157.5 35t-118 92t-74 128.5t-25.5 144.5h120q6 -51 28.5 -96t56.5 -79.5t77.5 -54.5t92.5 -20t92 20t76 54.5t55 79.5t30 96h122z" />
    <glyph glyph-name="uni1EB6" unicode="&#x1eb6;" horiz-adv-x="1395" 
d="M433 540h507l-255 725zM994 385h-615l-134 -385h-205l27 63l30.5 74.5l36.5 94.5l46 123l400 1105h215l400 -1105l45 -123l37 -94.5l31 -74.5l27 -63h-205zM552 -344q0 28 10.5 52.5t29 43t43 29t52.5 10.5t52.5 -10.5t43 -29t29 -43t10.5 -52.5t-10.5 -52.5t-29 -43
t-43 -29t-52.5 -10.5t-52.5 10.5t-43 29t-29 43t-10.5 52.5zM1062 1980q0 -73 -26 -144.5t-74.5 -128.5t-118 -92t-156.5 -35q-88 0 -157.5 35t-118 92t-74 128.5t-25.5 144.5h120q6 -51 28.5 -96t56.5 -79.5t77.5 -54.5t92.5 -20t92 20t76 54.5t55 79.5t30 96h122z" />
    <glyph glyph-name="uni01CD" unicode="&#x1cd;" horiz-adv-x="1395" 
d="M433 540h507l-255 725zM994 385h-615l-134 -385h-205l27 63l30.5 74.5l36.5 94.5l46 123l400 1105h215l400 -1105l45 -123l37 -94.5l31 -74.5l27 -63h-205zM412 2030l275 -280l275 280h150l-340 -430h-170l-340 430h150z" />
    <glyph glyph-name="Amacron" unicode="&#x100;" horiz-adv-x="1395" 
d="M433 540h507l-255 725zM994 385h-615l-134 -385h-205l27 63l30.5 74.5l36.5 94.5l46 123l400 1105h215l400 -1105l45 -123l37 -94.5l31 -74.5l27 -63h-205zM312 1820h750v-150h-750v150z" />
    <glyph glyph-name="uni01DE" unicode="&#x1de;" horiz-adv-x="1395" 
d="M433 540h507l-255 725zM994 385h-615l-134 -385h-205l27 63l30.5 74.5l36.5 94.5l46 123l400 1105h215l400 -1105l45 -123l37 -94.5l31 -74.5l27 -63h-205zM350 1775q0 28 9.5 52.5t26.5 43t40 29t51 10.5t51.5 -10.5t40.5 -29t26.5 -43t9.5 -52.5t-9.5 -52.5t-26.5 -43
t-40.5 -29t-51.5 -10.5t-51 10.5t-40 29t-26.5 43t-9.5 52.5zM770 1775q0 28 9.5 52.5t26.5 43t40 29t51 10.5t51.5 -10.5t40.5 -29t26.5 -43t9.5 -52.5t-9.5 -52.5t-26.5 -43t-40.5 -29t-51.5 -10.5t-51 10.5t-40 29t-26.5 43t-9.5 52.5zM312 2225h750v-150h-750v150z" />
    <glyph glyph-name="uni0226" unicode="&#x226;" horiz-adv-x="1395" 
d="M433 540h507l-255 725zM994 385h-615l-134 -385h-205l27 63l30.5 74.5l36.5 94.5l46 123l400 1105h215l400 -1105l45 -123l37 -94.5l31 -74.5l27 -63h-205zM552 1775q0 28 10.5 52.5t29 43t43 29t52.5 10.5t52.5 -10.5t43 -29t29 -43t10.5 -52.5t-10.5 -52.5t-29 -43
t-43 -29t-52.5 -10.5t-52.5 10.5t-43 29t-29 43t-10.5 52.5z" />
    <glyph glyph-name="uni01E0" unicode="&#x1e0;" horiz-adv-x="1395" 
d="M433 540h507l-255 725zM994 385h-615l-134 -385h-205l27 63l30.5 74.5l36.5 94.5l46 123l400 1105h215l400 -1105l45 -123l37 -94.5l31 -74.5l27 -63h-205zM552 1775q0 28 10.5 52.5t29 43t43 29t52.5 10.5t52.5 -10.5t43 -29t29 -43t10.5 -52.5t-10.5 -52.5t-29 -43
t-43 -29t-52.5 -10.5t-52.5 10.5t-43 29t-29 43t-10.5 52.5zM312 2225h750v-150h-750v150z" />
    <glyph glyph-name="Aringacute" unicode="&#x1fa;" horiz-adv-x="1395" 
d="M433 540h507l-255 725zM994 385h-615l-134 -385h-205l27 63l30.5 74.5l36.5 94.5l46 123l400 1105h215l400 -1105l45 -123l37 -94.5l31 -74.5l27 -63h-205zM472 1815q0 45 16.5 84t46 68.5t68.5 46t84 16.5t84 -16.5t68.5 -46t46 -68.5t16.5 -84t-16.5 -84t-46 -68.5
t-68.5 -46t-84 -16.5t-84 16.5t-68.5 46t-46 68.5t-16.5 84zM787 1815q0 45 -27.5 72.5t-72.5 27.5t-72.5 -27.5t-27.5 -72.5t27.5 -72.5t72.5 -27.5t72.5 27.5t27.5 72.5zM1087 2565l-420 -430h-160l350 430h230z" />
    <glyph glyph-name="uni1EA2" unicode="&#x1ea2;" horiz-adv-x="1395" 
d="M433 540h507l-255 725zM994 385h-615l-134 -385h-205l27 63l30.5 74.5l36.5 94.5l46 123l400 1105h215l400 -1105l45 -123l37 -94.5l31 -74.5l27 -63h-205zM610 1555q0 64 8.5 110.5t28.5 80.5q15 24 36 44l40.5 37.5t33 35t13.5 37.5q0 37 -28.5 58.5t-86.5 21.5
q-44 0 -82 -19.5t-68 -50.5l-25 105q32 29 81 49.5t109 20.5q46 0 87 -13.5t71.5 -36.5t48.5 -54t18 -66t-17.5 -62t-40 -49t-44.5 -40t-32 -36q-18 -32 -24.5 -71.5t-6.5 -101.5h-120z" />
    <glyph glyph-name="uni1EA0" unicode="&#x1ea0;" horiz-adv-x="1395" 
d="M433 540h507l-255 725zM994 385h-615l-134 -385h-205l27 63l30.5 74.5l36.5 94.5l46 123l400 1105h215l400 -1105l45 -123l37 -94.5l31 -74.5l27 -63h-205zM552 -344q0 28 10.5 52.5t29 43t43 29t52.5 10.5t52.5 -10.5t43 -29t29 -43t10.5 -52.5t-10.5 -52.5t-29 -43
t-43 -29t-52.5 -10.5t-52.5 10.5t-43 29t-29 43t-10.5 52.5z" />
    <glyph glyph-name="AEacute" unicode="&#x1fc;" horiz-adv-x="1805" 
d="M905 0q3 17 5.5 42.5t4 68.5t2.5 109t2 165h-449l-190 -385h-200l62 104.5l53.5 97l49.5 96l50 101.5l515 1061h845v-165h-545v-450h470v-160h-470v-520h164q149 0 250 2t161 13v-180h-780zM547 540h372q1 135 1 319v436zM1415 2030l-420 -430h-160l350 430h230z" />
    <glyph glyph-name="uni01E2" unicode="&#x1e2;" horiz-adv-x="1805" 
d="M905 0q3 17 5.5 42.5t4 68.5t2.5 109t2 165h-449l-190 -385h-200l62 104.5l53.5 97l49.5 96l50 101.5l515 1061h845v-165h-545v-450h470v-160h-470v-520h164q149 0 250 2t161 13v-180h-780zM547 540h372q1 135 1 319v436zM640 1820h750v-150h-750v150z" />
    <glyph glyph-name="uni1E03" unicode="&#x1e03;" horiz-adv-x="1155" 
d="M145 65v1183q0 64 -1.5 128.5t-4.5 123t-9 100.5h200v-775q35 46 76 85t88.5 68t102.5 45.5t118 16.5q76 0 139 -37t109 -103.5t71.5 -158.5t25.5 -201q0 -129 -34.5 -233t-97.5 -178t-152.5 -114t-200.5 -40q-61 0 -118 8.5t-110.5 22t-103.5 29zM575 130q66 0 122 27
t96.5 76t63.5 118.5t23 153.5q0 83 -15 150t-43.5 113.5t-70.5 71.5t-96 25q-47 0 -94 -20.5t-89.5 -57.5t-79.5 -88.5t-62 -113.5v-400q37 -15 67.5 -25.5t59.5 -17t57.5 -9.5t60.5 -3zM530 1350q0 28 10.5 52.5t29 43t43 29t52.5 10.5t52.5 -10.5t43 -29t29 -43
t10.5 -52.5t-10.5 -52.5t-29 -43t-43 -29t-52.5 -10.5t-52.5 10.5t-43 29t-29 43t-10.5 52.5z" />
    <glyph glyph-name="uni1E07" unicode="&#x1e07;" horiz-adv-x="1155" 
d="M145 65v1183q0 64 -1.5 128.5t-4.5 123t-9 100.5h200v-775q35 46 76 85t88.5 68t102.5 45.5t118 16.5q76 0 139 -37t109 -103.5t71.5 -158.5t25.5 -201q0 -129 -34.5 -233t-97.5 -178t-152.5 -114t-200.5 -40q-61 0 -118 8.5t-110.5 22t-103.5 29zM575 130q66 0 122 27
t96.5 76t63.5 118.5t23 153.5q0 83 -15 150t-43.5 113.5t-70.5 71.5t-96 25q-47 0 -94 -20.5t-89.5 -57.5t-79.5 -88.5t-62 -113.5v-400q37 -15 67.5 -25.5t59.5 -17t57.5 -9.5t60.5 -3zM215 -269h750v-150h-750v150z" />
    <glyph glyph-name="uni1E05" unicode="&#x1e05;" horiz-adv-x="1155" 
d="M145 65v1183q0 64 -1.5 128.5t-4.5 123t-9 100.5h200v-775q35 46 76 85t88.5 68t102.5 45.5t118 16.5q76 0 139 -37t109 -103.5t71.5 -158.5t25.5 -201q0 -129 -34.5 -233t-97.5 -178t-152.5 -114t-200.5 -40q-61 0 -118 8.5t-110.5 22t-103.5 29zM575 130q66 0 122 27
t96.5 76t63.5 118.5t23 153.5q0 83 -15 150t-43.5 113.5t-70.5 71.5t-96 25q-47 0 -94 -20.5t-89.5 -57.5t-79.5 -88.5t-62 -113.5v-400q37 -15 67.5 -25.5t59.5 -17t57.5 -9.5t60.5 -3zM455 -344q0 28 10.5 52.5t29 43t43 29t52.5 10.5t52.5 -10.5t43 -29t29 -43
t10.5 -52.5t-10.5 -52.5t-29 -43t-43 -29t-52.5 -10.5t-52.5 10.5t-43 29t-29 43t-10.5 52.5z" />
    <glyph glyph-name="uni0253" unicode="&#x253;" horiz-adv-x="1155" 
d="M575 130q66 0 122 27t96.5 76t63.5 118.5t23 153.5q0 83 -15 150t-43.5 113.5t-70.5 71.5t-96 25q-47 0 -94 -20.5t-89.5 -57.5t-79.5 -88.5t-62 -113.5v-400q37 -15 67.5 -25.5t59.5 -17t57.5 -9.5t60.5 -3zM145 1100q0 126 26.5 223t82 163t142.5 100t209 34
q61 0 127 -15.5t138 -60.5l-80 -140q-53 31 -99 43.5t-101 12.5q-68 0 -117 -23t-81 -66t-47 -104t-15 -137v-305q35 46 76 85t88.5 68t102.5 45.5t118 16.5q76 0 139 -37t109 -103.5t71.5 -158.5t25.5 -201q0 -129 -34.5 -233.5t-97.5 -178.5t-152.5 -114.5t-200.5 -40.5
q-61 0 -118 9t-110.5 22.5t-103.5 29.5l-98 31v1035z" />
    <glyph glyph-name="uni1E02" unicode="&#x1e02;" horiz-adv-x="1285" 
d="M1140 420q0 -91 -29.5 -169.5t-94 -136.5t-166 -91t-245.5 -33q-77 0 -155.5 1.5t-143.5 3.5q-76 2 -146 5q6 30 9 77t4.5 106t1.5 128v832q0 70 -1.5 130.5t-4.5 108.5t-9 78q33 2 82 4t107.5 3.5t123 2t127.5 0.5q111 0 198 -18t146 -59t90 -108t31 -165
q0 -63 -19 -113.5t-52.5 -90t-78 -68.5t-95.5 -48q58 -15 115 -41.5t102.5 -70.5t74 -109.5t28.5 -158.5zM365 155q14 -1 38 -2t56 -1.5t70.5 -1t80.5 -0.5q64 0 124.5 13t107 44t75 83t28.5 130q0 139 -84.5 209.5t-260.5 70.5h-235v-545zM365 855h195q80 0 138.5 17
t96.5 48t56.5 74.5t18.5 95.5q0 56 -15.5 98t-49 70.5t-87 42.5t-128.5 14q-29 0 -62 -0.5t-64 -1.5t-57 -1.5t-42 -1.5v-455zM480 1775q0 28 10.5 52.5t29 43t43 29t52.5 10.5t52.5 -10.5t43 -29t29 -43t10.5 -52.5t-10.5 -52.5t-29 -43t-43 -29t-52.5 -10.5t-52.5 10.5
t-43 29t-29 43t-10.5 52.5z" />
    <glyph glyph-name="uni1E06" unicode="&#x1e06;" horiz-adv-x="1285" 
d="M1140 420q0 -91 -29.5 -169.5t-94 -136.5t-166 -91t-245.5 -33q-77 0 -155.5 1.5t-143.5 3.5q-76 2 -146 5q6 30 9 77t4.5 106t1.5 128v832q0 70 -1.5 130.5t-4.5 108.5t-9 78q33 2 82 4t107.5 3.5t123 2t127.5 0.5q111 0 198 -18t146 -59t90 -108t31 -165
q0 -63 -19 -113.5t-52.5 -90t-78 -68.5t-95.5 -48q58 -15 115 -41.5t102.5 -70.5t74 -109.5t28.5 -158.5zM365 155q14 -1 38 -2t56 -1.5t70.5 -1t80.5 -0.5q64 0 124.5 13t107 44t75 83t28.5 130q0 139 -84.5 209.5t-260.5 70.5h-235v-545zM365 855h195q80 0 138.5 17
t96.5 48t56.5 74.5t18.5 95.5q0 56 -15.5 98t-49 70.5t-87 42.5t-128.5 14q-29 0 -62 -0.5t-64 -1.5t-57 -1.5t-42 -1.5v-455zM240 -269h750v-150h-750v150z" />
    <glyph glyph-name="uni1E04" unicode="&#x1e04;" horiz-adv-x="1285" 
d="M1140 420q0 -91 -29.5 -169.5t-94 -136.5t-166 -91t-245.5 -33q-77 0 -155.5 1.5t-143.5 3.5q-76 2 -146 5q6 30 9 77t4.5 106t1.5 128v832q0 70 -1.5 130.5t-4.5 108.5t-9 78q33 2 82 4t107.5 3.5t123 2t127.5 0.5q111 0 198 -18t146 -59t90 -108t31 -165
q0 -63 -19 -113.5t-52.5 -90t-78 -68.5t-95.5 -48q58 -15 115 -41.5t102.5 -70.5t74 -109.5t28.5 -158.5zM365 155q14 -1 38 -2t56 -1.5t70.5 -1t80.5 -0.5q64 0 124.5 13t107 44t75 83t28.5 130q0 139 -84.5 209.5t-260.5 70.5h-235v-545zM365 855h195q80 0 138.5 17
t96.5 48t56.5 74.5t18.5 95.5q0 56 -15.5 98t-49 70.5t-87 42.5t-128.5 14q-29 0 -62 -0.5t-64 -1.5t-57 -1.5t-42 -1.5v-455zM480 -344q0 28 10.5 52.5t29 43t43 29t52.5 10.5t52.5 -10.5t43 -29t29 -43t10.5 -52.5t-10.5 -52.5t-29 -43t-43 -29t-52.5 -10.5t-52.5 10.5
t-43 29t-29 43t-10.5 52.5z" />
    <glyph glyph-name="uni0181" unicode="&#x181;" horiz-adv-x="1617" 
d="M492 1q6 30 9 77t4.5 106t1.5 128v1003q-63 0 -122 -14.5t-104.5 -43.5t-73 -73t-27.5 -104q0 -32 3 -56.5t8.5 -45.5t14 -40t19.5 -38l-170 -40q-10 19 -20 44.5t-17.5 53t-12.5 55.5t-5 52q0 103 41 179.5t117 126.5t183 74.5t238 24.5h276q275 0 408.5 -84.5
t133.5 -264.5q0 -63 -19 -113.5t-52.5 -90t-78 -68.5t-95.5 -48q58 -15 115 -41.5t102.5 -70.5t74 -109.5t28.5 -158.5q0 -91 -32.5 -169.5t-100.5 -136.5t-172.5 -91t-248.5 -33q-77 0 -152.5 1.5t-136.5 3.5q-71 2 -137 5zM697 155q28 -2 84 -3.5t141 -1.5q64 0 127.5 13
t114 44t82 83t31.5 130q0 139 -94.5 209.5t-270.5 70.5h-215v-545zM697 1315v-459h175q80 0 141.5 17t103.5 48t63.5 74.5t21.5 95.5q0 58 -18.5 100t-62.5 69.5t-116.5 41t-179.5 13.5h-128z" />
    <glyph glyph-name="cacute" unicode="&#x107;" horiz-adv-x="1020" 
d="M615 1040q100 0 172.5 -23.5t127.5 -61.5l-35 -180q-68 50 -135 75t-145 25q-67 0 -124.5 -25.5t-100 -73.5t-66.5 -118t-24 -158q0 -81 22 -147t63 -113.5t99 -73.5t131 -26q91 0 165 31t140 89l20 -175q-38 -29 -75.5 -49.5t-78.5 -34t-88 -20t-103 -6.5
q-101 0 -189 35.5t-154 102.5t-104 162t-38 215q0 113 36.5 213t104 175t164 118.5t215.5 43.5zM970 1600l-420 -430h-160l350 430h230z" />
    <glyph glyph-name="ccircumflex" unicode="&#x109;" horiz-adv-x="1020" 
d="M615 1040q100 0 172.5 -23.5t127.5 -61.5l-35 -180q-68 50 -135 75t-145 25q-67 0 -124.5 -25.5t-100 -73.5t-66.5 -118t-24 -158q0 -81 22 -147t63 -113.5t99 -73.5t131 -26q91 0 165 31t140 89l20 -175q-38 -29 -75.5 -49.5t-78.5 -34t-88 -20t-103 -6.5
q-101 0 -189 35.5t-154 102.5t-104 162t-38 215q0 113 36.5 213t104 175t164 118.5t215.5 43.5zM145 1170l340 430h170l340 -430h-150l-275 280l-275 -280h-150z" />
    <glyph glyph-name="ccaron" unicode="&#x10d;" horiz-adv-x="1020" 
d="M615 1040q100 0 172.5 -23.5t127.5 -61.5l-35 -180q-68 50 -135 75t-145 25q-67 0 -124.5 -25.5t-100 -73.5t-66.5 -118t-24 -158q0 -81 22 -147t63 -113.5t99 -73.5t131 -26q91 0 165 31t140 89l20 -175q-38 -29 -75.5 -49.5t-78.5 -34t-88 -20t-103 -6.5
q-101 0 -189 35.5t-154 102.5t-104 162t-38 215q0 113 36.5 213t104 175t164 118.5t215.5 43.5zM295 1600l275 -280l275 280h150l-340 -430h-170l-340 430h150z" />
    <glyph glyph-name="cdotaccent" unicode="&#x10b;" horiz-adv-x="1020" 
d="M615 1040q100 0 172.5 -23.5t127.5 -61.5l-35 -180q-68 50 -135 75t-145 25q-67 0 -124.5 -25.5t-100 -73.5t-66.5 -118t-24 -158q0 -81 22 -147t63 -113.5t99 -73.5t131 -26q91 0 165 31t140 89l20 -175q-38 -29 -75.5 -49.5t-78.5 -34t-88 -20t-103 -6.5
q-101 0 -189 35.5t-154 102.5t-104 162t-38 215q0 113 36.5 213t104 175t164 118.5t215.5 43.5zM435 1345q0 28 10.5 52.5t29 43t43 29t52.5 10.5t52.5 -10.5t43 -29t29 -43t10.5 -52.5t-10.5 -52.5t-29 -43t-43 -29t-52.5 -10.5t-52.5 10.5t-43 29t-29 43t-10.5 52.5z" />
    <glyph glyph-name="uni1E09" unicode="&#x1e09;" horiz-adv-x="1020" 
d="M970 1600l-420 -430h-160l350 430h230zM615 1040q100 0 172.5 -23.5t127.5 -61.5l-35 -180q-68 50 -135 75t-145 25q-67 0 -124.5 -25.5t-100 -73.5t-66.5 -118t-24 -158q0 -81 22 -147t63 -113.5t99 -73.5t131 -26q91 0 165 31t140 89l20 -175q-38 -29 -75.5 -49.5
t-78.5 -34t-88 -20t-103 -6.5q-5 0 -10 0.5t-10 0.5v-71q10 2 20.5 3.5t27.5 1.5q34 0 63 -12.5t50 -35t32.5 -54t11.5 -68.5q0 -51 -23 -92t-60 -69.5t-82 -43.5t-90 -15q-39 0 -71.5 11.5t-63.5 28.5l10 100q22 -16 45 -23t55 -7q22 0 45.5 5t43 17t32.5 31t14 47
q-1 39 -28.5 64.5t-68.5 25.5q-24 0 -48 -7.5t-40 -17.5v201q-74 21 -136.5 64.5t-107.5 106.5t-70.5 144.5t-25.5 178.5q0 113 36.5 213t104 175t164 118.5t215.5 43.5z" />
    <glyph glyph-name="uni0254" unicode="&#x254;" horiz-adv-x="995" 
d="M900 535q0 -129 -33.5 -233t-94 -176.5t-145.5 -111.5t-187 -39q-61 0 -116 14.5t-100 40t-78 60.5t-51 75l115 125q18 -32 42 -59.5t53.5 -47.5t63 -31.5t71.5 -11.5q48 0 96.5 23.5t87 70.5t62.5 117t24 164q0 88 -21 155.5t-59.5 113t-93 68.5t-121.5 23
q-70 0 -134.5 -29.5t-135.5 -95.5l-35 180q72 52 157 81t178 29q103 0 187.5 -32t143.5 -96t91.5 -158.5t32.5 -218.5z" />
    <glyph glyph-name="uni0254.TopSerif" horiz-adv-x="1020" 
d="M405 1040q119 0 215.5 -43.5t164 -118.5t104 -175t36.5 -213q0 -120 -38 -215t-104 -162t-154.5 -102.5t-188.5 -35.5q-56 0 -103 6.5t-88 20t-78.5 34t-75.5 49.5l20 175q66 -58 140 -89t165 -31q73 0 131 26t99 73.5t63 113.5t22 147q0 88 -24 158t-66.5 118t-100 73.5
t-124.5 25.5q-78 0 -145 -25t-135 -75l-35 180q55 38 127.5 61.5t172.5 23.5z" />
    <glyph glyph-name="Cacute" unicode="&#x106;" horiz-adv-x="1355" 
d="M1230 140q-44 -41 -103 -71.5t-123.5 -51.5t-130.5 -31.5t-123 -10.5q-152 0 -273 51.5t-206 147t-130.5 231.5t-45.5 305q0 193 56 338.5t149.5 242.5t215.5 145.5t254 48.5q54 0 110 -7t112.5 -23t112.5 -43t110 -67l-60 -180q-47 42 -96 71t-98 46.5t-97.5 25
t-93.5 7.5q-105 0 -193 -36.5t-151.5 -109.5t-99.5 -181.5t-36 -252.5q0 -116 31 -222t91 -186.5t147.5 -128.5t200.5 -48q57 0 115.5 13t114.5 37.5t107 58.5t93 76zM1150 2030l-420 -430h-160l350 430h230z" />
    <glyph glyph-name="Ccircumflex" unicode="&#x108;" horiz-adv-x="1355" 
d="M1230 140q-44 -41 -103 -71.5t-123.5 -51.5t-130.5 -31.5t-123 -10.5q-152 0 -273 51.5t-206 147t-130.5 231.5t-45.5 305q0 193 56 338.5t149.5 242.5t215.5 145.5t254 48.5q54 0 110 -7t112.5 -23t112.5 -43t110 -67l-60 -180q-47 42 -96 71t-98 46.5t-97.5 25
t-93.5 7.5q-105 0 -193 -36.5t-151.5 -109.5t-99.5 -181.5t-36 -252.5q0 -116 31 -222t91 -186.5t147.5 -128.5t200.5 -48q57 0 115.5 13t114.5 37.5t107 58.5t93 76zM325 1600l340 430h170l340 -430h-150l-275 280l-275 -280h-150z" />
    <glyph glyph-name="Ccaron" unicode="&#x10c;" horiz-adv-x="1355" 
d="M1230 140q-44 -41 -103 -71.5t-123.5 -51.5t-130.5 -31.5t-123 -10.5q-152 0 -273 51.5t-206 147t-130.5 231.5t-45.5 305q0 193 56 338.5t149.5 242.5t215.5 145.5t254 48.5q54 0 110 -7t112.5 -23t112.5 -43t110 -67l-60 -180q-47 42 -96 71t-98 46.5t-97.5 25
t-93.5 7.5q-105 0 -193 -36.5t-151.5 -109.5t-99.5 -181.5t-36 -252.5q0 -116 31 -222t91 -186.5t147.5 -128.5t200.5 -48q57 0 115.5 13t114.5 37.5t107 58.5t93 76zM475 2030l275 -280l275 280h150l-340 -430h-170l-340 430h150z" />
    <glyph glyph-name="Cdotaccent" unicode="&#x10a;" horiz-adv-x="1355" 
d="M1230 140q-44 -41 -103 -71.5t-123.5 -51.5t-130.5 -31.5t-123 -10.5q-152 0 -273 51.5t-206 147t-130.5 231.5t-45.5 305q0 193 56 338.5t149.5 242.5t215.5 145.5t254 48.5q54 0 110 -7t112.5 -23t112.5 -43t110 -67l-60 -180q-47 42 -96 71t-98 46.5t-97.5 25
t-93.5 7.5q-105 0 -193 -36.5t-151.5 -109.5t-99.5 -181.5t-36 -252.5q0 -116 31 -222t91 -186.5t147.5 -128.5t200.5 -48q57 0 115.5 13t114.5 37.5t107 58.5t93 76zM615 1775q0 28 10.5 52.5t29 43t43 29t52.5 10.5t52.5 -10.5t43 -29t29 -43t10.5 -52.5t-10.5 -52.5
t-29 -43t-43 -29t-52.5 -10.5t-52.5 10.5t-43 29t-29 43t-10.5 52.5z" />
    <glyph glyph-name="uni1E08" unicode="&#x1e08;" horiz-adv-x="1355" 
d="M1150 2030l-420 -430h-160l350 430h230zM1230 140q-44 -41 -103 -71.5t-123.5 -51.5t-130.5 -31.5t-123 -10.5v-70q10 2 20.5 3.5t27.5 1.5q34 0 63 -12.5t50 -35t32.5 -54t11.5 -68.5q0 -51 -23 -92t-60 -69.5t-82 -43.5t-90 -15q-39 0 -71.5 11.5t-63.5 28.5l10 100
q22 -16 45 -23t55 -7q22 0 45.5 5t43 17t32.5 31t14 47q-1 39 -28.5 64.5t-68.5 25.5q-24 0 -48 -7.5t-40 -17.5v190q-124 20 -222 79t-166.5 152.5t-105 218t-36.5 275.5q0 193 56 338.5t149.5 242.5t215.5 145.5t254 48.5q54 0 110 -7t112.5 -23t112.5 -43t110 -67
l-60 -180q-47 42 -96 71t-98 46.5t-97.5 25t-93.5 7.5q-105 0 -193 -36.5t-151.5 -109.5t-99.5 -181.5t-36 -252.5q0 -116 31 -222t91 -186.5t147.5 -128.5t200.5 -48q57 0 115.5 13t114.5 37.5t107 58.5t93 76z" />
    <glyph glyph-name="Euro" unicode="&#x20ac;" 
d="M60 945h122q31 122 90.5 214t135.5 153.5t163.5 92t174.5 30.5q51 0 97 -6.5t91 -22t91 -41t97 -63.5l-57 -171q-45 40 -84 67.5t-77 44t-76.5 23.5t-81.5 7q-63 0 -121.5 -20.5t-108.5 -62t-88.5 -103t-61.5 -142.5h490l-40 -145h-475q-3 -38 -3 -78v-24q0 -12 1 -23
h449l-40 -145h-386q20 -78 55 -144.5t83 -115t108 -76.5t129 -28q54 0 102 12.5t92.5 35.5t85.5 55.5t81 72.5l38 -185q-41 -39 -90 -68t-101.5 -49t-108 -30t-109.5 -10q-109 0 -202.5 36.5t-166 105t-122 167t-70.5 221.5h-146l40 145h93v23q0 26 1 51.5t3 50.5h-137z" />
    <glyph glyph-name="uni0186" unicode="&#x186;" horiz-adv-x="1320" 
d="M590 1485q74 0 148.5 -22t142 -64.5t126 -105.5t101.5 -145t67.5 -183t24.5 -220q0 -182 -51.5 -325t-139.5 -242t-204 -151t-245 -52q-64 0 -131 13t-128.5 39.5t-115 66.5t-90.5 94l103 163q32 -46 74.5 -83t92 -63.5t104 -40.5t111.5 -14q82 0 158.5 38.5t135.5 111
t95 177.5t36 238q0 138 -33.5 248t-93 187t-141 118.5t-177.5 41.5q-112 0 -208 -55.5t-172 -154.5l-40 215q36 40 89 71.5t114 53.5t125.5 33.5t121.5 11.5z" />
    <glyph glyph-name="uni0186.TopSerif" horiz-adv-x="1380" 
d="M165 335q42 -42 93 -76t107 -58.5t114.5 -37.5t115.5 -13q113 0 200.5 48t147.5 128.5t91 186.5t31 222q0 144 -36 252.5t-99.5 181.5t-151.5 109.5t-193 36.5q-45 0 -93.5 -7.5t-97.5 -25t-98 -46.5t-96 -71l-60 180q54 40 110 67t112.5 43t112.5 23t110 7
q132 0 254 -48.5t215.5 -145.5t149.5 -242.5t56 -338.5q0 -169 -45.5 -305t-130.5 -231.5t-206.5 -147t-272.5 -51.5q-57 0 -123 10.5t-130.5 31.5t-124 51.5t-102.5 71.5z" />
    <glyph glyph-name="uni1E0B" unicode="&#x1e0b;" horiz-adv-x="1190" 
d="M580 870q-57 0 -109 -26t-92.5 -75t-64.5 -119.5t-24 -159.5q0 -175 59.5 -265t190.5 -90q46 0 91.5 23t86 60t73.5 84.5t54 97.5v395q-37 20 -69 34t-63 23t-63 13.5t-70 4.5zM1030 530q0 -189 21.5 -317.5t53.5 -212.5h-180q-11 26 -26.5 77.5t-28.5 107.5
q-72 -102 -163 -156t-202 -54q-92 0 -165.5 34.5t-126 98t-80.5 153t-28 199.5q0 133 36.5 240t100.5 182.5t150.5 116.5t187.5 41q32 0 66.5 -7t69 -19t67.5 -27.5t62 -31.5v280q0 121 -5.5 211.5t-19.5 153.5h210v-1070zM370 1345q0 28 10.5 52.5t29 43t43 29t52.5 10.5
t52.5 -10.5t43 -29t29 -43t10.5 -52.5t-10.5 -52.5t-29 -43t-43 -29t-52.5 -10.5t-52.5 10.5t-43 29t-29 43t-10.5 52.5z" />
    <glyph glyph-name="uni1E0F" unicode="&#x1e0f;" horiz-adv-x="1190" 
d="M580 870q-57 0 -109 -26t-92.5 -75t-64.5 -119.5t-24 -159.5q0 -175 59.5 -265t190.5 -90q46 0 91.5 23t86 60t73.5 84.5t54 97.5v395q-37 20 -69 34t-63 23t-63 13.5t-70 4.5zM1030 530q0 -189 21.5 -317.5t53.5 -212.5h-180q-11 26 -26.5 77.5t-28.5 107.5
q-72 -102 -163 -156t-202 -54q-92 0 -165.5 34.5t-126 98t-80.5 153t-28 199.5q0 133 36.5 240t100.5 182.5t150.5 116.5t187.5 41q32 0 66.5 -7t69 -19t67.5 -27.5t62 -31.5v280q0 121 -5.5 211.5t-19.5 153.5h210v-1070zM230 -269h750v-150h-750v150z" />
    <glyph glyph-name="uni1E0D" unicode="&#x1e0d;" horiz-adv-x="1190" 
d="M580 870q-57 0 -109 -26t-92.5 -75t-64.5 -119.5t-24 -159.5q0 -175 59.5 -265t190.5 -90q46 0 91.5 23t86 60t73.5 84.5t54 97.5v395q-37 20 -69 34t-63 23t-63 13.5t-70 4.5zM1030 530q0 -189 21.5 -317.5t53.5 -212.5h-180q-11 26 -26.5 77.5t-28.5 107.5
q-72 -102 -163 -156t-202 -54q-92 0 -165.5 34.5t-126 98t-80.5 153t-28 199.5q0 133 36.5 240t100.5 182.5t150.5 116.5t187.5 41q32 0 66.5 -7t69 -19t67.5 -27.5t62 -31.5v280q0 121 -5.5 211.5t-19.5 153.5h210v-1070zM470 -344q0 28 10.5 52.5t29 43t43 29t52.5 10.5
t52.5 -10.5t43 -29t29 -43t10.5 -52.5t-10.5 -52.5t-29 -43t-43 -29t-52.5 -10.5t-52.5 10.5t-43 29t-29 43t-10.5 52.5z" />
    <glyph glyph-name="dcroat" unicode="&#x111;" horiz-adv-x="1190" 
d="M580 870q-57 0 -109 -26t-92.5 -75t-64.5 -119.5t-24 -159.5q0 -175 59.5 -265t190.5 -90q46 0 91.5 23t86 60t73.5 84.5t54 97.5v395q-37 20 -69 34t-63 23t-63 13.5t-70 4.5zM565 1310h279q-2 93 -7 164.5t-17 125.5h210v-290h160v-135h-160v-645q0 -189 21.5 -317.5
t53.5 -212.5h-180q-11 26 -26.5 77.5t-28.5 107.5q-72 -102 -163 -156t-202 -54q-92 0 -165.5 34.5t-126 98t-80.5 153t-28 199.5q0 133 36.5 240t100.5 182.5t150.5 116.5t187.5 41q32 0 66.5 -7t69 -19t67.5 -27.5t62 -31.5v220h-280v135z" />
    <glyph glyph-name="uni0257" unicode="&#x257;" horiz-adv-x="1305" 
d="M580 870q-57 0 -109 -26t-92.5 -75t-64.5 -119.5t-24 -159.5q0 -175 59.5 -265t190.5 -90q46 0 91.5 23t86 60t73.5 84.5t54 97.5v395q-37 20 -69 34t-63 23t-63 13.5t-70 4.5zM1030 530q0 -189 21.5 -317.5t53.5 -212.5h-180q-11 26 -26.5 77.5t-28.5 107.5
q-72 -102 -163 -156t-202 -54q-92 0 -165.5 34.5t-126 98t-80.5 153t-28 199.5q0 133 36.5 240t100.5 182.5t150.5 116.5t187.5 41q32 0 66.5 -7t69 -19t67.5 -27.5t62 -31.5v255q0 97 25 173.5t70.5 129t109 80t140.5 27.5q59 0 116 -18.5t104 -51.5l-46 -150
q-38 28 -84 44t-90 16q-78 0 -119 -55.5t-41 -154.5v-720z" />
    <glyph glyph-name="uni0256" unicode="&#x256;" horiz-adv-x="1207" 
d="M845 185q-36 -51 -72.5 -90t-78 -65.5t-88 -40.5t-101.5 -14q-92 0 -165.5 34.5t-126 98t-80.5 153t-28 199.5q0 133 36.5 240t100.5 182.5t150.5 116.5t187.5 41q32 0 66.5 -7t69 -19t67.5 -27.5t62 -31.5v280q0 121 -5.5 211.5t-19.5 153.5h210v-1655q0 -50 8 -93.5
t25 -75.5t43.5 -50.5t62.5 -18.5q32 0 66.5 10.5t59.5 32.5l42 -155q-16 -13 -42 -25t-56 -21t-61 -14t-57 -5q-57 0 -107.5 24.5t-88 73t-59 120t-21.5 166.5v271zM580 870q-57 0 -109 -26t-92.5 -75t-64.5 -119.5t-24 -159.5q0 -175 59.5 -265t190.5 -90q46 0 91.5 23
t86 60t73.5 84.5t54 97.5v395q-37 20 -69 34t-63 23t-63 13.5t-70 4.5z" />
    <glyph glyph-name="eth" unicode="&#xf0;" horiz-adv-x="1160" 
d="M280 487q0 -84 21 -149.5t59.5 -110.5t91.5 -68.5t118 -23.5q68 0 121.5 25t91 71t57.5 111t20 145q0 84 -21 149.5t-59.5 111t-92 69t-117.5 23.5q-68 0 -122 -25t-91.5 -71t-57 -111.5t-19.5 -145.5zM779 1351q58 -76 108 -164t86 -183t56.5 -195.5t20.5 -202.5
q0 -158 -33.5 -276.5t-96.5 -197t-154 -118t-206 -39.5q-103 0 -188.5 33t-147 97.5t-95.5 160.5t-34 221q0 81 18.5 150.5t50 126.5t73.5 101t90 74t99 45.5t100 15.5q60 0 105.5 -8.5t83 -25t70 -41.5t67.5 -57q-31 102 -87 203t-128 192l-233 -145l-83 108l225 139
q-54 54 -111.5 96.5t-115.5 70.5l174 88q51 -31 100.5 -72.5t97.5 -92.5l220 136l85 -105z" />
    <glyph glyph-name="Dcaron" unicode="&#x10e;" horiz-adv-x="1435" 
d="M175 455v688q0 70 -1.5 130.5t-4.5 108.5t-9 78l53.5 2.5t72 2.5t83 2t87 1.5l84.5 1t75 0.5q40 0 91.5 -4.5t108 -17.5t116 -36.5t115 -61.5t104.5 -92t85.5 -128t58 -170.5t21.5 -219.5q0 -149 -33 -262.5t-88.5 -196.5t-128.5 -139t-153 -90t-162 -48t-155 -14
q-24 0 -55.5 0.5t-66.5 1t-72 1.5l-72 2q-82 2 -169 5q6 30 8.5 77t4 106t2 128.5t0.5 143.5zM365 165q35 -3 91.5 -6.5t128.5 -3.5q67 0 132.5 13t125 41.5t110.5 73.5t88 107.5t58 144.5t21 185q0 168 -42.5 281t-114.5 181.5t-168.5 98t-204.5 29.5q-25 0 -56 -0.5
t-62.5 -1.5t-59.5 -1.5t-47 -1.5v-1140zM440 2030l275 -280l275 280h150l-340 -430h-170l-340 430h150z" />
    <glyph glyph-name="uni1E0A" unicode="&#x1e0a;" horiz-adv-x="1435" 
d="M175 455v688q0 70 -1.5 130.5t-4.5 108.5t-9 78l53.5 2.5t72 2.5t83 2t87 1.5l84.5 1t75 0.5q40 0 91.5 -4.5t108 -17.5t116 -36.5t115 -61.5t104.5 -92t85.5 -128t58 -170.5t21.5 -219.5q0 -149 -33 -262.5t-88.5 -196.5t-128.5 -139t-153 -90t-162 -48t-155 -14
q-24 0 -55.5 0.5t-66.5 1t-72 1.5l-72 2q-82 2 -169 5q6 30 8.5 77t4 106t2 128.5t0.5 143.5zM365 165q35 -3 91.5 -6.5t128.5 -3.5q67 0 132.5 13t125 41.5t110.5 73.5t88 107.5t58 144.5t21 185q0 168 -42.5 281t-114.5 181.5t-168.5 98t-204.5 29.5q-25 0 -56 -0.5
t-62.5 -1.5t-59.5 -1.5t-47 -1.5v-1140zM580 1775q0 28 10.5 52.5t29 43t43 29t52.5 10.5t52.5 -10.5t43 -29t29 -43t10.5 -52.5t-10.5 -52.5t-29 -43t-43 -29t-52.5 -10.5t-52.5 10.5t-43 29t-29 43t-10.5 52.5z" />
    <glyph glyph-name="uni1E0E" unicode="&#x1e0e;" horiz-adv-x="1435" 
d="M175 455v688q0 70 -1.5 130.5t-4.5 108.5t-9 78l53.5 2.5t72 2.5t83 2t87 1.5l84.5 1t75 0.5q40 0 91.5 -4.5t108 -17.5t116 -36.5t115 -61.5t104.5 -92t85.5 -128t58 -170.5t21.5 -219.5q0 -149 -33 -262.5t-88.5 -196.5t-128.5 -139t-153 -90t-162 -48t-155 -14
q-24 0 -55.5 0.5t-66.5 1t-72 1.5l-72 2q-82 2 -169 5q6 30 8.5 77t4 106t2 128.5t0.5 143.5zM365 165q35 -3 91.5 -6.5t128.5 -3.5q67 0 132.5 13t125 41.5t110.5 73.5t88 107.5t58 144.5t21 185q0 168 -42.5 281t-114.5 181.5t-168.5 98t-204.5 29.5q-25 0 -56 -0.5
t-62.5 -1.5t-59.5 -1.5t-47 -1.5v-1140zM340 -269h750v-150h-750v150z" />
    <glyph glyph-name="uni1E0C" unicode="&#x1e0c;" horiz-adv-x="1435" 
d="M175 455v688q0 70 -1.5 130.5t-4.5 108.5t-9 78l53.5 2.5t72 2.5t83 2t87 1.5l84.5 1t75 0.5q40 0 91.5 -4.5t108 -17.5t116 -36.5t115 -61.5t104.5 -92t85.5 -128t58 -170.5t21.5 -219.5q0 -149 -33 -262.5t-88.5 -196.5t-128.5 -139t-153 -90t-162 -48t-155 -14
q-24 0 -55.5 0.5t-66.5 1t-72 1.5l-72 2q-82 2 -169 5q6 30 8.5 77t4 106t2 128.5t0.5 143.5zM365 165q35 -3 91.5 -6.5t128.5 -3.5q67 0 132.5 13t125 41.5t110.5 73.5t88 107.5t58 144.5t21 185q0 168 -42.5 281t-114.5 181.5t-168.5 98t-204.5 29.5q-25 0 -56 -0.5
t-62.5 -1.5t-59.5 -1.5t-47 -1.5v-1140zM580 -344q0 28 10.5 52.5t29 43t43 29t52.5 10.5t52.5 -10.5t43 -29t29 -43t10.5 -52.5t-10.5 -52.5t-29 -43t-43 -29t-52.5 -10.5t-52.5 10.5t-43 29t-29 43t-10.5 52.5z" />
    <glyph glyph-name="Eth" unicode="&#xd0;" horiz-adv-x="1435" 
d="M175 835v308q0 70 -1.5 130.5t-4.5 108.5t-9 78l53.5 2.5t72 2.5t83 2t87 1.5l84.5 1t75 0.5q40 0 91.5 -4.5t108 -17.5t116 -36.5t115 -61.5t104.5 -92t85.5 -128t58 -170.5t21.5 -219.5q0 -149 -33 -262.5t-88.5 -196.5t-128.5 -139t-153 -90t-162 -48t-155 -14
q-24 0 -55.5 0.5t-66.5 1t-72 1.5l-72 2q-82 2 -169 5q6 30 8.5 77t4 106t2 128.5t0.5 143.5v235h-175v145h175zM365 835h380v-145h-380v-525q35 -3 91.5 -6.5t128.5 -3.5q67 0 132.5 13t125 41.5t110.5 73.5t88 107.5t58 144.5t21 185q0 168 -42.5 281t-114.5 181.5
t-168.5 98t-204.5 29.5q-25 0 -56 -0.5t-62.5 -1.5t-59.5 -1.5t-47 -1.5v-470z" />
    <glyph glyph-name="Dcroat" unicode="&#x110;" horiz-adv-x="1435" 
d="M175 835v308q0 70 -1.5 130.5t-4.5 108.5t-9 78l53.5 2.5t72 2.5t83 2t87 1.5l84.5 1t75 0.5q40 0 91.5 -4.5t108 -17.5t116 -36.5t115 -61.5t104.5 -92t85.5 -128t58 -170.5t21.5 -219.5q0 -149 -33 -262.5t-88.5 -196.5t-128.5 -139t-153 -90t-162 -48t-155 -14
q-24 0 -55.5 0.5t-66.5 1t-72 1.5l-72 2q-82 2 -169 5q6 30 8.5 77t4 106t2 128.5t0.5 143.5v235h-175v145h175zM365 835h380v-145h-380v-525q35 -3 91.5 -6.5t128.5 -3.5q67 0 132.5 13t125 41.5t110.5 73.5t88 107.5t58 144.5t21 185q0 168 -42.5 281t-114.5 181.5
t-168.5 98t-204.5 29.5q-25 0 -56 -0.5t-62.5 -1.5t-59.5 -1.5t-47 -1.5v-470z" />
    <glyph glyph-name="uni0189" unicode="&#x189;" horiz-adv-x="1435" 
d="M175 835v308q0 70 -1.5 130.5t-4.5 108.5t-9 78l53.5 2.5t72 2.5t83 2t87 1.5l84.5 1t75 0.5q40 0 91.5 -4.5t108 -17.5t116 -36.5t115 -61.5t104.5 -92t85.5 -128t58 -170.5t21.5 -219.5q0 -149 -33 -262.5t-88.5 -196.5t-128.5 -139t-153 -90t-162 -48t-155 -14
q-24 0 -55.5 0.5t-66.5 1t-72 1.5l-72 2q-82 2 -169 5q6 30 8.5 77t4 106t2 128.5t0.5 143.5v235h-175v145h175zM365 835h380v-145h-380v-525q35 -3 91.5 -6.5t128.5 -3.5q67 0 132.5 13t125 41.5t110.5 73.5t88 107.5t58 144.5t21 185q0 168 -42.5 281t-114.5 181.5
t-168.5 98t-204.5 29.5q-25 0 -56 -0.5t-62.5 -1.5t-59.5 -1.5t-47 -1.5v-470z" />
    <glyph glyph-name="uni018A" unicode="&#x18a;" horiz-adv-x="1765" 
d="M490 0q6 30 9 77t4.5 106t1.5 128v999q-63 -1 -122 -14.5t-104 -42t-72 -71.5t-27 -102q0 -32 3 -56.5t8.5 -45.5t14 -40t19.5 -38l-170 -40q-10 19 -20 44.5t-17.5 53t-12.5 55.5t-5 52q0 103 41 179.5t117 126.5t183 74.5t238 24.5h306q51 0 111 -4.5t123 -17.5
t126.5 -36.5t122 -61.5t109 -92t88 -128t59 -170.5t21.5 -219.5q0 -149 -33 -262.5t-88.5 -196.5t-128.5 -139t-153 -90t-162 -48t-155 -14q-24 0 -55.5 0.5t-66.5 1t-72 1.5l-72 2q-82 2 -169 5zM1450 720q0 168 -44.5 281t-123.5 181.5t-187 98t-235 29.5h-165v-1145
q35 -3 91.5 -6.5t128.5 -3.5q67 0 132.5 13t125 41.5t110.5 73.5t88 107.5t58 144.5t21 185z" />
    <glyph glyph-name="uni1EBF" unicode="&#x1ebf;" horiz-adv-x="1095" 
d="M575 1040q82 0 145 -19.5t109 -54t77 -80.5t49.5 -99t26.5 -110.5t8 -113.5v-39q0 -25 -1 -39h-709q3 -88 27.5 -153t67 -107.5t100 -63.5t125.5 -21q97 0 190 22t185 78l20 -165q-53 -27 -104 -46t-102 -31t-103.5 -17.5t-110.5 -5.5q-96 0 -183 33.5t-153 99
t-105 162.5t-39 225q0 124 33.5 224.5t95.5 172t151 110t200 38.5zM560 890q-110 0 -180 -64.5t-92 -200.5h522q0 64 -18.5 113.5t-52 83.5t-79.5 51t-100 17zM144 1170l340 430h170l340 -430h-150l-275 280l-275 -280h-150zM969 2135l-420 -430h-160l350 430h230z" />
    <glyph glyph-name="uni1EBF.VN" horiz-adv-x="1095" 
d="M575 1040q82 0 145 -19.5t109 -54t77 -80.5t49.5 -99t26.5 -110.5t8 -113.5v-39q0 -25 -1 -39h-709q3 -88 27.5 -153t67 -107.5t100 -63.5t125.5 -21q97 0 190 22t185 78l20 -165q-53 -27 -104 -46t-102 -31t-103.5 -17.5t-110.5 -5.5q-96 0 -183 33.5t-153 99
t-105 162.5t-39 225q0 124 33.5 224.5t95.5 172t151 110t200 38.5zM560 890q-110 0 -180 -64.5t-92 -200.5h522q0 64 -18.5 113.5t-52 83.5t-79.5 51t-100 17zM1113 1663l-222 -234l-67 70l198 247zM144 1170l340 430h170l340 -430h-150l-275 280l-275 -280h-150z" />
    <glyph glyph-name="uni1EC1" unicode="&#x1ec1;" horiz-adv-x="1095" 
d="M575 1040q82 0 145 -19.5t109 -54t77 -80.5t49.5 -99t26.5 -110.5t8 -113.5v-39q0 -25 -1 -39h-709q3 -88 27.5 -153t67 -107.5t100 -63.5t125.5 -21q97 0 190 22t185 78l20 -165q-53 -27 -104 -46t-102 -31t-103.5 -17.5t-110.5 -5.5q-96 0 -183 33.5t-153 99
t-105 162.5t-39 225q0 124 33.5 224.5t95.5 172t151 110t200 38.5zM560 890q-110 0 -180 -64.5t-92 -200.5h522q0 64 -18.5 113.5t-52 83.5t-79.5 51t-100 17zM144 1170l340 430h170l340 -430h-150l-275 280l-275 -280h-150zM409 2135l350 -430h-160l-420 430h230z" />
    <glyph glyph-name="uni1EC1.VN" horiz-adv-x="1095" 
d="M575 1040q82 0 145 -19.5t109 -54t77 -80.5t49.5 -99t26.5 -110.5t8 -113.5v-39q0 -25 -1 -39h-709q3 -88 27.5 -153t67 -107.5t100 -63.5t125.5 -21q97 0 190 22t185 78l20 -165q-53 -27 -104 -46t-102 -31t-103.5 -17.5t-110.5 -5.5q-96 0 -183 33.5t-153 99
t-105 162.5t-39 225q0 124 33.5 224.5t95.5 172t151 110t200 38.5zM560 890q-110 0 -180 -64.5t-92 -200.5h522q0 64 -18.5 113.5t-52 83.5t-79.5 51t-100 17zM116 1746l198 -247l-67 -70l-222 234zM144 1170l340 430h170l340 -430h-150l-275 280l-275 -280h-150z" />
    <glyph glyph-name="uni1EC5" unicode="&#x1ec5;" horiz-adv-x="1095" 
d="M575 1040q82 0 145 -19.5t109 -54t77 -80.5t49.5 -99t26.5 -110.5t8 -113.5v-39q0 -25 -1 -39h-709q3 -88 27.5 -153t67 -107.5t100 -63.5t125.5 -21q97 0 190 22t185 78l20 -165q-53 -27 -104 -46t-102 -31t-103.5 -17.5t-110.5 -5.5q-96 0 -183 33.5t-153 99
t-105 162.5t-39 225q0 124 33.5 224.5t95.5 172t151 110t200 38.5zM560 890q-110 0 -180 -64.5t-92 -200.5h522q0 64 -18.5 113.5t-52 83.5t-79.5 51t-100 17zM144 1170l340 430h170l340 -430h-150l-275 280l-275 -280h-150zM214 1740q0 46 13.5 90.5t38 80t60 57.5t80.5 22
q21 0 41 -4t40.5 -11.5t43 -17t48.5 -19.5l48.5 -20t40 -15t34.5 -9.5t32 -3.5q35 0 57.5 25t27.5 60h105q0 -48 -13.5 -93t-39 -80t-62.5 -56t-83 -21q-40 0 -80.5 13.5t-86.5 34.5q-58 27 -92.5 39.5t-62.5 12.5q-37 0 -59 -24t-26 -61h-105z" />
    <glyph glyph-name="uni1EC5.VN" horiz-adv-x="1095" 
d="M575 1040q82 0 145 -19.5t109 -54t77 -80.5t49.5 -99t26.5 -110.5t8 -113.5v-39q0 -25 -1 -39h-709q3 -88 27.5 -153t67 -107.5t100 -63.5t125.5 -21q97 0 190 22t185 78l20 -165q-53 -27 -104 -46t-102 -31t-103.5 -17.5t-110.5 -5.5q-96 0 -183 33.5t-153 99
t-105 162.5t-39 225q0 124 33.5 224.5t95.5 172t151 110t200 38.5zM560 890q-110 0 -180 -64.5t-92 -200.5h522q0 64 -18.5 113.5t-52 83.5t-79.5 51t-100 17zM230 1639q0 43 12.5 86t36.5 76.5t58 54.5t76 21q40 0 77 -13.5t87 -35.5q50 -23 83.5 -34.5t63.5 -11.5
q34 0 55 24t26 57h100q0 -46 -13 -89t-37.5 -76t-59.5 -53t-78 -20q-38 0 -76.5 13t-82.5 33q-55 26 -88 37.5t-59 11.5q-35 0 -56 -23t-25 -58h-100zM144 1170l340 430h170l340 -430h-150l-275 280l-275 -280h-150z" />
    <glyph glyph-name="uni1EC3" unicode="&#x1ec3;" horiz-adv-x="1095" 
d="M575 1040q82 0 145 -19.5t109 -54t77 -80.5t49.5 -99t26.5 -110.5t8 -113.5v-39q0 -25 -1 -39h-709q3 -88 27.5 -153t67 -107.5t100 -63.5t125.5 -21q97 0 190 22t185 78l20 -165q-53 -27 -104 -46t-102 -31t-103.5 -17.5t-110.5 -5.5q-96 0 -183 33.5t-153 99
t-105 162.5t-39 225q0 124 33.5 224.5t95.5 172t151 110t200 38.5zM560 890q-110 0 -180 -64.5t-92 -200.5h522q0 64 -18.5 113.5t-52 83.5t-79.5 51t-100 17zM144 1170l340 430h170l340 -430h-150l-275 280l-275 -280h-150zM492 1660q0 64 8.5 110.5t28.5 80.5q15 24 36 44
l40.5 37.5t33 35t13.5 37.5q0 37 -28.5 58.5t-86.5 21.5q-44 0 -82 -19.5t-68 -50.5l-25 105q32 29 81 49.5t109 20.5q46 0 87 -13.5t71.5 -36.5t48.5 -54t18 -66t-17.5 -62t-40 -49t-44.5 -40t-32 -36q-18 -32 -24.5 -71.5t-6.5 -101.5h-120z" />
    <glyph glyph-name="uni1EC3.VN" horiz-adv-x="1095" 
d="M575 1040q82 0 145 -19.5t109 -54t77 -80.5t49.5 -99t26.5 -110.5t8 -113.5v-39q0 -25 -1 -39h-709q3 -88 27.5 -153t67 -107.5t100 -63.5t125.5 -21q97 0 190 22t185 78l20 -165q-53 -27 -104 -46t-102 -31t-103.5 -17.5t-110.5 -5.5q-96 0 -183 33.5t-153 99
t-105 162.5t-39 225q0 124 33.5 224.5t95.5 172t151 110t200 38.5zM560 890q-110 0 -180 -64.5t-92 -200.5h522q0 64 -18.5 113.5t-52 83.5t-79.5 51t-100 17zM919 1370q0 75 7.5 113.5t24.5 60.5l49.5 62t18.5 44q0 25 -19 42.5t-46 17.5q-32 0 -60.5 -8t-54.5 -27l-20 90
q27 18 65.5 29t91.5 11q33 0 62 -10t50.5 -28.5t33.5 -45.5t12 -61q0 -18 -3 -32.5t-11.5 -30t-23.5 -33t-40 -40.5q-12 -11 -18.5 -22.5t-9.5 -29t-3.5 -42t-0.5 -60.5h-105zM144 1170l340 430h170l340 -430h-150l-275 280l-275 -280h-150z" />
    <glyph glyph-name="uni1EC7" unicode="&#x1ec7;" horiz-adv-x="1095" 
d="M575 1040q82 0 145 -19.5t109 -54t77 -80.5t49.5 -99t26.5 -110.5t8 -113.5v-39q0 -25 -1 -39h-709q3 -88 27.5 -153t67 -107.5t100 -63.5t125.5 -21q97 0 190 22t185 78l20 -165q-53 -27 -104 -46t-102 -31t-103.5 -17.5t-110.5 -5.5q-96 0 -183 33.5t-153 99
t-105 162.5t-39 225q0 124 33.5 224.5t95.5 172t151 110t200 38.5zM560 890q-110 0 -180 -64.5t-92 -200.5h522q0 64 -18.5 113.5t-52 83.5t-79.5 51t-100 17zM434 -344q0 28 10.5 52.5t29 43t43 29t52.5 10.5t52.5 -10.5t43 -29t29 -43t10.5 -52.5t-10.5 -52.5t-29 -43
t-43 -29t-52.5 -10.5t-52.5 10.5t-43 29t-29 43t-10.5 52.5zM144 1170l340 430h170l340 -430h-150l-275 280l-275 -280h-150z" />
    <glyph glyph-name="ebreve" unicode="&#x115;" horiz-adv-x="1095" 
d="M575 1040q82 0 145 -19.5t109 -54t77 -80.5t49.5 -99t26.5 -110.5t8 -113.5v-39q0 -25 -1 -39h-709q3 -88 27.5 -153t67 -107.5t100 -63.5t125.5 -21q97 0 190 22t185 78l20 -165q-53 -27 -104 -46t-102 -31t-103.5 -17.5t-110.5 -5.5q-96 0 -183 33.5t-153 99
t-105 162.5t-39 225q0 124 33.5 224.5t95.5 172t151 110t200 38.5zM560 890q-110 0 -180 -64.5t-92 -200.5h522q0 64 -18.5 113.5t-52 83.5t-79.5 51t-100 17zM944 1550q0 -73 -26 -144.5t-74.5 -128.5t-118 -92t-156.5 -35q-88 0 -157.5 35t-118 92t-74 128.5t-25.5 144.5
h120q6 -51 28.5 -96t56.5 -79.5t77.5 -54.5t92.5 -20t92 20t76 54.5t55 79.5t30 96h122z" />
    <glyph glyph-name="ecaron" unicode="&#x11b;" horiz-adv-x="1095" 
d="M575 1040q82 0 145 -19.5t109 -54t77 -80.5t49.5 -99t26.5 -110.5t8 -113.5v-39q0 -25 -1 -39h-709q3 -88 27.5 -153t67 -107.5t100 -63.5t125.5 -21q97 0 190 22t185 78l20 -165q-53 -27 -104 -46t-102 -31t-103.5 -17.5t-110.5 -5.5q-96 0 -183 33.5t-153 99
t-105 162.5t-39 225q0 124 33.5 224.5t95.5 172t151 110t200 38.5zM560 890q-110 0 -180 -64.5t-92 -200.5h522q0 64 -18.5 113.5t-52 83.5t-79.5 51t-100 17zM294 1600l275 -280l275 280h150l-340 -430h-170l-340 430h150z" />
    <glyph glyph-name="uni1EBD" unicode="&#x1ebd;" horiz-adv-x="1095" 
d="M575 1040q82 0 145 -19.5t109 -54t77 -80.5t49.5 -99t26.5 -110.5t8 -113.5v-39q0 -25 -1 -39h-709q3 -88 27.5 -153t67 -107.5t100 -63.5t125.5 -21q97 0 190 22t185 78l20 -165q-53 -27 -104 -46t-102 -31t-103.5 -17.5t-110.5 -5.5q-96 0 -183 33.5t-153 99
t-105 162.5t-39 225q0 124 33.5 224.5t95.5 172t151 110t200 38.5zM560 890q-110 0 -180 -64.5t-92 -200.5h522q0 64 -18.5 113.5t-52 83.5t-79.5 51t-100 17zM214 1205q0 46 13.5 90.5t38 80t60 57.5t80.5 22q21 0 41 -4t40.5 -11.5t43 -17t48.5 -19.5l48.5 -20t40 -15
t34.5 -9.5t32 -3.5q35 0 57.5 25t27.5 60h105q0 -48 -13.5 -93t-39 -80t-62.5 -56t-83 -21q-40 0 -80.5 13.5t-86.5 34.5q-58 27 -92.5 39.5t-62.5 12.5q-37 0 -59 -24t-26 -61h-105z" />
    <glyph glyph-name="emacron" unicode="&#x113;" horiz-adv-x="1095" 
d="M575 1040q82 0 145 -19.5t109 -54t77 -80.5t49.5 -99t26.5 -110.5t8 -113.5v-39q0 -25 -1 -39h-709q3 -88 27.5 -153t67 -107.5t100 -63.5t125.5 -21q97 0 190 22t185 78l20 -165q-53 -27 -104 -46t-102 -31t-103.5 -17.5t-110.5 -5.5q-96 0 -183 33.5t-153 99
t-105 162.5t-39 225q0 124 33.5 224.5t95.5 172t151 110t200 38.5zM560 890q-110 0 -180 -64.5t-92 -200.5h522q0 64 -18.5 113.5t-52 83.5t-79.5 51t-100 17zM194 1390h750v-150h-750v150z" />
    <glyph glyph-name="uni1E17" unicode="&#x1e17;" horiz-adv-x="1095" 
d="M575 1040q82 0 145 -19.5t109 -54t77 -80.5t49.5 -99t26.5 -110.5t8 -113.5v-39q0 -25 -1 -39h-709q3 -88 27.5 -153t67 -107.5t100 -63.5t125.5 -21q97 0 190 22t185 78l20 -165q-53 -27 -104 -46t-102 -31t-103.5 -17.5t-110.5 -5.5q-96 0 -183 33.5t-153 99
t-105 162.5t-39 225q0 124 33.5 224.5t95.5 172t151 110t200 38.5zM560 890q-110 0 -180 -64.5t-92 -200.5h522q0 64 -18.5 113.5t-52 83.5t-79.5 51t-100 17zM194 1390h750v-150h-750v150zM969 1950l-420 -430h-160l350 430h230z" />
    <glyph glyph-name="uni1E15" unicode="&#x1e15;" horiz-adv-x="1095" 
d="M575 1040q82 0 145 -19.5t109 -54t77 -80.5t49.5 -99t26.5 -110.5t8 -113.5v-39q0 -25 -1 -39h-709q3 -88 27.5 -153t67 -107.5t100 -63.5t125.5 -21q97 0 190 22t185 78l20 -165q-53 -27 -104 -46t-102 -31t-103.5 -17.5t-110.5 -5.5q-96 0 -183 33.5t-153 99
t-105 162.5t-39 225q0 124 33.5 224.5t95.5 172t151 110t200 38.5zM560 890q-110 0 -180 -64.5t-92 -200.5h522q0 64 -18.5 113.5t-52 83.5t-79.5 51t-100 17zM194 1390h750v-150h-750v150zM409 1950l350 -430h-160l-420 430h230z" />
    <glyph glyph-name="edotaccent" unicode="&#x117;" horiz-adv-x="1095" 
d="M575 1040q82 0 145 -19.5t109 -54t77 -80.5t49.5 -99t26.5 -110.5t8 -113.5v-39q0 -25 -1 -39h-709q3 -88 27.5 -153t67 -107.5t100 -63.5t125.5 -21q97 0 190 22t185 78l20 -165q-53 -27 -104 -46t-102 -31t-103.5 -17.5t-110.5 -5.5q-96 0 -183 33.5t-153 99
t-105 162.5t-39 225q0 124 33.5 224.5t95.5 172t151 110t200 38.5zM560 890q-110 0 -180 -64.5t-92 -200.5h522q0 64 -18.5 113.5t-52 83.5t-79.5 51t-100 17zM434 1345q0 28 10.5 52.5t29 43t43 29t52.5 10.5t52.5 -10.5t43 -29t29 -43t10.5 -52.5t-10.5 -52.5t-29 -43
t-43 -29t-52.5 -10.5t-52.5 10.5t-43 29t-29 43t-10.5 52.5z" />
    <glyph glyph-name="uni1EBB" unicode="&#x1ebb;" horiz-adv-x="1095" 
d="M575 1040q82 0 145 -19.5t109 -54t77 -80.5t49.5 -99t26.5 -110.5t8 -113.5v-39q0 -25 -1 -39h-709q3 -88 27.5 -153t67 -107.5t100 -63.5t125.5 -21q97 0 190 22t185 78l20 -165q-53 -27 -104 -46t-102 -31t-103.5 -17.5t-110.5 -5.5q-96 0 -183 33.5t-153 99
t-105 162.5t-39 225q0 124 33.5 224.5t95.5 172t151 110t200 38.5zM560 890q-110 0 -180 -64.5t-92 -200.5h522q0 64 -18.5 113.5t-52 83.5t-79.5 51t-100 17zM492 1125q0 64 8.5 110.5t28.5 80.5q15 24 36 44l40.5 37.5t33 35t13.5 37.5q0 37 -28.5 58.5t-86.5 21.5
q-44 0 -82 -19.5t-68 -50.5l-25 105q32 29 81 49.5t109 20.5q46 0 87 -13.5t71.5 -36.5t48.5 -54t18 -66t-17.5 -62t-40 -49t-44.5 -40t-32 -36q-18 -32 -24.5 -71.5t-6.5 -101.5h-120z" />
    <glyph glyph-name="uni1EB9" unicode="&#x1eb9;" horiz-adv-x="1095" 
d="M575 1040q82 0 145 -19.5t109 -54t77 -80.5t49.5 -99t26.5 -110.5t8 -113.5v-39q0 -25 -1 -39h-709q3 -88 27.5 -153t67 -107.5t100 -63.5t125.5 -21q97 0 190 22t185 78l20 -165q-53 -27 -104 -46t-102 -31t-103.5 -17.5t-110.5 -5.5q-96 0 -183 33.5t-153 99
t-105 162.5t-39 225q0 124 33.5 224.5t95.5 172t151 110t200 38.5zM560 890q-110 0 -180 -64.5t-92 -200.5h522q0 64 -18.5 113.5t-52 83.5t-79.5 51t-100 17zM434 -344q0 28 10.5 52.5t29 43t43 29t52.5 10.5t52.5 -10.5t43 -29t29 -43t10.5 -52.5t-10.5 -52.5t-29 -43
t-43 -29t-52.5 -10.5t-52.5 10.5t-43 29t-29 43t-10.5 52.5z" />
    <glyph glyph-name="uni0229" unicode="&#x229;" horiz-adv-x="1095" 
d="M575 1040q82 0 145 -19.5t109 -54t77 -80.5t49.5 -99t26.5 -110.5t8 -113.5v-39q0 -25 -1 -39h-709q3 -88 27.5 -153t67 -107.5t100 -63.5t125.5 -21q97 0 190 22t185 78l20 -165q-53 -27 -104 -46t-102 -31t-103.5 -17.5t-110.5 -5.5q-8 0 -15 0.5t-15 0.5v-71
q10 2 20.5 3.5t27.5 1.5q34 0 63 -12.5t50 -35t32.5 -54t11.5 -68.5q0 -51 -23 -92t-60 -69.5t-82 -43.5t-90 -15q-39 0 -71.5 11.5t-63.5 28.5l10 100q22 -16 45 -23t55 -7q22 0 45.5 5t43 17t32.5 31t14 47q-1 39 -28.5 64.5t-68.5 25.5q-24 0 -48 -7.5t-40 -17.5v204
q-69 22 -128.5 64.5t-103 104.5t-68.5 144t-25 183q0 124 33.5 224.5t95.5 172t151 110t200 38.5zM560 890q-110 0 -180 -64.5t-92 -200.5h522q0 64 -18.5 113.5t-52 83.5t-79.5 51t-100 17z" />
    <glyph glyph-name="uni1E1D" unicode="&#x1e1d;" horiz-adv-x="1095" 
d="M575 1040q82 0 145 -19.5t109 -54t77 -80.5t49.5 -99t26.5 -110.5t8 -113.5v-39q0 -25 -1 -39h-709q3 -88 27.5 -153t67 -107.5t100 -63.5t125.5 -21q97 0 190 22t185 78l20 -165q-53 -27 -104 -46t-102 -31t-103.5 -17.5t-110.5 -5.5q-8 0 -15 0.5t-15 0.5v-71
q10 2 20.5 3.5t27.5 1.5q34 0 63 -12.5t50 -35t32.5 -54t11.5 -68.5q0 -51 -23 -92t-60 -69.5t-82 -43.5t-90 -15q-39 0 -71.5 11.5t-63.5 28.5l10 100q22 -16 45 -23t55 -7q22 0 45.5 5t43 17t32.5 31t14 47q-1 39 -28.5 64.5t-68.5 25.5q-24 0 -48 -7.5t-40 -17.5v204
q-69 22 -128.5 64.5t-103 104.5t-68.5 144t-25 183q0 124 33.5 224.5t95.5 172t151 110t200 38.5zM944 1550q0 -73 -26 -144.5t-74.5 -128.5t-118 -92t-156.5 -35q-88 0 -157.5 35t-118 92t-74 128.5t-25.5 144.5h120q6 -51 28.5 -96t56.5 -79.5t77.5 -54.5t92.5 -20t92 20
t76 54.5t55 79.5t30 96h122zM560 890q-110 0 -180 -64.5t-92 -200.5h522q0 64 -18.5 113.5t-52 83.5t-79.5 51t-100 17z" />
    <glyph glyph-name="uni01DD" unicode="&#x1dd;" horiz-adv-x="1078" 
d="M511 -27q-124 0 -203.5 41t-125.5 108.5t-64 153t-18 174.5v38q0 25 1 39h698q-2 82 -26.5 146t-67.5 108t-101.5 67t-126.5 23q-97 0 -181.5 -31.5t-167.5 -92.5l-20 165q51 31 97.5 54t93.5 39t97 24t107 8q96 0 183 -33t153 -97.5t105 -159t39 -218.5t-29 -226.5
t-88 -175.5t-147.5 -113.5t-207.5 -40.5zM525 118q63 0 109.5 18.5t78.5 53t51 84.5t28 113h-508q0 -130 61.5 -199.5t179.5 -69.5z" />
    <glyph glyph-name="uni0259" unicode="&#x259;" horiz-adv-x="1078" 
d="M511 -27q-124 0 -203.5 41t-125.5 108.5t-64 153t-18 174.5v38q0 25 1 39h698q-2 82 -26.5 146t-67.5 108t-101.5 67t-126.5 23q-97 0 -181.5 -31.5t-167.5 -92.5l-20 165q51 31 97.5 54t93.5 39t97 24t107 8q96 0 183 -33t153 -97.5t105 -159t39 -218.5t-29 -226.5
t-88 -175.5t-147.5 -113.5t-207.5 -40.5zM525 118q63 0 109.5 18.5t78.5 53t51 84.5t28 113h-508q0 -130 61.5 -199.5t179.5 -69.5z" />
    <glyph glyph-name="uni025B" unicode="&#x25b;" horiz-adv-x="970" 
d="M817 792q-72 51 -146.5 74.5t-146.5 23.5q-53 0 -89 -12t-58.5 -31.5t-32.5 -45t-10 -51.5q0 -41 25.5 -69t70 -45.5t103.5 -25t125 -7.5v-140q-40 0 -84 -2t-86.5 -7.5t-81 -17t-67.5 -30.5t-46.5 -47t-17.5 -67q0 -44 21.5 -74.5t57.5 -50t83 -28.5t98 -9q41 0 79.5 7
t78 20.5t80.5 34t87 48.5l20 -165q-53 -27 -101 -46t-93.5 -31t-91 -17.5t-94.5 -5.5q-109 0 -186.5 28t-127 71.5t-73 97.5t-23.5 106q0 51 20 93.5t54.5 75t80 54.5t97.5 32q-43 13 -78.5 36.5t-61 53t-39.5 63t-14 68.5q0 49 19 99.5t63.5 92t118 68t181.5 26.5
q107 0 185 -21t135 -59z" />
    <glyph glyph-name="uni1EBE" unicode="&#x1ebe;" horiz-adv-x="1160" 
d="M935 845v-160h-570v-520h264q149 0 250 2t161 13v-180h-880q11 60 13 173.5t2 261.5v590q0 148 -2 261.5t-13 173.5h850v-165h-645v-450h570zM175 1600l340 430h170l340 -430h-150l-275 280l-275 -280h-150zM1000 2565l-420 -430h-160l350 430h230z" />
    <glyph glyph-name="uni1EBE.VN" horiz-adv-x="1160" 
d="M935 845v-160h-570v-520h264q149 0 250 2t161 13v-180h-880q11 60 13 173.5t2 261.5v590q0 148 -2 261.5t-13 173.5h850v-165h-645v-450h570zM1144 2093l-222 -234l-67 70l198 247zM175 1600l340 430h170l340 -430h-150l-275 280l-275 -280h-150z" />
    <glyph glyph-name="uni1EC0" unicode="&#x1ec0;" horiz-adv-x="1160" 
d="M935 845v-160h-570v-520h264q149 0 250 2t161 13v-180h-880q11 60 13 173.5t2 261.5v590q0 148 -2 261.5t-13 173.5h850v-165h-645v-450h570zM175 1600l340 430h170l340 -430h-150l-275 280l-275 -280h-150zM440 2565l350 -430h-160l-420 430h230z" />
    <glyph glyph-name="uni1EC0.VN" horiz-adv-x="1160" 
d="M935 845v-160h-570v-520h264q149 0 250 2t161 13v-180h-880q11 60 13 173.5t2 261.5v590q0 148 -2 261.5t-13 173.5h850v-165h-645v-450h570zM147 2176l198 -247l-67 -70l-222 234zM175 1600l340 430h170l340 -430h-150l-275 280l-275 -280h-150z" />
    </font>
</defs>
</svg>
